<?xml version="1.0" encoding="UTF-8" standalone="no"?>
<!-- Created with Inkscape (http://www.inkscape.org/) -->
<svg
   xmlns:dc="http://purl.org/dc/elements/1.1/"
   xmlns:cc="http://creativecommons.org/ns#"
   xmlns:rdf="http://www.w3.org/1999/02/22-rdf-syntax-ns#"
   xmlns:svg="http://www.w3.org/2000/svg"
   xmlns="http://www.w3.org/2000/svg"
   xmlns:xlink="http://www.w3.org/1999/xlink"
   xmlns:sodipodi="http://sodipodi.sourceforge.net/DTD/sodipodi-0.dtd"
   xmlns:inkscape="http://www.inkscape.org/namespaces/inkscape"
   width="402.76407"
   height="77.723755"
   id="svg2557"
   sodipodi:version="0.32"
   inkscape:version="0.46"
   version="1.0"
   sodipodi:docname="James Madison sig.svg"
   inkscape:output_extension="org.inkscape.output.svg.inkscape">
  <defs
     id="defs2559">
    <inkscape:perspective
       sodipodi:type="inkscape:persp3d"
       inkscape:vp_x="0 : 526.18109 : 1"
       inkscape:vp_y="0 : 1000 : 0"
       inkscape:vp_z="744.09448 : 526.18109 : 1"
       inkscape:persp3d-origin="372.04724 : 350.78739 : 1"
       id="perspective2565" />
    <inkscape:perspective
       id="perspective2574"
       inkscape:persp3d-origin="372.04724 : 350.78739 : 1"
       inkscape:vp_z="744.09448 : 526.18109 : 1"
       inkscape:vp_y="0 : 1000 : 0"
       inkscape:vp_x="0 : 526.18109 : 1"
       sodipodi:type="inkscape:persp3d" />
  </defs>
  <sodipodi:namedview
     id="base"
     pagecolor="#ffffff"
     bordercolor="#666666"
     borderopacity="1.0"
     gridtolerance="10000"
     guidetolerance="10"
     objecttolerance="10"
     inkscape:pageopacity="0.0"
     inkscape:pageshadow="2"
     inkscape:zoom="3.6837209"
     inkscape:cx="185.95755"
     inkscape:cy="55.333892"
     inkscape:document-units="px"
     inkscape:current-layer="layer1"
     showgrid="false"
     inkscape:window-width="1680"
     inkscape:window-height="970"
     inkscape:window-x="-8"
     inkscape:window-y="-8" />
  <metadata
     id="metadata2562">
    <rdf:RDF>
      <cc:Work
         rdf:about="">
        <dc:format>image/svg+xml</dc:format>
        <dc:type
           rdf:resource="http://purl.org/dc/dcmitype/StillImage" />
      </cc:Work>
    </rdf:RDF>
  </metadata>
  <g
     inkscape:label="Layer 1"
     inkscape:groupmode="layer"
     id="layer1"
     transform="translate(-158.95758,-151.34133)">
    <path
       style="fill:#000000"
       d="M 158.95758,228.54284 C 158.95758,226.44198 165.97319,217.44031 174.93713,208.0396 C 183.07846,199.5016 194.95758,183.99917 194.95758,181.91263 C 194.95758,181.5956 194.28258,181.33621 193.45758,181.33621 C 188.32062,181.33621 196.03393,166.40669 205.34048,158.33621 C 209.10168,155.07457 215.1353,151.34782 216.66525,151.34133 C 217.32946,151.33852 214.05182,156.57106 209.38159,162.96922 C 204.71136,169.36738 201.11954,174.8315 201.39976,175.11172 C 202.16606,175.87802 205.04829,173.21797 207.1159,169.83621 C 208.3904,167.75165 208.95125,167.37055 208.95384,168.58732 C 208.95744,170.27126 201.51552,178.33621 199.95808,178.33621 C 199.31104,178.33621 188.13291,194.25886 187.10055,196.65106 C 186.90419,197.10608 189.02673,196.32139 191.81731,194.90729 C 194.60789,193.4932 197.46855,192.35848 198.17434,192.3857 C 198.88012,192.41292 196.23098,194.10042 192.28736,196.1357 C 185.22804,199.77897 184.70737,200.28871 173.66121,214.37063 C 165.72933,224.48239 158.95758,231.0094 158.95758,228.54284 z M 204.94431,166.91784 C 209.36403,160.37703 212.78162,154.82692 212.53897,154.58427 C 211.52828,153.57358 199.00681,167.76665 196.10346,173.21389 C 192.40428,180.15427 192.3403,180.50011 194.93302,179.541 C 196.01952,179.13908 200.5246,173.45866 204.94431,166.91784 z M 491.22447,204.38304 C 491.5161,202.20879 492.70035,199.10182 493.85614,197.47867 C 496.69391,193.49339 496.50814,193.00014 492.8767,194.87803 C 486.71294,198.06544 473.5791,203.29106 473.0533,202.76526 C 472.75656,202.46852 473.80624,199.92651 475.38591,197.11634 C 477.84546,192.7409 477.98508,192.12476 476.35781,192.82716 C 469.18336,195.92397 455.33109,200.30978 454.1527,199.85759 C 453.24887,199.51076 452.90278,198.4032 453.20471,196.82377 C 453.46625,195.45561 453.57202,194.33621 453.43975,194.33621 C 453.30748,194.33621 450.67586,195.49146 447.59171,196.90344 C 442.00809,199.4597 439.33634,199.39751 440.35802,196.73506 C 441.09931,194.8033 440.79994,194.88686 433.1158,198.75653 C 429.38028,200.63771 424.63884,202.49298 422.57927,202.87936 C 419.33297,203.48837 418.76337,203.30957 418.29956,201.53595 C 417.76595,199.49543 417.7527,199.49511 413.27816,201.41312 C 408.39307,203.50711 404.41984,203.89317 403.47573,202.36558 C 402.41514,200.6495 405.90888,195.38403 410.14349,192.31649 C 414.14758,189.41595 417.95758,188.40706 417.95758,190.24732 C 417.95758,191.50066 412.09021,196.33621 410.56942,196.33621 C 409.07441,196.33621 404.95758,200.03278 404.95758,201.37517 C 404.95758,201.90374 405.61975,202.33621 406.42907,202.33621 C 408.9106,202.33621 418.27743,197.80335 421.60194,194.99365 C 426.38282,190.95311 427.65543,191.82137 423.57394,196.33909 C 420.44269,199.80502 419.0743,202.33621 420.33185,202.33621 C 423.28032,202.33621 441.45221,193.58619 446.50061,189.73559 C 448.23077,188.41593 450.50389,187.35118 451.55197,187.36948 C 453.23145,187.3988 453.16092,187.63491 450.95758,189.35914 C 446.67002,192.71441 443.88729,195.81278 444.86785,196.13963 C 446.62632,196.72579 453.43743,192.56716 460.74882,186.44325 C 467.88007,180.47021 469.95758,179.31806 469.95758,181.33621 C 469.95758,181.88621 469.53036,182.33621 469.0082,182.33621 C 466.8801,182.33621 454.95758,195.50188 454.95758,197.85187 C 454.95758,198.24068 456.48748,198.27178 458.35736,197.92099 C 462.36451,197.16924 480.60786,189.87135 482.58796,188.22801 C 483.64656,187.34945 483.95758,187.44083 483.95758,188.63043 C 483.95758,189.47694 483.613,190.31954 483.19185,190.50288 C 482.10576,190.97566 475.90856,199.62052 476.34375,200.05572 C 476.82172,200.53368 490.78505,194.96407 496.98375,191.82295 C 503.66398,188.43782 504.30461,188.68849 500.17189,193.07045 C 496.52821,196.93388 493.01789,203.53042 492.97954,206.58621 C 492.96746,207.54871 492.44833,208.33621 491.82591,208.33621 C 491.08511,208.33621 490.87738,206.97081 491.22447,204.38304 z M 202.95758,205.56788 C 202.95758,204.46712 210.52419,195.46173 213.20096,193.37673 C 216.37734,190.90258 221.57418,188.33621 223.40792,188.33621 C 226.47953,188.33621 224.8533,190.15144 219.519,192.67712 C 214.12316,195.23193 204.08311,203.79507 205.18802,204.89999 C 206.14728,205.85924 213.36,201.70949 220.01072,196.37193 C 223.46347,193.60092 226.49646,191.54176 226.75071,191.79601 C 227.00496,192.05026 225.13052,194.57448 222.58528,197.4054 C 217.83126,202.69302 217.02577,204.34349 219.20758,204.32644 C 221.50646,204.30847 230.39028,199.59746 236.90286,194.94279 C 240.44777,192.40917 244.04777,190.35047 244.90286,190.36789 C 245.89433,190.38809 245.37072,191.20176 243.45758,192.61382 C 239.61059,195.45322 235.95758,199.3498 235.95758,200.6139 C 235.95758,202.91876 244.50663,200.34273 250.2132,196.31835 C 256.81356,191.66365 258.52547,191.68416 254.58201,196.3707 C 251.0735,200.54034 251.21868,201.73399 255.13897,200.94993 C 258.40251,200.29722 264.34594,196.99544 269.19121,193.1434 C 272.90134,190.19383 273.91803,191.60262 270.32296,194.71162 C 267.63513,197.03605 267.57839,197.2365 269.40722,197.9465 C 271.10957,198.6074 278.39396,196.54443 287.45758,192.83458 C 289.22029,192.11308 289.17039,192.33109 287.03697,194.67214 C 283.49133,198.56284 285.19361,199.34043 294.20758,197.94762 C 298.44261,197.29324 298.95758,197.41642 298.95758,199.08381 C 298.95758,201.45003 296.36511,205.07708 295.37881,204.09077 C 294.97054,203.6825 295.45599,202.44295 296.45758,201.33621 C 298.90058,198.63672 298.18946,198.23619 293.20152,199.50226 C 287.84607,200.86162 283.95758,199.94859 283.95758,197.33175 C 283.95758,195.37913 283.92239,195.37926 278.92056,197.3508 C 273.392,199.52996 268.92122,199.89985 267.33103,198.30966 C 266.62897,197.6076 264.83829,198.10259 261.66598,199.87563 C 256.21011,202.92497 250.3616,203.01039 250.60464,200.03719 C 250.68552,199.04773 250.46052,198.39646 250.10464,198.58992 C 242.54286,202.70063 234.17532,203.51948 234.74996,200.09255 C 234.99301,198.64309 233.89424,198.92507 228.23798,201.76376 C 218.95085,206.42464 215.95758,207.12683 215.95758,204.64462 C 215.95758,203.59499 216.49758,202.19621 217.15758,201.53621 C 218.02195,200.67184 218.03845,200.33621 217.2166,200.33621 C 216.58906,200.33621 215.79352,200.79264 215.44875,201.3505 C 213.7352,204.12309 202.95758,207.76192 202.95758,205.56788 z M 379.22958,204.13689 C 376.15116,202.63544 375.47009,199.72916 377.47838,196.66412 C 379.28165,193.91199 379.35618,193.88937 372.45758,198.18772 C 366.44517,201.9339 360.3882,203.56 358.94117,201.81644 C 357.62678,200.23269 358.44788,196.68605 360.73085,194.08621 C 363.10933,191.3776 361.78012,191.96223 354.57516,196.79368 C 347.37678,201.62072 341.73805,203.30472 338.83795,201.49357 C 337.84723,200.87486 336.23136,200.62308 335.24711,200.93406 C 333.7294,201.4136 333.76137,201.26442 335.45758,199.95195 C 337.96817,198.00935 338.66138,197.34976 342.87747,192.89195 C 344.82059,190.83742 346.67359,189.65222 347.16864,190.14727 C 347.6637,190.64233 346.29489,192.76361 343.99876,195.05974 C 338.99683,200.06166 338.76573,201.74358 343.20758,200.81762 C 350.16095,199.36812 363.12989,190.12646 375.37767,177.89322 C 385.07002,168.21238 385.00327,171.48535 375.30149,181.62834 C 365.8361,191.52419 359.95758,198.63518 359.95758,200.1892 C 359.95758,204.73989 377.15048,195.35231 386.55835,185.66479 C 389.65753,182.47348 391.95758,181.40859 391.95758,183.16502 C 391.95758,183.62086 389.55836,186.08673 386.62597,188.64474 C 383.69358,191.20274 380.45984,194.84527 379.43987,196.73924 C 377.83416,199.72087 377.77357,200.40956 378.98822,201.87313 C 380.10006,203.21281 381.43516,203.44457 385.42432,202.99036 C 388.37138,202.6548 389.83585,202.76738 388.95758,203.26197 C 386.20646,204.81123 381.48315,205.23603 379.22958,204.13689 z M 510.95758,200.53238 C 510.95758,198.11122 516.58032,192.80347 521.17546,190.88689 C 525.45844,189.10052 527.34269,188.90408 526.45758,190.33621 C 526.11766,190.88621 525.14336,191.33621 524.29247,191.33621 C 522.37089,191.33621 515.28107,196.86325 513.90541,199.43369 C 512.15039,202.71298 514.53982,201.59994 520.55498,196.33621 C 523.69756,193.58621 526.67262,191.33621 527.16622,191.33621 C 527.65983,191.33621 529.71927,190.21121 531.74277,188.83621 C 535.38228,186.36309 540.95758,185.43501 540.95758,187.30228 C 540.95758,187.83362 540.20193,189.85297 539.27836,191.78973 C 538.35478,193.72648 537.85275,195.56471 538.16272,195.87468 C 538.4727,196.18466 541.27787,195.57687 544.39644,194.52405 C 549.40582,192.83289 549.98619,192.79782 549.37689,194.22302 C 547.60952,198.35702 548.32975,199.82569 552.28402,200.15113 C 554.62532,200.34383 557.08479,199.82765 558.62079,198.82123 C 560.00146,197.91658 561.35611,197.4014 561.63111,197.6764 C 562.43186,198.47716 557.75391,201.07806 554.16694,201.82643 C 550.03624,202.68824 545.52037,200.11611 546.25201,197.3183 C 546.66874,195.72473 546.39736,195.59871 544.28134,196.40322 C 540.7155,197.75895 536.97541,197.54624 536.364,195.95294 C 536.07206,195.19215 536.51322,192.94215 537.34436,190.95294 C 538.49801,188.19188 538.55904,187.33621 537.60233,187.33621 C 536.25902,187.33621 526.79665,193.05733 525.94666,194.38344 C 525.66566,194.82185 523.41566,196.7862 520.94666,198.74867 C 515.95108,202.71938 510.95758,203.61105 510.95758,200.53238 z M 500.18494,175.91333 C 500.33489,174.30574 501.02008,172.80574 501.70758,172.58 C 503.43552,172.01261 503.27526,174.54895 501.43494,176.89508 C 499.98248,178.74674 499.92487,178.70148 500.18494,175.91333 z"
       id="path2582" />
    <use
       x="0"
       y="0"
       xlink:href="#path2582"
       id="use2584" />
    <use
       x="0"
       y="0"
       xlink:href="#use2584"
       id="use2586" />
  </g>
</svg>
