<?xml version="1.0" encoding="UTF-8"?>
<svg version="1.1" xmlns="http://www.w3.org/2000/svg" width="385" height="130" >
<path fill="#231F20" d="M50.511,46.005c-7.334-3.396-8.874-10.96-5.524-17.912c2.646-5.493,6.764-10.315,11.288-14.343 c3.061-2.725,12.618-9.012,14.518-2.046c0.848,3.108-1.029,7.157-2.223,9.888c-1.943,4.444-4.6,8.584-7.342,12.568 c-6.481,9.417-14.351,17.672-23.857,24.039c-4.951,3.316-10.24,6.127-15.701,8.503c-4.122,1.794-10.93,4.865-15.467,2.938 c-6.029-2.56,5.204-9.74,6.882-10.737c8.577-5.096,18.372-8.305,27.889-11.095c13.519-3.964,27.438-6.503,41.407-8.222 c-0.165-0.307-0.329-0.613-0.494-0.92c-4.419,2.837-8.766,5.839-12.82,9.181c-0.922,0.76-6.563,6.901-1.527,5.512 c5.246-1.446,9.958-6.454,14.033-9.832c1.068-0.885,2.131-1.781,3.241-2.614c0.776-0.582-0.64-0.711-0.972-0.212 c-1.08,1.621-2.525,3.079-3.814,4.543c-1.312,1.49-3.788,4.528-0.975,5.904c3.756,1.837,11.66-4.621,14.529-6.313 c9.663-5.697-2.944,4.886,1.328,5.114c3.298,0.176,7.156-2.892,9.765-4.546c1.205-0.764,2.391-1.534,3.662-2.19 c1.89-0.975-1.295,3.155-1.153,2.967c-0.406,0.536-1.378,1.742-0.81,2.536c2.853,3.993,8.626-2.647,10.41-4.77 c-0.584-0.03-1.169-0.061-1.754-0.091c-0.175,7.65,8.056,6.161,12.675,4.456c4.084-1.508,8.101-3.708,11.469-6.468 c0.788-0.646,3.563-3.691,1.249-4.273c-4.538-1.139-10.309,10.337-5.562,11.313c3.281,0.674,6.749-1.303,9.56-2.717 c5.296-2.664,10.272-5.938,15.441-8.833c-0.506-0.127-1.012-0.254-1.519-0.381c-1.668,2.779-3.5,5.482-5.561,7.986 c-0.547,0.665-1.149,1.271-1.77,1.865c-2.603,2.491-0.413-6.101,0.301-1.291c0.283,1.906,1.39,2.433,2.925,3.482 c0.574,0.393,2.341-0.43,1.522-0.989c-1.79-1.224-2.487-1.84-2.542-4.112c-0.014-0.586-0.104-0.793-0.491-1.17 c-0.544-0.529-1.703-0.164-2.273,0.086c-1.434,0.63-4.819,4.379-2.217,5.685c4.59,2.304,10.214-8.609,11.918-11.447 c0.517-0.861-1.208-0.556-1.519-0.381c-5.031,2.818-9.901,5.917-15.009,8.601c-1.623,0.853-6.367,3.731-8.097,2.113 c-2.279-2.132,1.742-7.108,3.326-8.325c0.848-0.651-0.789,1.986-0.676,1.866c-0.762,0.801-1.708,1.42-2.612,2.046 c-2.058,1.427-4.325,2.549-6.596,3.589c-3.936,1.803-12.167,4.187-12.004-2.914c0.019-0.81-1.429-0.478-1.754-0.091 c-0.523,0.623-1.079,1.216-1.639,1.806c-0.417,0.431-0.848,0.849-1.29,1.254c-0.113,0.106-5.071,3.153-3.824,0.37 c0.607-1.355,3.852-3.154,2.135-4.932c-0.91-0.943-3.107,0.293-3.884,0.694c-1.529,0.79-2.96,1.801-4.412,2.722 c-0.809,0.513-6.799,3.543-6.157,2.469c0.58-0.971,5.886-6.86,1.773-6.413c-4.886,0.531-10.133,5.585-14.453,7.667 c-0.59,0.28-1.195,0.525-1.815,0.734c-0.482-0.816-0.964-1.632-1.446-2.449c0.715-1.032,1.5-2.008,2.355-2.926 c1.144-1.3,2.325-2.59,3.288-4.035c0.417-0.627,0.03-1.082-0.693-1.002c-2.892,0.319-6.428,4.692-8.511,6.392 c-2.373,1.937-4.788,3.843-7.395,5.458c-3.89,2.411,0.236-2.134,1.391-3.121c3.869-3.304,8.196-6.162,12.474-8.908 c0.714-0.458,0.174-1.003-0.494-0.92c-23.088,2.84-47.374,7.534-68.189,18.401c-3.965,2.07-9.411,4.888-11.369,9.216 c-2.161,4.776,4.446,5.482,7.497,5.166c9.927-1.027,19.859-7.029,28.039-12.331c8.724-5.656,15.823-13.118,22.09-21.357 c5.108-6.716,10.989-15.026,12.127-23.63c0.758-5.73-4.815-7.522-9.489-5.813c-12.412,4.539-33.741,29.943-14.336,38.93 C49.613,47.284,51.368,46.402,50.511,46.005L50.511,46.005 M170.796,45.665c-1.757,2.873,0.198,5.646,3.414,5.635c3.513-0.011,7.119-1.807,10.222-3.25 c6-2.79,11.71-6.493,16.902-10.573c6.86-5.391,12.191-12.446,19.102-17.704c2.082-1.585,0.578,1.28,0.099,2.191 c-1.127,2.138-2.689,4.04-4.135,5.96c-4.008,5.325-7.934,10.711-11.933,16.043c-1.53,2.041-3.067,4.082-4.699,6.043 c-1.503,1.807,0.741,0.403,0.687,0.574c0.34-1.067,0.698-2.122,1.009-3.2c0.872-3.028,1.578-6.108,2.232-9.189 c0.29-1.37,1.169-3.829,0.738-5.274c-0.149-0.501-1.759,0.079-1.92,0.424c-2.029,4.335,1.619,10.815,6.113,11.313 c4.713,0.521,9.93-0.983,14.326-2.464c9.204-3.101,17.531-8.643,25.202-14.473c5.321-4.044,10.376-8.47,15.16-13.133 c2.737-2.667,6.003-5.764,7.461-9.401c1.63-4.065-5.646-1.136-6.79-0.593c-9.374,4.445-18.006,12.738-24.523,20.604 c-3.087,3.727-10.15,13.433-5.893,18.576c3.18,3.84,9.619,1.221,13.079-0.784c5.439-3.152,9.978-7.462,14.228-12.054 c-0.585,0.042-1.169,0.084-1.754,0.126c-9.475,10.994-18.648,22.403-26.749,34.451c-2.758,4.101-8.85,11.539-7.717,16.978 c0.682,3.277,5.992,4.295,8.703,3.886c4.636-0.699,8.883-2.934,12.017-6.441c0.42-0.469-1.438-0.228-1.754,0.126 c-3.14,3.512-7.801,6.326-12.783,5.286c-1.657-0.346-3.943-1.898-4.315-3.684c-0.403-1.936,0.828-4.309,1.601-6.005 c2.868-6.301,7.125-12.056,11.173-17.632c6.776-9.333,14.05-18.354,21.579-27.09c0.423-0.491-1.444-0.208-1.754,0.126 c-4.253,4.593-15.215,17.161-22.591,13.116c-4.755-2.608-0.754-10.675,1.002-13.81c4.712-8.407,12.926-15.378,20.555-21.067 c2.722-2.029,5.65-3.982,8.832-5.205c3.633-1.396,1.517,2.456,0.743,3.658c-5.33,8.284-14.601,15.022-22.311,20.881 c-6.563,4.988-13.671,9.429-21.36,12.454c-4.342,1.708-8.988,2.806-13.67,2.764c-4.298-0.04-7.734-6.923-5.901-10.837 c-0.641,0.141-1.28,0.282-1.92,0.423c0.756,2.538-1.181,7.285-1.773,9.768c-0.595,2.488-2.197,5.611-2.268,8.141 c0.035,0.072,0.093,0.114,0.175,0.125c1.15,0.457,2.27-0.872,2.886-1.588c2.992-3.472,5.64-7.285,8.368-10.962 c1.08-1.455,15.427-19.449,13.349-20.57c-1.356-0.732-3.242,0.608-4.29,1.336c-5.471,3.801-9.582,9.461-14.511,13.9 c-6.005,5.407-12.867,9.995-20.063,13.654c-2.58,1.312-5.322,2.534-8.169,3.127c-3.31,0.69-5.133-2.367-3.501-5.035 C172.866,45.07,171.095,45.177,170.796,45.665L170.796,45.665 M219.13,49.589c-1.455,1.034-4.235,3.11-3.846,5.17c0.068,0.36,2.014-0.085,1.932-0.518 c-0.364-1.925,2.289-3.86,3.654-4.83c0.368-0.262-0.327-0.284-0.444-0.272C219.974,49.185,219.503,49.324,219.13,49.589 L219.13,49.589 M269.343,39.232c-1.986-0.484-3.846-0.164-5.695,0.602c-1.482,0.614-2.66,2.267-3.754,3.366 c-1.95,1.959-4.529,3.145-6.425,5.066c-0.161,0.164-0.267,0.316-0.124,0.528c2.026,3.022,17.409-6.452,18.909-8.686 c0.528-0.787-1.24-0.427-1.495-0.294c-2.079,1.085-5.839,7.264-1.262,7.347c4.658,0.084,9.282-4.708,12.275-7.759 c-0.579-0.01-1.158-0.019-1.737-0.029c-3.02,8.042,8.055,6.945,12.255,6.032c9.322-2.026,15.65-7.753,22.336-14.166 c2.408-2.31,5.228-4.788,6.934-7.701c0.612-1.044-0.138-1.537-1.133-1.271c-4.1,1.099-8.278,6.234-11.304,8.912 c-6.839,6.053-13.523,12.284-20.164,18.554c-6.299,5.946-12.757,11.844-18.018,18.757c-0.52,0.684-4.554,5.759-3.084,6.938 c1.031,0.827,2.295,0.076,3.233-0.565c6.641-4.535,12.071-12.481,16.148-19.223c1.399-2.313,2.562-4.761,3.446-7.314 c1.539-4.445,2.562-8.043,7.52-5.408c2.905,1.544,6.169,0.749,7.943-2.153c0.473-0.773-1.467-0.541-1.797-0.031 c-2.316,3.572-0.091,5.627,3.771,5.259c7.519-0.718,13.61-4.971,18.275-10.728c0.584-0.721-1.361-0.418-1.671-0.168 c-3.166,2.563-7.414,5.721-8.938,9.629c-1.389,3.563,7.109,1.466,8.088,1.174c8.689-2.595,16.357-8.704,22.896-14.749 c0.674-0.623,11.069-10.314,7.911-11.168c-1.187-0.321-2.768,0.8-3.676,1.364c-4.047,2.512-7.533,6.155-10.795,9.571 c-1.943,2.036-8.739,8.782-5.849,12.266c1.878,2.263,6.602-0.824,8.258-1.711c6.126-3.284,13.86-7.911,17.276-14.208 c0.453-0.837-1.355-0.474-1.671-0.168c-4.252,4.125-8.484,8.388-12.123,13.071c-1.518,1.954-2.982,6.155,0.914,3.751 c5.013-3.093,9.091-8.595,12.965-12.932c5.157-5.775,10.294-11.715,14.669-18.115c1.258-1.838,3.274-6.331-0.871-4.083 c-6.627,3.592-11.418,13.66-12.935,20.603c-2.493,11.412,5.685,21.407,6.645,32.421c0.516,5.914-0.812,12.254-3.446,17.533 c-3.987,7.985-11.49,13.504-19.154,17.646c-12.6,6.809-26.79,10.076-41,10.845c-27.029,1.463-53.986-4.186-80.965-4.958 c-13.452-0.386-26.591,0.943-39.794,3.473c-8.733,1.673-17.659,3.696-25.776,7.433c-4.392,2.021-12.516,7.956-4.626,11.429 c0.566,0.249,2.335-0.575,1.54-0.926c-3.161-1.391-3.969-3.927-1.361-6.449c5.574-5.392,15.406-7.141,22.606-8.861 c14.781-3.531,29.744-5.265,44.935-5.055c14.406,0.198,28.762,1.854,43.088,3.231c25.834,2.484,51.217,3.765,75.661-6.345 c13.989-5.785,27.438-15.717,29.855-31.56c0.681-4.453,0.528-8.998-0.521-13.375c-2.11-8.807-6.833-16.042-5.954-25.485 c0.673-7.219,5.505-14.44,10.503-19.465c1.969-1.979,1.977-1.719,0.685,0.497c-1.021,1.754-2.279,3.383-3.498,5.001 c-6.687,8.876-14.115,17.661-22.307,25.188c-0.533,0.491-1.089,0.956-1.656,1.406c-1.121,0.89-0.374,0.411,0.12-0.609 c1.007-2.079,2.804-3.897,4.308-5.615c2.857-3.265,5.925-6.368,9.038-9.389c-0.557-0.056-1.113-0.112-1.671-0.168 c-2.353,4.337-6.883,7.435-10.865,10.144c-2.078,1.414-7.994,6.245-10.685,5.317c-5.64-1.944,13.949-19.734,16.321-21.207 c0.947-0.588-1.765,3.288-2.159,3.753c-2.516,2.969-5.446,5.626-8.354,8.202c-5.054,4.476-10.799,8.346-17.061,10.909 c-2.011,0.823-4.429,1.615-6.629,1.369c-2.396-0.269,0.202-3.208,0.864-4.008c1.945-2.347,4.373-4.396,6.737-6.311 c-0.557-0.056-1.113-0.112-1.671-0.168c-3.54,4.368-7.753,7.715-13.221,9.245c-3.206,0.897-7.794,0.236-5.232-3.713 c-0.599-0.01-1.198-0.021-1.797-0.031c-2.809,4.594-7.817-2.347-11.759,0.569c-2.927,2.165-3.317,6.062-4.568,9.244 c-1.762,4.481-4.69,8.565-7.566,12.388c-2.435,3.236-5.123,6.298-8.011,9.135c-0.922,0.905-1.894,1.787-2.962,2.517 c0.817-0.558,1.785-3.951,2.48-4.989c4.595-6.854,11.095-12.495,17.055-18.155c9.909-9.411,19.79-19.826,30.965-27.758 c1.304-0.925-0.011-0.539-0.47,0.246c-0.983,1.678-2.57,3.115-3.901,4.491c-3.065,3.168-6.342,6.144-9.66,9.043 c-4.103,3.584-8.645,5.664-13.918,6.992c-3.9,0.982-12.594,1.389-10.071-5.331c0.265-0.705-1.508-0.263-1.737-0.029 c-1.434,1.46-2.973,2.808-4.563,4.094c-0.771,0.617-1.573,1.186-2.41,1.706c-1.684,1.096-4.783,0.816-3.474-1.76 c0.402-0.793,1.371-2.349,2.172-2.767c-0.498-0.098-0.997-0.196-1.495-0.294c-2.002,2.98-8.068,5.28-11.181,6.67 c-1.067,0.477-5.172,2.276-1.826,0.186c0.991-0.619,1.887-1.482,2.759-2.249c2.352-2.066,4.257-5.314,7.947-4.416 C268.76,40.415,270.435,39.498,269.343,39.232L269.343,39.232 M334.966,18.491c-0.165-0.568-0.275-1.152-0.357-1.737c-0.078-0.558-0.207-2.135,0.285-2.312 c0.273-0.098,0.795-0.501,0.5-0.833c-0.31-0.348-0.924-0.182-1.287-0.052c-2.157,0.774-1.563,3.757-1.072,5.451 C333.247,19.744,335.177,19.217,334.966,18.491L334.966,18.491 M374.453,43.582c0.062-0.389,0.163-0.773,0.284-1.148c0.101-0.312,0.23-0.614,0.393-0.9 c0.071-0.125,0.154-0.235,0.253-0.339c0.326-0.341-1.161,0.044-0.676,0.184c0.414,0.119,0.981-0.068,1.352-0.245 c0.174-0.083,0.653-0.391,0.234-0.511c-1.167-0.334-2.533,0.306-3.117,1.332c-0.335,0.589-0.524,1.297-0.629,1.964 C372.472,44.395,374.379,44.051,374.453,43.582L374.453,43.582z"/>
</svg>