<?xml version="1.0" encoding="UTF-8"?>
<svg version="1.1" xmlns="http://www.w3.org/2000/svg" width="294" height="56" >
<path fill="#231F20" d="M21.186,13.436c-3.33,1.22-5.012-0.691-4.125-4.017c1.042-3.91,5.317-2.587,4.924,0.018 c-0.143,0.949-0.638,1.904-0.994,2.785c-1.185,2.929-1.951,5.812-2.178,8.973c-0.267,3.698-0.585,6.161-4.289,7.923 c-1.862,0.886-13.359,1.777-9.129-2.258c1.16-1.106,2.75-1.982,4.271-2.469c0.765-0.245-3.114,4.228-3.822,4.894 c-1.217,1.145,1.651,1.051,2.312,0.43c0.612-0.576,7.183-6.292,3.64-6.95c-2.833-0.526-6.206,1.7-8.307,3.321 c-2.253,1.74-2.841,3.933,0.167,5.09c3.916,1.507,9.074,0.46,12.72-1.275c5.877-2.796,4.77-7.529,5.852-13.047 c0.547-2.79,5.717-10.603-0.095-11.29c-4.672-0.552-8.753,2.527-8.237,7.485c0.38,3.65,6.369,2.266,8.418,1.515 C24.223,13.864,22.469,12.966,21.186,13.436L21.186,13.436 M31.628,21.421c-2.681,0.329-5.217,1.307-7.31,3.023c-2.262,1.855-3.273,6.914,0.76,6.972 c6.393,0.091,15.676-6.36,6.788-11.158c-0.458-0.248-3.152,0.427-2.814,0.88c5.928,7.966,16.619-3.517,20.572-7.625 c1.797-1.866,2.671-7.226-0.782-7.916c-3.055-0.61-4.907,2.643-5.773,4.933c-2.487,6.584,1.021,13.309-0.657,19.794 c-0.373,1.441,0.664,1.284,1.436,0.408c1.359-1.544,2.808-3.006,4.367-4.349c1.847-1.591,1.582,2.749,3.106,4.177 c0.919,0.861,2.69,0.539,3.746,0.256c1.548-0.415,2.513-1.369,3.379-2.658c0.505-0.751,0.609-3.366,1.33-1.51 c0.646,1.665,0.38,3.77,0.276,5.489c-0.04,0.659,2.61-0.288,2.877-0.645c1.334-1.781,2.757-3.493,4.257-5.136 c0.692-0.758,1.506-2.358,1.615-1.219c0.151,1.581-0.419,3.248-0.646,4.803c-0.954,6.54,5.637,2.778,8.703,0.848 c1.215-0.765-1.702-0.403-2.217-0.079c-9.155,5.761,1.272-9.4-5.273-7.529c-4.042,1.156-6.895,5.619-9.297,8.825 c0.959-0.215,1.918-0.43,2.877-0.645c0.191-3.15,0.517-8.309-3.854-7.214c-0.865,0.217-1.793,0.795-2.229,1.595 c-0.387,0.711-1.42,4.513-2.816,3.834c-1.476-0.718-1.502-3.005-1.688-4.334c-0.676-4.833-11.299,5.879-11.923,6.619 c-0.183,0.216-0.179,0.365,0.12,0.448c6.861,1.917,4.784-9.573,4.42-12.412c-0.469-3.658,0.037-7.472,1.335-10.907 c1.435-3.796,2.179,1.089,1.883,2.696c-0.469,2.546-4.089,4.725-5.9,6.29c-2.788,2.408-7.44,6.293-10.349,2.385 c-0.938,0.293-1.876,0.587-2.814,0.88c3.938,2.125,5.154,5.378,0.979,8.066c-6.41,4.126-5.991-5.962,0.259-6.729 C31.104,22.489,33.523,21.188,31.628,21.421L31.628,21.421 M94.942,11.968c1.007-0.263,2.021-0.489,3.046-0.672c1.097-0.214,1.002-0.103-0.286,0.334 c-5.455,3.81-4.11-0.924-3.703-2.184c0.466-1.443,3.043-6.267,5.256-4.322c1.114,0.979,1.911,2.413,2.602,3.694 c4.77,8.857,1.931,17.644-7.982,20.704c-2.306,0.712-10.161,0.396-6.015-3.554c3.822-3.641,8.503,0.454,10.959,3.303 c3.811,4.419,8.322,2.295,12.342-0.787c1.31-1.004-1.597-1.021-2.32-0.466c-4.4,3.373-5.905,1.665-8.767-1.52 c-1.432-1.593-3.128-2.577-5.186-3.117c-3.513-0.922-8.668,0.41-10.613,3.649c-2.218,3.694,3.261,4.775,5.661,4.692 c5.81-0.2,12.392-3.158,15.551-8.139c3.403-5.368,0.626-23.206-8.401-20.382c-2.393,0.748-8.4,6.807-6.181,9.615 c2.208,2.793,9.907,0.978,10.792-2.443c0.066-0.26-0.106-0.389-0.295-0.514c-1.659-1.105-5.117,0.223-6.844,0.674 C92.815,10.988,93.204,12.422,94.942,11.968L94.942,11.968 M112.8,20.678c-0.298,2.24-1.641,9.948,1.519,10.765c2.47,0.639,4.321-1.416,5.875-2.993 c1.756-1.783,4.06-3.86,5.158-6.162c-0.935,0.046-1.868,0.093-2.802,0.14c-0.984,2.514-3.1,8.868,1.729,8.274 c4.01-0.493,11.7-6.29,10.171-11.09c-0.334-1.046-2.674-0.258-2.899,0.566c-0.664,2.428-2.058,8.471,1.338,9.568 c1.975,0.638,4.259-0.085,5.988-1.111c1.352-0.802,2.51-1.675,3.582-2.837c0.321-0.348,1.753-2.371,1.323-2.1 c-0.783-0.019-1.567-0.037-2.351-0.055c0.314,2.041-1.039,6.706,2.911,5.388c3.218-1.073,5.299-3.817,7.966-5.752 c-1.062-0.501-1.642-0.358-1.74,0.429c-0.153,0.415-0.326,0.821-0.518,1.219c-0.545,1.216-1.777,3.369-1.396,4.817 c0.358,1.363,1.414,1.459,2.673,1.326c1.947-0.205,3.744-1.708,5.227-2.848c1.011-0.777,7.406-8.512,7.853-7.902 c0.513-0.462,1.026-0.925,1.539-1.387c-4.122,0.391-11.833,6.55-5.273,9.701c5.142,2.469,15.347-3.925,16.802-8.933 c0.335-1.152-2.425-0.462-2.801,0.14c-1.16,1.855-3.144,6.446,0.213,7.162c4.604,0.982,9.948-3.075,12.78-6.255 c-0.839-0.096-1.678-0.191-2.517-0.287c-6.731,9.819-11.671,21.646-13.099,33.466c-0.142,1.179,2.779,0.644,2.9-0.355 c1.413-11.708,6.237-23.315,12.901-33.034c0.773-1.129-2.016-0.849-2.517-0.287c-1.144,1.285-7.814,7.295-9.28,4.612 c-0.694-1.269,0.648-3.873,1.319-4.946c-0.934,0.047-1.867,0.093-2.801,0.14c-0.917,3.153-5.046,5.399-7.75,6.572 c-6.564,2.848-7.007-5.519-1.268-6.063c0.512-0.048,2.106-0.611,1.539-1.387c-2.082-2.845-5.063-0.507-6.79,1.47 c-2.495,2.859-4.317,5.912-7.512,8.118c-2.094,1.446,0.962-5.593,0.847-6.33c-0.33-2.108-3.875,0.497-4.491,1.014 c-1.385,1.162-2.68,2.426-4.148,3.487c-1.563,1.128-0.519-3.076-0.672-4.071c-0.136-0.88-1.958-0.303-2.352-0.055 c-1.376,0.869-6.222,9.34-8.062,3.912c-0.7-2.065-0.027-4.847,0.535-6.902c-0.967,0.188-1.933,0.377-2.899,0.566 c1.17,3.671-6.827,9.591-7.361,7.943c-0.582-1.797,0.601-4.574,1.261-6.259c0.382-0.977-2.436-0.628-2.802,0.14 c-0.381,0.799-1.013,1.5-1.56,2.184c-1,1.25-2.122,2.4-3.226,3.558c-1.15,1.208-1.593,2.598-2.188,0.728 c-0.813-2.549-0.323-5.745,0.025-8.359C115.855,19.151,112.934,19.677,112.8,20.678L112.8,20.678 M143.949,8.112c-0.362-1.192-1.118-2.721-2.532-2.788c-0.702-0.033-1.472,0.124-2.049,0.549 c-0.438,0.323-0.381,0.774,0.215,0.803c0.117,0.012,0.118,0.006,0.003-0.018c0.057,0.016,0.111,0.037,0.164,0.062 c0.002,0,0.202,0.167,0.268,0.23c0.233,0.222,0.399,0.498,0.551,0.778c0.197,0.367,0.361,0.762,0.482,1.161 C141.301,9.711,144.188,8.897,143.949,8.112L143.949,8.112 M201.534,19.194c-2.45,0.615-7.167,3.698-3.813,6.351c3.074,2.433,8.869,1.094,11.882-0.716 c6.762-4.063,7.223-11.741,9.497-18.618c1.272-3.85,1.638,3.644,1.5,4.736c-0.431,3.431-1.368,6.815-2.379,10.113 c-0.779,2.545-1.67,5.139-3.049,7.428c-0.835,1.386,1.677,1.022,2.164-0.25c0.408-1.064,0.813-2.125,1.167-3.209 c1.644-5.02,1.225-11.074-4.632-12.874c-2.89-0.888-8.393-1.151-7.387,3.415c1.208,5.486,8.559,8.446,13.47,8.572 c1.186,0.03,3.054-1.734,1.09-1.784c-4.162-0.107-7.634-1.962-10.296-5.103c-4.121-4.861,3.223-3.791,5.125-0.163 c2.423,4.621-1.733,8.346-1.799,12.618c-0.006,0.409,0.217,0.56,0.583,0.685c3.559,1.214,5.493-6.711,6.157-8.675 c1.342-3.969,5.313-14.006,2.066-17.87c-3.245-3.863-6.541,2.101-7.234,4.412c-1.609,5.364-2.16,11.551-7.036,15.06 c-2.007,1.444-4.712,1.914-7.105,1.437c-2.611-0.52-2.043-3.324,0.46-3.953C203.732,20.363,203.29,18.752,201.534,19.194 L201.534,19.194 M232.313,17.555c-3.191,0.676-10.749,2.446-10.919,6.625c-0.128,3.157,3.598,3.682,5.858,3.022 c3.68-1.073,6.545-4.366,9.153-6.985c1.186-1.191-1.666-1.083-2.313-0.434c-1.724,1.731-3.434,3.465-5.386,4.944 c-1.261,0.955-2.568,1.75-3.813,0.39c-0.661-0.721-0.756-1.706-0.261-2.52c1.392-2.293,5.606-3.133,8.053-3.652 C234.456,18.57,234.05,17.188,232.313,17.555L232.313,17.555 M239.139,5.674c-2.214,4.936-4.195,10.074-5.452,15.34c-0.513,2.148-1.241,5.237,0.188,7.193 c1.325,1.814,4.506,0.488,5.972-0.275c1.771-0.921,0.149-2.063-1.191-1.365c-4.894,2.546-1.542-7.965-0.924-9.952 c1.142-3.67,2.558-7.282,4.131-10.79C242.477,4.454,239.57,4.712,239.139,5.674L239.139,5.674 M250.449,21.362c-2.137-5.795-10.449-2.781-9.98,2.787c0.202,2.403,2.115,3.551,4.328,3.135 c4.5-0.845,6.655-5.577,8.379-9.301c-0.95,0.178-1.901,0.357-2.852,0.535c-0.98,2.735-3.184,10.224,2.145,9.224 c5.398-1.014,8.301-6.595,10.207-11.259c-0.958,0.219-1.916,0.438-2.875,0.656c-0.342,2.098-2.35,10.44,1.608,9.697 c2.785-0.523,4.176-3.35,5.636-5.49c0.736-1.08,1.45-2.174,2.194-3.25c1.185-1.711-0.501-0.374-0.438,0.792 c0.14,2.581-0.924,5.953,0.074,8.402c0.054,0.095,0.138,0.145,0.252,0.15c1.177,0.115,2.689-0.146,3.399-1.222 c1.389-2.107,2.665-4.271,4.134-6.327c0.242-0.316,0.484-0.632,0.727-0.948c1.647-1.338,1.675-1.685,0.083-1.038 c0.31,0.512,0.089,1.884,0.098,2.454c0.125,7.577,5.506,5.798,9.738,2.009c0.571-0.512-2.114-0.18-2.611,0.265 c-7.03,6.293-1.614-6.522-5.729-6.106c-5.148,0.52-6.496,7.531-9.638,10.539c0.834-0.224,1.669-0.447,2.503-0.671 c-1.666-0.162,1.517-9.95-0.873-10.387c-1.579-0.289-2.998,0.728-3.965,1.818c-1.725,1.945-3.001,4.392-4.511,6.505 c-2.819,3.95-0.192,0.819-0.228,0.716c-0.189-0.564-0.163-1.243-0.185-1.828c-0.086-2.272,0.264-4.617,0.629-6.856 c0.056-0.341-2.633,0.063-2.875,0.656c-1.283,3.139-2.975,6.23-5.332,8.688c-3.569,3.72-1.825-6.304-1.316-7.723 c0.172-0.479-2.551-0.115-2.852,0.535c-0.953,2.059-5.06,11.355-6.856,5.392c-1.062-3.524,2.548-5.938,4.083-1.771 C247.784,22.771,250.636,21.868,250.449,21.362L250.449,21.362 M288.669,17.324c-1.452,0.627-2.909,1.574-3.683,2.987c-1.121,2.046,1.776,3.65,2.992,4.773 c0.936,0.864,2.314,2.289,1.969,3.707c-0.612,2.513-7.322,1.671-9.005,1.629c-0.595-0.015-3.306,1.124-1.885,1.159 c2.639,0.065,13.883,0.746,13.84-4.082c-0.014-1.512-1.677-2.949-2.696-3.854c-1.176-1.043-2.981-2.018-2.359-3.853 c0.338-0.998,1.572-1.718,2.489-2.115C292.083,16.919,289.338,17.035,288.669,17.324L288.669,17.324z"/>
</svg>