<?xml version="1.0" encoding="UTF-8"?>
<svg version="1.1" xmlns="http://www.w3.org/2000/svg" width="184" height="75" >
<path d="M15.833,19.292c-1.404,0.023-2.362,2.366-2.854,3.329c-4.423,8.649-6.671,18.672-9.155,27.98 c-0.291,1.092,1.396,1.555,1.688,0.465c2.303-8.625,4.583-17.418,8.094-25.651c0.573-1.346,1.207-2.695,2.039-3.904 c0.344-0.499,0.687-0.477,0.189-0.469C16.96,21.023,16.962,19.273,15.833,19.292L15.833,19.292z"/>
<path d="M23.732,24.177c0.181-0.041-0.94,4.229-1.087,4.642c-1.247,3.519-3.139,6.842-4.779,10.188 c-1.457,2.973-2.525,5.894-2.043,9.227c0.161,1.113,1.848,0.639,1.688-0.465c-1.134-7.831,7.008-14.488,7.86-22.126 c0.156-1.403-0.146-3.6-2.104-3.152C22.167,22.741,22.634,24.428,23.732,24.177L23.732,24.177z"/>
<path d="M7.333,41.042c5.978-0.661,11.987-1.297,18-1.5c1.125-0.038,1.129-1.788,0-1.75c-6.013,0.203-12.022,0.839-18,1.5 C6.225,39.415,6.212,41.166,7.333,41.042L7.333,41.042z"/>
<path d="M30.423,37.392c-2.728-4.913-8.229,2.726-8.229,5.715c0,4.051,6.969-2.663,7.317-4.707 c0.188-1.103-1.319-1.546-1.688-0.465c-1.036,3.038-0.494,8.077,3.861,6.426c4.248-1.611,7.96-6.131,10.935-9.408 c-0.488-0.284-0.976-0.568-1.463-0.852c-0.88,2.266-3.834,8.157-2.032,10.441c2.151,2.727,8.651-5.225,9.995-6.756 c-0.488-0.284-0.976-0.568-1.463-0.852c-2.409,9.416,11.661,7.291,11.052-0.268c-0.079-0.983-1.396-1.192-1.719-0.232 c-0.552,1.639-1.346,3.819-0.592,5.493c1.341,2.976,6.431-4.109,6.722-4.476c-0.488-0.284-0.976-0.568-1.463-0.852 c-1.626,5.686-3.508,11.336-5.865,16.761c-1.43,3.289-5.051,8.663-2.88,12.413c0.565,0.977,2.078,0.096,1.512-0.883 c-2.181-3.766,3.052-10.897,4.491-14.536c1.714-4.336,3.148-8.808,4.43-13.29c0.227-0.792-0.898-1.563-1.463-0.852 c-0.602,0.759-4.462,6.137-3.848,3.003c0.154-0.783,0.389-1.561,0.644-2.317c-0.573-0.077-1.146-0.155-1.719-0.232 c0.453,5.623-9.145,6.713-7.614,0.732c0.207-0.808-0.861-1.535-1.463-0.852c-0.732,0.836-1.54,1.605-2.34,2.376 c-0.77,0.742-5.121,5.252-5.034,3.588c0.14-2.651,1.383-5.49,2.337-7.946c0.32-0.825-0.896-1.476-1.463-0.852 c-1.694,1.868-3.487,3.643-5.342,5.351c-1.355,1.25-2.793,2.4-4.368,3.36c-2.849,1.735-2.723-2.376-2.16-4.025 c-0.563-0.155-1.125-0.31-1.688-0.465c-0.313,1.831-2.145,3.385-3.588,4.42c-1.316,0.944,1.325-2.607,1.402-2.737 c1.423-2.406,2.599-2.559,3.273-1.343C29.459,39.262,30.971,38.379,30.423,37.392L30.423,37.392z"/>
<path d="M88.833,20.458c-5.336-0.081-10.882-0.231-16.151,0.711c-0.997,0.179-2.971,0.861-2.146,2.267 c0.853,1.455,3.045,2.38,4.271,3.575c1.608,1.57,2.999,3.662,2.665,6.025c-0.381,2.696-8.045,6.54-8.429,2.296 c-0.101-1.114-1.852-1.124-1.75,0c0.401,4.434,5.905,3.753,8.631,2.188c5.159-2.962,3.363-8.194,0.12-11.746 c-0.728-0.798-1.599-1.529-2.469-2.167c-0.474-0.365-0.962-0.708-1.466-1.03c0.55,0.368-0.61,0.703,0.61,0.373 c2.075-0.561,4.389-0.539,6.522-0.633c3.192-0.14,6.396-0.157,9.592-0.109C89.962,22.226,89.961,20.476,88.833,20.458 L88.833,20.458z"/>
<path d="M81.489,37.232c0.311,0.857,0.218,1.839,0,2.702c-0.276,1.095,1.411,1.559,1.688,0.465c0.289-1.144,0.411-2.495,0-3.632 C82.796,35.715,81.104,36.169,81.489,37.232L81.489,37.232z"/>
<path d="M78.952,26.452c3.495-2.875,9.375-4.967,13.857-6.596c17.453-6.343,36.179-9.329,54.523-11.647 c1.104-0.14,1.117-1.891,0-1.75c-18.798,2.375-37.846,5.48-55.721,11.976c-4.656,1.692-10.004,3.577-13.898,6.779 C76.842,25.932,78.088,27.162,78.952,26.452L78.952,26.452z"/>
<path d="M99.156,19.434c-3.64,9.355-7.22,18.76-11.245,27.958c-0.447,1.023,1.06,1.915,1.512,0.883 c4.086-9.336,7.727-18.879,11.421-28.375C101.254,18.846,99.561,18.394,99.156,19.434L99.156,19.434z"/>
<path d="M94.708,43.833c-0.309-5.221,6.688-8.766,10.373-10.865c0.33-0.179,0.659-0.358,0.989-0.538 c1.293-0.209,1.393-0.596,0.299-1.162c-0.433,0.88-1.123,1.692-1.669,2.502c-0.885,1.312-1.836,2.707-2.077,4.302 c-0.252,1.669,1.096,2.306,2.521,2.016c3.892-0.792,7.322-6.137,9.445-8.979c-0.504-0.294-1.008-0.589-1.512-0.883 c-1.3,1.976-2.56,3.978-3.784,6.001c-0.826,1.366-3.282,4.376-2.788,6.171c0.421,1.532,2.101,0.271,2.735-0.268 c3.847-3.259,7.316-6.958,11.212-10.178c-0.458-0.354-0.917-0.707-1.375-1.061c-1.366,2.447-4.972,8.147-2.487,10.735 c3.003,3.131,10.899-6.064,12.445-7.675c0.822-0.856,1.63-1.727,2.481-2.556c-0.257-0.351-0.514-0.701-0.771-1.052 c-0.195,0.474-0.418,0.934-0.669,1.381c-0.384,0.737-0.78,1.47-1.16,2.209c-0.384,0.744-1.751,2.842-1.085,3.764 c1.954,2.705,10.362-7.339,11.287-8.246c-0.488-0.284-0.976-0.568-1.463-0.852c-0.961,2.308-1.89,4.63-2.783,6.965 c-0.513,1.341-2.095,4.066-1.382,5.55c0.165,0.343,0.637,0.509,0.988,0.402c0.663-0.201,1.013-0.874,1.372-1.417 c0.898-1.354,1.657-2.811,2.451-4.227c0.548-0.979-0.564-1.66,0-0.091c1.072,2.982,3.625,5.45,6.864,5.759 c1.124,0.107,1.113-1.644,0-1.75c-3.936-0.375-4.105-4.008-6.001-6.34c-0.201-0.246-0.565-0.283-0.852-0.225 c-1.04,0.212-1.608,1.915-2.037,2.68c-0.72,1.284-1.445,2.569-2.259,3.796c0.754,0.85,1.155,0.903,1.206,0.161 c0.103-0.357,0.214-0.713,0.334-1.065c1.076-3.303,2.449-6.527,3.785-9.733c0.354-0.851-0.886-1.418-1.463-0.852 c-2.121,2.084-4.249,4.16-6.446,6.164c-0.696,0.635-1.413,1.248-2.171,1.809c-0.448,0.331-0.032,1.232,0.595-0.197 c0.528-1.206,3.442-4.795,2.474-6.146c-0.219-0.305-0.598-0.541-0.988-0.402c-3.136,1.113-6.104,5.988-8.591,8.155 c-2.202,1.918-6.115,4.157-4.618-0.51c0.591-1.841,1.512-3.625,2.454-5.313c0.508-0.91-0.63-1.676-1.375-1.061 c-1.913,1.582-3.763,3.239-5.603,4.904c-1.719,1.555-3.395,3.155-5.063,4.763c-1.343,1.295-0.595,2.057,0.149,0.485 c1.615-3.41,3.819-6.61,5.892-9.758c0.633-0.961-0.854-1.765-1.512-0.883c-1.648,2.207-3.405,4.273-5.405,6.168 c-0.463,0.438-4.176,3.577-2.948,0.727c0.815-1.892,3.153-3.699,3.45-5.754c0.061-0.42-0.044-0.741-0.402-0.988 c-2.288-1.58-9.062,4.455-10.653,5.796c-2.058,1.734-4.33,4.791-4.16,7.659C93.024,44.954,94.774,44.961,94.708,43.833 L94.708,43.833z"/>
<path d="M150.786,32.881c-1.812-2.154-6.961,2.271-6.87,4.179c0.189,3.956,5.172,1.892,6.095-0.66 c-0.563-0.155-1.125-0.31-1.688-0.465c-0.362,1.112-0.62,3.351,0.893,3.818c1.146,0.354,2.321,0.222,3.402-0.345 c2.745-1.438,4.734-1.358,7.721-0.174c5.919,2.35,13.748,1.712,19.994,1.474c1.125-0.043,1.129-1.793,0-1.75 c-5.346,0.204-10.784,0.154-16.085-0.605c-2.553-0.366-4.926-2.302-7.376-2.419c-1.325-0.063-7.582,2.68-6.861,0.466 c0.353-1.083-1.309-1.513-1.688-0.465c-0.624,0.062-1.248,0.123-1.871,0.185c0.838-1.009,1.87-1.676,3.096-2 C150.275,34.983,151.507,33.739,150.786,32.881L150.786,32.881z"/>
</svg>