<?xml version="1.0" encoding="UTF-8"?>
<svg version="1.1" xmlns="http://www.w3.org/2000/svg" width="340" height="84" >
<path d="M31.934,25.068c-6.601,1.147-12.826,4.861-18.029,8.891c-4.202,3.254-9.886,8.369-10.56,14.159 c-1.083,9.303,10.456,8.36,16.25,6.601c21.41-6.504,38.259-25.376,54.43-39.736c2.624-2.33,5.25-4.697,8.063-6.802 c0.49-0.366,1.047-0.825,1.64-1.015c-1.359,0.434-0.426-1.339-0.903-0.263c-0.195,0.439-0.453,0.854-0.697,1.269 c-3.593,6.091-8.091,11.728-12.151,17.507c-7.12,10.136-13.995,20.439-20.41,31.037c-0.593,0.979,0.875,1.794,1.511,0.883 c3.442-4.929,10.877-20.982,0.076-22.743c-5.042-0.822-10.187,5.776-9.839,10.416c0.705,9.42,18.897,0.043,22.124-1.567 c2.617-1.305,5.086-2.779,7.916-3.598c2.234-0.647,1.393,0.497,0.439,1.915c-2.798,4.157-6.837,7.663-10.428,11.099 c0.413,0.413,0.825,0.825,1.237,1.238c4.741-4.689,10.479-9.527,16.978-11.399c5.463-1.574,0.604,2.856-0.957,4.194 c-1.643,1.409-3.391,2.712-5.167,3.947c0.354,0.458,0.707,0.916,1.061,1.375c3.813-3.145,7.656-6.267,11.621-9.218 c0.722-0.537,1.459-1.053,2.219-1.534c1.382,0.241,1.482,0.923,0.302,2.045c-0.922,1.641-2.574,2.96-3.892,4.279 c-0.813,0.813-2.212,2.576-1.608,3.84c1.886,3.947,7.938-3.568,8.894-4.82c3.271-4.287,4.64-10.63-0.102-14.26 c-7.857-6.015-17.122,11.615-10.492,12.495c5.899,0.783,12.435-1.938,18.076-3.326c1.398-0.344,2.469-1.044,1.54,0.816 c-0.8,1.604-2.039,3.029-3.162,4.404c-1.765,2.161-3.692,4.217-5.722,6.132c0.413,0.413,0.825,0.825,1.237,1.238 c1.973-2.281,4.036-4.502,6.302-6.494c1.755-1.543,1.231-0.807,1.195,0.948c-0.021,0.974,0.102,1.912,0.617,2.749 c2.372,3.851,13.066-4.447,13.087-7.562c0.03-4.649-6.236-0.41-7.425,1.136c-2.676,3.48-3.33,8.917,2.576,7.443 c5.116-1.276,13.947-5.478,16.904-10.474c0.571-0.965-0.192-2.059-1.245-2.059c-3.029,0-5.239,4.257-6.379,6.41 c-2.64,4.986-0.27,6.853,4.479,4.602c3.35-1.587,6.424-3.876,9.378-6.09c1.464-1.097,4.812-2.941,5.333-4.837 c0.023-0.101,0.034-0.202,0.031-0.305c0.004-0.657-0.747-1.098-1.316-0.755c-1.76,1.06-9.727,9.873-6.167,11.769 c4.697,2.501,13.646-6.212,15.908-9.632c0.464-0.701-0.49-1.733-1.197-1.197c-1.276,0.968-3.241,2.626-3.197,4.404 c0.112,4.517,8.721,3.261,11.203,3.085c1.119-0.079,1.127-1.83,0-1.75c-1.176,0.083-10.614,0.963-9.234-1.922 c0.413-0.863,1.526-1.862,2.111-2.306c-0.398-0.399-0.798-0.799-1.197-1.197c-2.557,3.863-7.152,6.983-11.39,8.732 c-3.425,1.414-0.283-3.479,0.334-4.33c0.923-1.276,2.302-3.298,3.71-4.146c-0.439-0.252-0.878-0.504-1.317-0.756 c-0.008,1.525-7.156,5.577-8.399,6.43c-1.534,1.053-3.122,2.023-4.753,2.919c-0.791,0.435-1.606,0.797-2.453,1.106 c-2.497,0.912-0.811-1.922-0.354-2.942c0.685-1.53,1.656-2.911,2.762-4.162c-0.162,0.183,2.437-2.506,1.384-1.355 c-0.896,0.982-1.954,1.911-3.009,2.717c-1.776,1.356-3.825,2.369-5.805,3.385c-1.387,0.711-9.8,5.415-8.989,1.596 c0.339-1.597,1.466-3.15,2.51-4.363c0.528-0.614,1.121-1.007,1.88-1.291c2.587-0.969-0.499,2.506-0.891,2.852 c-0.736,0.649-7.454,6.194-7.73,2.629c-0.081-1.042,0.073-2.071-0.069-3.113c-0.594-4.368-9.676,6.023-10.423,6.888 c-0.732,0.848,0.409,2.021,1.237,1.238c1.208-1.141,13.512-13.356,8.794-14.654c-1.271-0.35-2.896,0.313-4.103,0.609 c-3.057,0.752-6.089,1.587-9.16,2.277c-1.165,0.263-7.968,2.219-8.263-0.387c-0.461-4.068,4.963-9.552,8.864-8.771 c6.411,1.285,3.084,9.295,0.979,12.542c-0.875,1.26-1.883,2.396-3.025,3.406c-1.544,1.715-2.048,1.613-1.512-0.306 c1.048-1.278,2.436-2.23,3.412-3.587c1.095-1.521,3.343-5.324,0.195-6.063c-2.407-0.564-5.947,3.301-7.587,4.573 c-2.955,2.291-5.86,4.65-8.745,7.028c-0.766,0.632,0.247,1.94,1.061,1.375c2.056-1.431,13.058-8.403,9.126-11.341 c-2.931-2.189-9.483,2.07-11.764,3.495c-3.727,2.329-7.215,5.267-10.337,8.354c-0.804,0.796,0.422,2.018,1.237,1.238 c0.522-0.5,17.148-15.822,10.119-16.233c-1.882-0.11-3.969,1-5.633,1.752c-4.664,2.107-9.035,4.682-13.908,6.354 c-2.403,0.825-9.101,3.021-10.093-0.854c-0.666-2.604,1.862-5.648,3.626-7.204c4.028-3.55,8.146-0.236,8.292,4.79 c0.138,4.757-2.779,9.941-5.44,13.752c0.503,0.294,1.007,0.589,1.511,0.883C61.112,41.022,73.122,25.822,83.4,9.445 c0.558-0.889,2.479-5.146-0.511-3.826c-5.618,2.481-10.687,8.623-15.135,12.632c-10.623,9.572-21.008,19.334-33.08,27.099 c-6.492,4.177-14.095,8.443-21.973,8.959c-3.708,0.242-7.756-1.145-7.676-5.437c0.141-7.589,10.249-14.216,15.705-17.49 c3.519-2.11,7.591-3.917,11.668-4.626C33.509,26.563,33.037,24.877,31.934,25.068L31.934,25.068z"/>
<path d="M183.649,35.874c4.576-2.613,9.187-5.17,13.829-7.663c2.793-1.501,5.604-2.98,8.483-4.311 c0.528-0.244,1.065-0.466,1.61-0.671c1.548-0.581-1.041,0.159-0.021-1.075c-0.939,1.137-2.094,2.136-3.157,3.151 c-2.458,2.347-4.997,4.616-7.625,6.771c-0.585,0.479-1.188,0.935-1.803,1.373c-1.452,1.033,0.63,0.044,0.12,0.978 c1.303-2.388,3.475-4.508,5.249-6.539c4.313-4.938,9.357-9.27,14.759-12.969c1.699-1.164,3.479-2.205,5.304-3.157 c0.733-0.384,1.492-0.713,2.266-1.003c1.145-0.429,0.314-0.859,0.259-0.798c-9.833,10.854-19.796,21.589-29.597,32.472 c-4.234,4.701-8.191,9.833-12.771,14.195c-8.876,8.456-19.703,13.636-31.032,17.956c-1.691,0.645-3.408,1.242-5.171,1.656 c-0.83,0.195-6.286,1.024-3.958-0.732c1.709-1.29,3.794-2.23,5.681-3.225c5.848-3.08,11.759-6.038,17.667-8.999 c13.734-6.883,27.5-13.73,41.428-20.215c1.751-0.815,3.504-1.635,5.29-2.37c0.354-0.146,0.712-0.293,1.084-0.388 c-4.775,1.217,2.002-3.418-1.558-0.775c-0.95,0.706-1.854,1.47-2.759,2.232c-1.883,1.588-12.719,11.033-6.323,13.357 c4.587,1.667,12.241-7.666,14.604-10.335c2.074-2.343,9.411-10.802,3.412-13.348c-3.993-1.695-4.726,2.645-1.834,4.72 c2.479,1.777,5.918,1.799,8.807,1.468c7.271-0.832,14.221-4.48,20.498-8.004c10.443-5.863,21.259-13.006,29.683-21.598 c1.402-1.43,4.807-6.181,0.357-5.938c-6.086,0.334-12.946,6.036-17.438,9.568c-10.28,8.085-18.036,18.533-26.979,27.978 c-4.915,5.192-11.043,9.844-15.387,15.527c-0.507,0.663-0.247,1.668,0.66,1.732c1.622,0.117,3.848-1.597,5.163-2.29 c4.406-2.322,8.772-4.718,13.177-7.043c1.882-0.993,3.775-1.963,5.688-2.894c0.8-0.389,1.609-0.754,2.435-1.084 c1.282-0.515,0.327-1.211-0.322-0.565c-0.882,0.878-13.012,9.53-10.019,11.284c1.498,0.877,4.772-1.624,5.849-2.245 c5.653-3.259,10.895-7.154,16.767-10.042c0.813-0.399,1.618-0.718,2.478-0.98c0.003-0.171,0.006-0.342,0.009-0.513 c-0.278,0.414-0.595,0.796-0.948,1.147c-1.435,1.563-3.173,2.859-4.77,4.247c-2.552,2.217-5.469,4.636-7.291,7.531 c-0.508,0.807-0.096,1.9,0.947,1.768c3.682-0.47,8.652-6.055,11.32-8.085c3.477-2.646,8.689-6.929,13.283-7.215 c-0.652,0.041-3.098,3.004-3.729,3.551c-2.072,1.797-4.105,3.636-6.077,5.542c-3.206,3.099-4.75,7.133,1.204,4.324 c6.156-2.904,11.942-6.803,17.835-10.206c2-1.154,4.007-2.3,6.062-3.356c1.016-0.521,0.388-1.615-0.533-0.787 c-1.373,1.234-2.845,2.339-4.194,3.606c-3.442,3.23-5.021,8.438-9.962,9.634c-1.259,0.305-2.745,0.247-4.059,0.204 c-0.022,0.315-0.045,0.631-0.068,0.946c0.462-0.194,0.932-0.363,1.41-0.51c2.045-0.674,4.161-1.155,6.25-1.67 c7.847-1.932,15.683-3.82,23.226-6.778c1.029-0.403,11.527-5.426,6.227-7.429c-6.635-2.506-14.107,7.56-16.665,12.123 c-1.903,3.397-1.111,6.107,2.869,3.938c6.125-3.34,11.048-8.599,17.054-12.146c1.816-1.072,4.146-1.648,6.192-2.101 c1.327-0.293,1.73-0.378,0.904,0.859c-1.558,2.334-4.046,4.238-6.124,6.069c-0.922,0.799-1.853,1.588-2.793,2.366 c-0.764,0.641,0.236,1.918,1.061,1.375c2.913-1.92,5.885-3.761,8.945-5.437c0.936-0.513,1.893-0.987,2.893-1.36 c0.583-0.04,0.588-0.196,0.014-0.468c-0.553,0.914-1.146,1.801-1.78,2.661c-0.902,1.283-3.594,4.385-2.328,6.27 c2.202,3.284,6.557,2.918,9.813,1.426c5.599-2.564,9.115-7.348,10.646-13.239c0.284-1.093-1.404-1.557-1.688-0.465 c-1.679,6.459-6.574,12.606-13.688,13.057c-8.305,0.526,2.667-8.709,0.611-10.765c-2.383-2.383-12.204,5.413-14.321,6.809 c0.354,0.458,0.707,0.916,1.061,1.375c2.456-2.061,10.238-6.938,10.032-10.995c-0.111-2.187-3.507-1.293-4.699-0.995 c-8.66,2.163-14.771,9.257-22.144,13.871c-3.365,2.107-1.433-0.482-0.239-2.613c2.181-3.891,5.573-7.136,9.521-9.174 c1.147-0.593,2.686-1.115,3.998-0.9c1.221,0.201-3.013,2.94-3.231,3.052c-3.228,1.644-6.787,2.723-10.233,3.806 c-5.139,1.614-10.366,2.853-15.597,4.122c-1.719,0.417-8.723,1.102-8.996,3.558c-0.035,0.314,0.197,0.59,0.434,0.756 c3.019,2.116,8.903-0.51,11.049-2.845c2.432-2.647,4.152-5.748,6.816-8.249c0.923-0.866,4.401-2.647,4.321-4.302 c-0.023-0.482-0.38-0.866-0.875-0.875c-2.544-0.045-6.011,2.884-8.073,4.066c-6.343,3.638-12.58,8.077-19.346,10.885 c-0.966,0.401-0.193,0.575,0.574-0.33c0.575-0.678,1.225-1.298,1.854-1.925c1.646-1.643,3.399-3.182,5.141-4.723 c1.365-1.208,5.452-3.756,5.066-6.118c-0.791-4.843-14.886,5.543-15.806,6.215c-2.706,1.977-5.249,4.168-7.946,6.159 c-0.696,0.513-1.415,0.985-2.152,1.437c0.882-0.539-0.807,2.28,0.967,0.104c2.832-3.473,6.472-6.247,9.8-9.209 c3.153-2.805,3.697-6.206-1.393-4.067c-4.917,2.065-9.424,5.213-13.881,8.093c-2.163,1.398-4.368,2.742-6.657,3.925 c-2.552,1.317-0.248,0.136-0.839,1.09c0.552-0.89,1.501-1.649,2.249-2.364c2.539-2.428,6.547-4.449,8.442-7.423 c0.58-0.909,0.107-1.979-1.063-1.788c-2.628,0.429-5.281,2.206-7.602,3.396c-4.78,2.454-9.486,5.053-14.227,7.581 c-1.396,0.745-2.792,1.491-4.217,2.181c-1.418,0.687-0.535,1.627,0.24,0.772c2.255-2.486,4.815-4.729,7.209-7.079 c9.213-9.049,17.103-19.3,26.229-28.39c6.349-6.323,14.513-13.226,23.254-15.946c3.917-1.219-1.675,3.908-2.551,4.724 c-5.512,5.131-11.855,9.449-18.095,13.634c-8.069,5.414-16.916,10.781-26.479,13.016c-3.306,0.772-7.45,1.16-10.378-0.939 c-0.731-0.525,1.951-0.41,1.385,1.604c-0.461,1.639-1.621,3.16-2.589,4.527c-2.77,3.91-6.374,7.438-10.18,10.333 c-1.269,0.966-2.66,1.859-4.183,2.354c-3.561,1.158,1.513-5.761,1.826-6.114c1.607-1.813,3.452-3.421,5.3-4.979 c0.791-0.667,2.411-1.297,2.837-2.297c0.005-0.012,0.01-0.024,0.015-0.036c0.167-0.391,0.148-0.729-0.137-1.061 c-1.031-1.199-5.788,1.777-6.693,2.193c-6.11,2.807-12.155,5.757-18.2,8.701c-13.719,6.684-27.42,13.428-40.955,20.479 c-1.904,0.991-10.434,4.46-8.844,7.174c2.482,4.239,16.04-2.471,18.531-3.521c10.035-4.229,18.973-9.438,26.899-16.989 c4.448-4.237,8.279-9.369,12.392-13.936c9.635-10.696,19.431-21.246,29.097-31.913c0.588-0.649,0.966-1.79-0.104-2.198 c-1.583-0.604-4.146,1.122-5.444,1.8c-9.361,4.889-17.765,12.868-24.031,21.266c-2.476,3.318-1.027,4.766,2.218,2.243 c2.603-2.022,5.055-4.232,7.474-6.469c1.293-1.194,4.411-3.248,4.885-5.065c0.85-3.256-6.87,1.041-7.353,1.283 c-5.989,2.999-11.834,6.3-17.663,9.597c-0.505,0.285-1.01,0.571-1.513,0.858C181.787,34.922,182.667,36.435,183.649,35.874 L183.649,35.874z"/>
</svg>