<?xml version="1.0" encoding="UTF-8"?>
<svg version="1.0" xmlns="http://www.w3.org/2000/svg" width="412" height="132" >
<path fill="#231F20" d="M76.904,49.571c6.82-5.349,13.24-11.831,17.607-19.354c2.153-3.708-1.386-5.418-4.634-4.928 c-7.165,1.082-14.179,4.771-20.586,7.96c-10.03,4.993-19.645,10.892-28.692,17.495c-11.839,8.639-22.391,19.368-30.442,31.65 c-2.638,4.025-10.149,16.231-1.587,18.508c4.434,1.179,9.788-1.396,13.723-3.073c11.027-4.702,21.271-11.435,31.259-17.984 c-0.707-0.917-1.414-1.833-2.121-2.749c-4.383,4.813-11.518,16.365-1.895,19.925c9.173,3.394,20.814-2.225,28.682-6.843 c-0.707-0.091-1.414-0.183-2.121-0.274c3.621,2.862,9.315-2.12,12.913-3.352c3.535-1.21,11.099-3.383,13.495,0.787 c1.772,3.084-0.961,8.37-2.233,11.062c-2.969,6.286-7.124,12.166-11.218,17.762c-2.106,2.879-4.603,6.41-7.831,8.139 c-1.136,0.608-0.659-4.465-0.593-5.125c0.792-7.948,3.313-17.562,7.413-24.441c5.324-8.933,17.479-1.647,23.894,1.909 c11.815,6.551,33.275,16.471,43.908,2.239c1.353-1.81-1.688-3.552-3.021-1.767c-4.259,5.699-12.687,5.958-19.015,4.854 c-12.399-2.164-21.902-11.159-33.874-14.393c-16.363-4.42-20.326,17.082-22.398,28.715c-0.591,3.317-1.909,10.015,2.374,11.519 c4.935,1.734,10.887-8.136,12.987-11.006c4.576-6.255,24.498-33.729,5.096-35.235c-3.125-0.243-6.407,0.523-9.372,1.431 c-1.298,0.397-2.559,0.905-3.799,1.454c-0.47,0.208-0.924,0.447-1.371,0.7c-1.139,0.696-2.336,1.271-3.593,1.726 c-0.487,0.182-1.983-0.002-1.287,0.548c-0.626-0.495-1.382-0.707-2.121-0.274c-6.16,3.616-13.287,6.742-20.462,7.298 c-2.475,0.192-5.734-0.125-7.329-2.302c-1.303-1.779,0.082-4.688,0.894-6.349c1.101-2.254,2.665-4.379,4.351-6.231 c1.292-1.418-0.392-3.882-2.121-2.749c-10.027,6.576-20.258,13.135-31.259,17.984c-1.99,0.877-10.494,4.985-12.238,1.901 c-1.506-2.663,2.271-8.221,3.503-10.318c3.149-5.356,7.086-10.253,11.183-14.906c13.242-15.041,30.309-26.217,48.084-35.211 c5.961-3.016,13.697-7.578,20.612-7.63c-0.053,0,0.447-1.273-0.88,1.015c-1.62,2.79-3.749,5.268-5.891,7.662 c-3.03,3.387-6.424,6.487-9.943,9.358c-0.174,0.142-0.35,0.281-0.526,0.42C72.654,48.488,75.149,50.947,76.904,49.571 L76.904,49.571 M197.097,28.237c0.296,0.342-0.205,3.488-0.708,4.861c-2.588,7.053-8.978,12.38-13.466,18.193 c-6.014,7.788-11.108,17.322-13.609,26.909c-0.57,2.186,2.806,3.113,3.375,0.931c3.587-13.753,12.245-24.529,21.032-35.297 c2.946-3.611,10.248-12.994,5.851-18.072C198.092,24.053,195.627,26.54,197.097,28.237L197.097,28.237 M171.314,12.868c-2.61,7.583,16.029,0.938,18.64,0.316c12.348-2.943,25.484-6.065,38.247-5.863 c4.88,0.077,9.474,2.577,7.614,7.974c-1.535,4.459-5.46,8.235-8.7,11.478c-6.7,6.706-14.361,12.471-21.996,18.049 c-1.832,1.338-0.3,3.946,1.766,3.022c5.241-2.343,15.758-5.794,19.517,0.349c3.185,5.205-1.131,12.109-4.479,15.961 c-4.229,4.865-10.117,8.419-16.261,10.244c-5.171,1.535-14.41,1.055-15.009-6.042c-0.224-2.647,1.737-5.086,3.826-6.417 c2.718-1.731,5.056,0.4,7.268,1.847c11.084,7.249,23.94,13.966,37.588,12.63c2.225-0.218,2.246-3.72,0-3.5 c-11.167,1.094-21.553-3.543-30.959-9.101c-5.042-2.979-9.574-7.959-15.663-4.898c-5.04,2.534-6.774,9.025-4.301,13.831 c3.124,6.07,11.348,6.497,17.102,5.298c12.152-2.533,29.428-16.317,24.461-30.409c-3.498-9.926-17.913-5.918-24.855-2.815 c0.589,1.007,1.177,2.015,1.766,3.022c10.923-7.98,23.985-16.741,30.962-28.717c2.656-4.56,2.882-9.68-1.614-13.01 c-6.942-5.143-19.346-1.643-26.992-0.396c-6.785,1.106-13.524,2.517-20.217,4.087c-2.366,0.555-13.89,2.7-14.334,3.989 C175.426,11.659,172.044,10.748,171.314,12.868L171.314,12.868 M246.917,61.667c-0.061,3.857-4.997,13.022,1.928,14.49c4.273,0.906,8.349-4.644,10.941-7.034 c2.068-1.906,7.611-5.479,9.665-4.612c-0.269-0.659-0.537-1.318-0.805-1.977c-1.281,3.255-2.85,8.097-0.811,11.324 c3.774,5.973,15.658-4.049,18.826-6.224c1.046-0.718,5.93-5.523,1.35-5.385c-3.781,0.114-3.35,8.259-1.37,10.058 c4.678,4.253,13.241,2.412,18.725,0.841c8.709-2.495,16.248-8.021,22.568-14.356c8.749-8.768,15.809-20.198,20.611-31.571 c0.943-2.234,2.459-10.036-2.683-6.79c-6.211,3.921-10.389,13.416-13.717,19.529c-3.484,6.4-8.195,15.591-4.489,22.925 c6.819,13.492,26.769,4.99,35.247-1.648c-0.975-0.567-1.95-1.135-2.925-1.703c-0.708,3.105-0.622,6.838,0.802,9.729 c2.578,5.233,7.792,6.37,13.083,7.36c11.33,2.12,26.768,2.661,34.313-7.741c1.328-1.831-1.71-3.574-3.021-1.767 c-6.086,8.388-19.049,7.766-28.175,6.49c-4.409-0.616-10.218-1.2-12.769-5.277c-1.358-2.172-1.416-5.419-0.858-7.864 c0.416-1.826-1.583-2.754-2.925-1.703c-6.516,5.102-15.596,9.18-23.996,7.039c-10.784-2.748-5.43-16.084-2.089-22.524 c2.489-4.799,5.247-9.467,8.312-13.921c1.134-1.648,2.359-3.228,3.708-4.706c0.386-0.422,0.809-0.852,1.266-1.197 c0.86-0.652-1.073-1.866-1.22-0.853c-0.533,3.697-2.974,7.427-4.706,10.646c-3.525,6.554-7.511,12.859-12.23,18.621 c-6.189,7.558-14.053,14.004-23.309,17.346c-3.639,1.313-19.143,5.119-17.378-2.489c0.145-0.623,0.396-1.221,0.693-1.784 c-1.759,3.337-1.827-2.567-3.217-1.345c-3.275,2.882-7.547,5.077-11.304,7.22c-3.746,2.137-5.006,1.133-4.301-2.727 c0.287-1.571,0.777-3.139,1.362-4.624c0.257-0.653-0.146-1.698-0.805-1.977c-4.255-1.796-9.164,1.414-12.366,3.884 c-1.761,1.357-10.05,10.956-10.289,5.043c-0.058-1.433,0.896-2.742,1.308-4.081c0.448-1.458,0.523-3.155,0.548-4.668 C250.454,59.408,246.954,59.412,246.917,61.667L246.917,61.667z"/>
</svg>