<?xml version="1.0" encoding="UTF-8"?>
<svg version="1.0" xmlns="http://www.w3.org/2000/svg" width="398" height="157" >
<path d="M223.667,33.125c-20.926-1.945-42.154-2.115-63.131-1.201c-17.013,0.742-34.066,2.467-50.713,6.135 c-14.367,3.166-29.153,7.999-40.774,17.322c-0.88,0.706,0.366,1.936,1.237,1.237c11.699-9.386,26.672-13.935,41.102-17.114 c16.858-3.714,34.187-5.22,51.407-5.926c20.223-0.829,40.703-0.579,60.873,1.296C224.791,34.979,224.781,33.229,223.667,33.125 L223.667,33.125z"/>
<path d="M124.108,74.578c-4.889-3.213-9.958,4.449-11.864,7.647c-2.955,4.958-6.313,9.638-9.907,14.153 c-10.292,12.931-24.574,27.927-41.881,29.968c-10.824,1.277-18.479-5.081-25.468-12.431c-6.218-6.541-13.55-13.636-22.151-16.923 c-1.775-0.679-6.673-1.69-6.703,1.602c-0.033,3.643,4.75,6.073,7.499,7.304c5.449,2.439,11.669,2.674,17.542,2.793 c8.934,0.183,17.889-0.467,26.801-0.999c9.412-0.562,18.829-1.142,28.261-1.126c7.5,0.012,15.441,0.246,22.529,2.944 c1.056,0.402,1.509-1.29,0.465-1.688c-7.604-2.896-16.174-2.997-24.201-3.009c-10.763-0.017-21.521,0.813-32.261,1.436 c-9.488,0.55-19.08,1.159-28.57,0.343c-5.249-0.451-13.306-1.909-16.113-7.083c-1.106-2.039,2.222-1.427,3.154-1.192 c3.775,0.952,7.227,3.486,10.303,5.759c9.03,6.671,15.309,17.117,25.626,21.914c14.62,6.798,30.257-2.762,41.107-12.167 c7.402-6.416,13.837-13.97,19.616-21.856c2.721-3.712,10.223-19.236,15.332-15.879C124.171,76.711,125.047,75.195,124.108,74.578 L124.108,74.578z"/>
<path d="M127.048,93.381c-6.306,4.921-10.986,12.291-14.137,19.51c-0.447,1.024,1.061,1.916,1.511,0.884 c3.109-7.125,7.648-14.306,13.863-19.157C129.175,93.925,127.927,92.696,127.048,93.381L127.048,93.381z"/>
<path d="M131.578,94.892c-1.385,2.531-2.749,5.073-4.092,7.626c-0.786,1.495-4.058,5.888-3.431,7.723 c0.094,0.276,0.305,0.552,0.611,0.611c1.633,0.314,3.367-3.606,3.988-4.565c1.699-2.625,3.31-5.307,5.077-7.888 c0.651-0.95,1.341-1.873,2.097-2.742c0.673-0.774,0.979-0.533,0.54-1.14c0.899,1.243-1.191,6.12-1.582,7.398 c-0.601,1.967-1.258,3.921-1.963,5.854c-0.296,0.811,0.904,1.511,1.462,0.851c2.832-3.35,5.795-6.635,9.01-9.622 c0.834-0.775,1.699-1.526,2.651-2.153c0.934-0.614,0.833-0.838,0.682,0.092c-0.862,5.291-4.547,10.686-7.051,15.289 c-0.54,0.992,0.972,1.875,1.511,0.884c2.585-4.752,6.699-10.65,7.305-16.218c0.258-2.371-1.666-2.582-3.33-1.558 c-4.678,2.879-8.503,7.893-12.016,12.048c0.487,0.284,0.975,0.567,1.462,0.851c1.388-3.803,2.776-7.728,3.465-11.726 c0.172-0.999,0.539-3.026-0.789-3.452c-1.699-0.546-3.331,2.226-4.114,3.268c-2.772,3.688-4.992,7.77-7.583,11.584 c-0.266,0.392-0.536,0.783-0.831,1.154c-0.529,0.667,0.914,1.461,1.197,0.674c0.326-0.904,0.806-1.769,1.232-2.626 c1.904-3.826,3.949-7.585,6-11.333C133.631,94.785,132.12,93.902,131.578,94.892L131.578,94.892z"/>
<path d="M159.245,93.225c-3.421,4.994-7.294,10.224-9.483,15.898c-0.563,1.459-0.043,3.412,1.871,2.449 c5.962-3,10.934-10.028,15.32-14.787c-0.458-0.354-0.916-0.707-1.374-1.061c-2.352,3.489-4.883,7.258-6.106,11.316 c-1.756,5.831,5.816,1.182,7.365,0.057c0.995-0.722,13.93-10.314,9.964-12.637c-3.87-2.267-7.732,8.199-8.022,10.221 c-1.04,7.266,9.58,1.153,11.576-0.317c1.848-1.361,4.085-3.113,4.387-5.542c0.163-1.31-1.363-2.188-2.494-1.91 c-4.641,1.138-4.988,9.949-2.003,12.775c3.703,3.507,9.271-1.93,11.916-4.361c4.104-3.771,7.7-8.143,11.096-12.552 c-0.504-0.295-1.008-0.589-1.512-0.884c-6.224,14.148-12.209,28.806-15.754,43.876c-0.258,1.098,1.429,1.563,1.688,0.465 c3.51-14.919,9.417-29.451,15.579-43.457c0.459-1.045-0.824-1.776-1.512-0.884c-4.115,5.345-8.589,10.749-13.963,14.871 c-1.217,0.934-2.55,1.743-4.022,2.195c-3.25,0.997-3.438-3.941-3.49-5.874c-0.036-1.348,0.362-2.728,1.208-3.779 c0.604-0.823,0.978-0.65,1.121,0.519c-0.48,0.656-1.027,1.25-1.641,1.78c-2.104,2.006-4.746,3.641-7.485,4.614 c-4.8,1.705-1.706-5.32-0.947-6.65c0.606-1.063,2.94-2.737,3.14-3.667c-0.467,2.167-3.332,4.302-4.854,5.71 c-2.52,2.331-5.283,4.522-8.268,6.231c-1.925,1.102-1.564,0.099-1.058-1.327c0.564-1.585,1.446-3.083,2.271-4.543 c1.034-1.831,2.157-3.619,3.332-5.362c0.559-0.829-0.705-1.787-1.374-1.061c-4.281,4.644-8.54,9.505-13.445,13.514 c-0.445,0.364-0.986,0.785-1.535,0.997c0.655-0.252,0.334,0.633,0.714-0.471c0.413-1.201,1.088-2.337,1.7-3.444 c2.292-4.147,4.93-8.128,7.607-12.036C161.396,93.174,159.878,92.3,159.245,93.225L159.245,93.225z"/>
<path d="M270.244,56.559c-3.316,4.457-6.535,8.988-9.688,13.563c-3.863,5.607-9.094,11.952-10.9,18.646 c-0.212,0.786,0.896,1.574,1.463,0.851c6.636-8.477,12.762-17.426,18.262-26.677c3.705-6.232,7.194-12.779,9.282-19.752 c1.212-4.049,2.021-9.151-0.976-12.62c-5.247-6.073-16.275,2.654-20.494,5.862c-10.491,7.981-19.573,18.167-26.802,29.161 c-5.877,8.938-12.018,20.757-9.387,31.792c3.071,12.885,18.999,15.189,29.995,15.49c1.129,0.031,1.126-1.719,0-1.75 c-12.907-0.354-29.308-3.939-28.84-19.874c0.385-13.105,9.715-25.861,17.721-35.525c7.638-9.219,17.028-18.875,28.057-23.966 c3.561-1.644,8.115-2.499,9.693,2.165c1.977,5.841-2.258,13.811-4.707,18.855c-6.137,12.638-14.392,24.551-23.043,35.602 c0.488,0.284,0.976,0.567,1.463,0.851c1.761-6.523,6.973-12.75,10.725-18.229c3.138-4.583,6.371-9.106,9.688-13.563 C272.43,56.535,270.91,55.664,270.244,56.559L270.244,56.559z"/>
<path d="M273.059,86.745c-6.302,4.215-13.565,8.767-18.23,14.833c-0.866,1.127-1.915,4.207,0.406,4.438 c4.848,0.482,10.239-6.335,12.885-9.396c-0.459-0.354-0.917-0.707-1.375-1.06c-2.143,2.848-5.91,7.035-6.101,10.751 c-0.323,6.335,16.154-7.521,16.976-8.191c-0.488-0.284-0.976-0.567-1.463-0.851c-0.795,2.375-1.129,5.204-0.162,7.565 c2.063,5.034,9.265,2.404,12.738,1.011c1.034-0.415,0.583-2.108-0.465-1.688c-3.336,1.338-10.361,4.078-11.068-1.576 c-0.2-1.595,0.138-3.333,0.645-4.848c0.305-0.909-0.843-1.356-1.463-0.851c-3.843,3.134-7.715,6.379-12.057,8.814 c-2.735,1.534-1.989,0.208-0.928-1.844c1.351-2.61,3.094-5.064,4.859-7.41c0.598-0.795-0.729-1.807-1.375-1.06 c-2.924,3.385-6.434,7.506-10.863,8.878c-1.157,0.358,1.569-3.249,1.666-3.352c1.113-1.194,2.379-2.253,3.62-3.308 c3.982-3.385,8.294-6.439,12.638-9.345C274.874,87.632,273.999,86.115,273.059,86.745L273.059,86.745z"/>
<path d="M352.875,13.5c-0.238-4.661-7.688,5.372-7.851,5.603c-6.185,8.776-11.496,18.204-16.802,27.521 c-12.166,21.363-23.626,43.132-34.979,64.935c-0.521,1,0.99,1.884,1.512,0.883c15.546-29.856,30.76-60.402,49.195-88.632 c2.099-3.213,4.248-6.901,7.182-9.454c0.972-0.845,0.033-0.057-0.008-0.855C351.183,14.623,352.933,14.628,352.875,13.5 L352.875,13.5z"/>
<path d="M291.732,70.344c15.406-4.518,32.693-8.41,48.768-6.469c1.119,0.135,1.105-1.616,0-1.75 c-16.191-1.955-33.725,1.983-49.232,6.531C290.187,68.973,290.647,70.662,291.732,70.344L291.732,70.344z"/>
<path d="M312.732,109.344c7.736-1.452,17.282-4.958,21.023-12.402c3.874-7.708-6.118-8.363-10.429-4.755 c-2.91,2.436-3.943,7.172-2.729,10.67c1.015,2.922,4.36,3.588,7.062,3.627c7.29,0.106,18.02-3.897,23.459-8.865 c0.751-0.687-0.21-1.849-1.061-1.374c-2.626,1.464-4.429,4.372-2.929,7.279c1.811,3.509,6.76,5.205,10.163,6.479 c10.955,4.099,22.962,5.723,34.475,7.341c1.104,0.155,1.579-1.531,0.465-1.688c-10.136-1.425-20.302-3.059-30.146-5.92 c-4.301-1.25-9.425-2.758-12.668-6.049c-2.125-2.157-0.754-4.661,1.523-5.931c-0.354-0.458-0.707-0.916-1.061-1.374 c-3.745,3.421-9.647,5.353-14.354,6.866c-3.14,1.01-6.588,1.824-9.896,1.347c-4.724-0.682-4.263-6.146-2.527-9.391 c1.438-2.688,4.9-4.322,7.854-3.618c5.603,1.337-2.142,9.004-3.954,10.301c-4.218,3.018-9.658,4.817-14.735,5.771 C311.159,107.864,311.63,109.551,312.732,109.344L312.732,109.344z"/>
</svg>