<?xml version="1.0" encoding="UTF-8" standalone="no"?>
<svg xmlns="http://www.w3.org/2000/svg" version="1.0" width="2004" height="474">
<path d="M 714.955,187.977 C 692.844,191.531 672.608,205.621 648.963,210.974 C 627.79,225.463 597.874,231.21 576.972,245.969 C 566.814,245.27 561.401,254.092 550.975,255.968 C 545.615,256.934 540.186,257.314 533.977,259.968 C 515.781,267.746 497.828,276.586 478.984,283.965 C 473.473,293.608 454.885,295.895 449.988,283.965 C 576.749,209.75 707.832,139.862 831.94,62.992 C 836.798,57.185 844.127,53.847 847.938,46.994 C 796.22,49.69 748.348,65.082 701.956,80.99 C 689.139,85.385 675.796,87.741 662.961,91.989 C 645.063,97.913 627.066,102.367 608.968,108.987 C 600.443,112.105 588.336,116.895 576.972,120.986 C 562.097,126.341 547.513,133.805 532.978,138.984 C 524.294,142.078 516.357,144.38 507.981,147.983 C 478.51,160.662 444.706,170.66 417.992,187.978 C 380.493,202.748 343.549,221.918 307.006,238.971 C 281.909,250.683 259.663,266.46 236.015,279.966 C 232.205,286.489 226.722,291.337 224.016,298.964 C 218.881,300.828 215.336,304.282 209.017,304.963 C 207.211,302.103 204.003,300.646 202.018,297.964 C 209.111,286.392 220.545,279.162 229.015,268.968 C 308.632,221.932 393.144,179.797 487.983,147.983 C 491.735,148.736 490.163,144.164 492.983,143.983 C 544.142,125.488 599.777,106.052 656.962,86.99 C 713.289,68.214 770.628,45.642 830.94,40.996 C 837.913,40.458 845.371,39.223 850.938,39.996 C 855.398,40.615 857.339,44.527 859.937,44.995 C 864.264,45.776 868.035,37.769 871.936,44.995 C 869.275,51 861.035,51.425 855.938,54.994 C 803.225,95.09 742.708,125.232 683.959,159.981 C 648.791,180.783 613.443,201.385 575.973,221.973 C 559.406,231.076 542.166,239.328 527.979,251.97 C 538.547,252.99 547.715,246.461 556.975,242.971 C 621.591,218.617 685.586,188.864 752.951,164.981 C 760.043,171.758 761.825,160.808 768.949,165.981 C 765.525,173.585 756.299,174.176 749.951,177.979 C 744.038,181.522 737.89,186.17 731.953,189.978 C 719.624,197.884 706.828,205.598 695.957,214.975 C 680.097,223.112 666.874,233.886 655.962,246.971 C 647.004,247.678 645.327,255.666 638.964,258.97 C 641.17,263.785 641.448,268.317 637.964,271.968 C 632.242,273.458 622.187,271.25 614.967,270.969 C 616.576,253.006 631.536,246.301 645.963,234.973 C 666.376,218.945 693.143,203.793 713.954,187.979 C 714.288,187.977 714.622,187.977 714.955,187.977 z
M 701.956,249.969 C 706.896,257.842 702.522,268.532 696.957,271.966 C 690.715,269.875 686.245,266.014 686.958,256.968 C 691.246,253.923 695.865,251.21 701.956,249.969 z
M 894.932,259.968 C 897.515,271.004 894.662,283.179 895.932,293.963 C 886.085,294.914 883.958,288.27 876.934,288.964 C 868.967,272.49 875.122,258.826 894.932,259.968 z
M 1716.829,286.965 C 1719.025,290.768 1720.244,295.548 1719.829,301.963 C 1703.777,313.804 1693.882,284.721 1716.829,286.965 z
M 1147.9,267.967 C 1148.593,266.059 1149.456,269.047 1147.9,268.967 C 1152.375,272.262 1160.016,261.885 1165.898,259.968 C 1166.067,257.799 1162.352,259.515 1160.899,258.968 C 1170.801,249.873 1179.485,239.559 1193.894,234.971 C 1194.864,229.942 1196.759,225.837 1197.894,220.972 C 1192.656,213.693 1176.227,218.065 1163.898,221.972 C 1161.302,222.795 1158.93,226.044 1155.899,226.972 C 1154.27,227.47 1151.365,226.307 1149.9,226.972 C 1146.676,228.435 1144.463,231.935 1141.901,232.971 C 1138.563,234.32 1134.276,233.753 1130.903,234.971 C 1106.546,243.762 1083.257,254.477 1060.911,263.967 C 1058.766,265.467 1061.627,266.412 1059.911,268.967 C 1056.665,269.546 1055.26,268.285 1052.913,267.967 C 1050.496,268.558 1056.267,269.891 1052.913,271.966 C 1043.189,272.711 1036.087,281.717 1026.915,279.965 C 1019.594,278.567 1014.567,269.123 1008.918,264.967 C 1063.039,215.435 1120.411,169.152 1185.896,130.984 C 1174.903,128.287 1149.849,132.047 1137.902,124.985 C 1128.976,107.969 1158.624,100.745 1175.898,95.989 C 1189.26,92.309 1204.623,91.197 1218.892,87.99 C 1234.437,84.496 1246.357,81.551 1263.886,77.991 C 1299.534,70.753 1325.365,60.781 1348.876,49.994 C 1358.551,45.555 1370.274,37.125 1385.87,40.995 C 1386.11,45.759 1382.157,42.76 1379.872,41.995 C 1378.507,45.031 1379.724,48.776 1380.872,51.994 C 1395.223,47.176 1410.669,46.827 1425.866,44.994 C 1467.44,39.98 1509.37,30.159 1555.849,27.996 C 1619.978,25.013 1682.981,19.549 1751.825,22.996 C 1796.348,25.225 1835.204,39.286 1838.814,77.989 C 1839.003,80.026 1839.369,86.439 1838.814,88.988 C 1837.84,93.455 1833.962,93.822 1831.815,97.987 C 1830.608,100.327 1831.206,104.89 1829.815,107.986 C 1827.162,113.891 1823.427,115.382 1823.816,124.984 C 1816.607,131.441 1806.159,134.657 1800.819,142.982 C 1866.789,148.768 1927.796,165.963 1971.798,198.975 C 1970.87,209.35 1983.753,211.096 1986.796,218.973 C 1989.673,226.421 1984.205,234.812 1985.796,243.97 C 1986.149,249.616 1992.845,248.92 1990.795,256.968 C 1988.692,259.163 1986.351,257.175 1984.796,255.968 C 1985.233,265.237 1983.694,275.441 1978.797,280.965 C 1977.094,282.885 1974.064,282.301 1971.798,283.965 C 1966.375,287.947 1957.644,295.723 1952.8,300.963 C 1943.396,311.137 1929.57,319.351 1914.805,327.959 C 1901.398,335.775 1885.007,338.566 1872.81,343.957 C 1859.312,349.924 1837.216,354.129 1819.817,359.955 C 1816.672,361.1 1817.387,358.385 1815.818,357.955 C 1802.871,361.673 1790.44,365.907 1776.823,368.954 C 1783.316,357.819 1797.192,359.087 1807.819,355.955 C 1849.977,343.532 1893.001,327.223 1925.804,304.962 C 1933.814,298.308 1939.993,289.822 1949.8,284.965 C 1946.645,281.93 1948.952,277.417 1949.8,272.966 C 1952.55,270.049 1958.319,270.153 1960.799,266.967 C 1958.612,260.355 1962.481,258.467 1963.799,252.969 C 1967.387,252.379 1968.636,254.131 1970.798,254.969 C 1972.201,253.039 1971.343,248.848 1975.797,249.969 C 1975.659,246.442 1972.936,245.498 1972.798,241.97 C 1972.959,237.693 1974.15,231.466 1972.798,225.972 C 1967.427,204.148 1937.792,182.674 1907.806,172.979 C 1897.384,169.61 1885.823,169.142 1874.81,166.979 C 1859.404,163.955 1848.038,158.685 1830.816,155.98 C 1818.07,153.979 1798.391,150.261 1790.821,154.98 C 1785.766,158.131 1784.627,164.617 1780.822,168.979 C 1776.221,174.253 1767.791,179.176 1760.825,185.977 C 1744.306,202.102 1720.888,222.82 1701.832,234.971 C 1697.102,237.988 1692.028,239.406 1685.834,241.97 C 1673.905,252.371 1656.286,257.083 1645.839,268.967 C 1624.101,273.532 1612.867,283.781 1585.847,283.965 C 1576.004,250.158 1619.88,233.321 1633.841,210.974 C 1604.027,228.154 1573.213,244.334 1546.852,264.967 C 1536.987,265.903 1532.184,260.026 1528.854,251.969 C 1522.26,256.707 1516.84,262.617 1511.856,268.967 C 1501.246,273.688 1489.82,277.592 1476.861,279.965 C 1469.861,277.497 1464.84,279.249 1455.864,278.965 C 1453.087,275.742 1450.883,271.947 1451.864,264.967 C 1434.68,265.551 1423.497,277.121 1404.87,272.966 C 1402.905,269.932 1402.466,265.371 1402.87,259.968 C 1391.438,261.866 1386.123,269.883 1378.874,275.965 C 1377.207,275.965 1375.541,275.965 1373.874,275.965 C 1363.458,286.25 1340.569,285.178 1323.88,287.964 C 1319.366,285.11 1328.146,280.945 1327.88,275.965 C 1345.862,261.952 1366.753,250.846 1388.872,240.97 C 1387.173,235.002 1375.717,236.17 1368.875,236.97 C 1349.78,239.205 1330.097,250.313 1309.882,256.968 C 1301.468,259.739 1292.765,260.957 1284.886,263.967 C 1280.466,265.655 1276.177,269.84 1271.887,270.967 C 1261.537,273.683 1252.257,270.574 1243.891,272.966 C 1249.07,248.483 1275.701,245.449 1291.884,231.971 C 1273.264,224.871 1245.656,239.196 1221.894,241.97 C 1219.867,244.943 1215.134,245.209 1212.895,247.969 C 1183.054,249.059 1166.712,271.582 1145.904,284.965 C 1139.818,278.194 1128.355,288.388 1118.907,283.965 C 1120.113,279.682 1127.478,279.039 1131.905,280.965 C 1137.822,277.55 1139.431,269.826 1147.903,268.967 C 1147.9,268.633 1147.9,268.3 1147.9,267.967 z M 1800.819,135.983 C 1802.336,129.501 1805.587,124.753 1811.817,122.984 C 1808.884,115.826 1817.454,112.75 1819.816,107.986 C 1820.969,105.662 1821.685,101.384 1822.816,97.987 C 1829.563,77.711 1823.398,59.608 1809.817,47.993 C 1772.159,28.603 1712.823,28.834 1663.836,28.995 C 1626.799,29.117 1585.876,35.444 1547.851,37.994 C 1490.605,41.832 1433.552,49.976 1384.872,58.992 C 1372.463,61.29 1368.154,60.697 1363.875,71.991 C 1355.974,73.089 1354.783,80.897 1344.877,79.99 C 1327.188,97.629 1301.229,106.999 1279.885,120.985 C 1378.086,115.941 1488.341,119.312 1588.847,120.985 C 1624.162,121.573 1658.697,122.809 1693.833,125.985 C 1714.517,127.854 1731.321,135.309 1745.827,128.985 C 1749.33,127.458 1754.637,127.235 1756.825,125.985 C 1760.832,123.698 1764.233,118.112 1768.824,114.986 C 1773.538,111.776 1778.474,108.089 1782.822,105.987 C 1784.878,104.993 1787.784,105.813 1789.821,104.987 C 1793.567,103.468 1796.169,96.441 1800.82,100.987 C 1798.488,117.653 1776.478,114.641 1776.823,133.983 C 1783.32,138.328 1792.398,138.336 1800.819,135.983 z M 1361.874,50.994 C 1360.462,55.308 1360.286,54.679 1358.874,58.993 C 1362.847,59.633 1364.27,57.723 1365.873,55.993 C 1365.873,56.993 1365.873,57.993 1365.873,58.993 C 1368.998,57.451 1375.07,58.858 1376.872,55.993 C 1375.806,51.06 1370.343,50.523 1365.873,48.994 C 1364.987,56.181 1365.099,50.329 1361.874,50.994 z M 1289.883,81.99 C 1265.659,97.761 1237.394,109.491 1212.893,124.985 C 1230.421,124.047 1248.099,119.464 1263.886,124.985 C 1287.694,104.465 1319.407,91.85 1344.876,72.991 C 1325.259,64.937 1307.317,78.53 1289.883,81.99 z M 1275.885,82.99 C 1264.285,79.294 1257.886,93.571 1248.888,89.989 C 1248.504,93.372 1253.314,91.562 1251.888,95.989 C 1263.238,89.674 1279.462,88.235 1287.883,78.991 C 1281.192,77.633 1279.655,81.427 1275.885,82.99 z M 1195.895,99.987 C 1175.437,105.58 1153.683,108.356 1147.901,118.985 C 1158.568,125.577 1179.386,127.173 1192.896,124.984 C 1204.068,123.173 1213.384,113.777 1223.892,108.986 C 1231.677,105.436 1239.104,103.602 1245.888,99.987 C 1246.389,94.93 1242.152,93.506 1242.889,90.988 C 1229.973,91.356 1207.618,96.782 1195.895,99.987 z M 1265.886,260.967 C 1299.737,254.321 1330.401,238.293 1366.873,232.971 C 1393.87,229.032 1430.702,221.577 1450.862,222.972 C 1446.663,233.388 1437.262,231.398 1425.866,234.971 C 1411.922,239.341 1395.846,248.948 1384.871,254.969 C 1380.015,257.632 1373.302,257.362 1371.872,262.967 C 1387.792,258.653 1409.651,245.963 1426.866,243.97 C 1431.106,243.479 1437.085,241.502 1438.864,246.969 C 1435.321,254.1 1425.01,259.769 1422.866,264.967 C 1434.394,261.692 1451.659,258.567 1463.86,252.969 C 1466.356,249.799 1468.049,245.826 1473.86,245.969 C 1476.909,248.586 1480.331,250.83 1482.858,253.969 C 1480.852,259.628 1473.629,260.071 1472.86,266.967 C 1503.595,265.039 1513.453,242.236 1543.85,239.97 C 1547.858,240.962 1545.044,248.776 1548.85,249.969 C 1599.202,228.707 1640.875,196.294 1683.833,168.979 C 1698.505,159.65 1713.372,151.108 1726.827,139.982 C 1699.014,132.78 1667.533,130.032 1632.839,128.983 C 1543.692,126.29 1427.674,124.958 1339.875,127.983 C 1327.097,128.423 1310.838,128.564 1296.881,128.983 C 1285.806,129.316 1274.922,127.431 1266.885,129.983 C 1259.751,132.248 1251.366,140.424 1242.888,144.981 C 1222.099,156.155 1202.104,166.412 1184.895,177.977 C 1182.895,177.977 1180.896,177.977 1178.896,177.977 C 1172.696,183.775 1165.741,188.818 1154.899,189.976 C 1142.813,199.243 1128.561,205.519 1114.905,213.973 C 1104.344,220.51 1093.63,228.928 1081.909,230.971 C 1087.057,219.82 1100.077,215.392 1109.905,208.973 C 1147.88,184.174 1191.181,159.983 1230.889,138.982 C 1237.211,135.639 1246.281,135.199 1248.887,126.984 C 1232.45,131.48 1217.435,126.652 1202.893,130.983 C 1197.377,132.626 1189.185,139.05 1182.895,142.982 C 1152.364,162.071 1124.549,183.177 1095.907,205.974 C 1073.796,223.573 1050.612,240.549 1036.915,261.967 C 1062.586,254.996 1087.53,243.54 1113.905,232.971 C 1139.819,222.586 1181.702,204.337 1210.892,211.974 C 1219.832,220.137 1212.631,230.196 1206.893,236.971 C 1247.875,231.063 1283.743,219.363 1327.877,218.973 C 1329.506,225.789 1324.043,233.664 1317.879,235.971 C 1317.484,232.413 1317.522,229.979 1316.879,228.971 C 1301.597,241.352 1282.039,249.457 1265.886,260.967 z M 1743.826,143.982 C 1737.158,149.647 1730.697,155.517 1720.829,157.981 C 1720.495,160.313 1719.804,162.289 1717.829,162.98 C 1677.827,187.97 1645.496,220.631 1610.843,250.969 C 1606.948,259.177 1599.777,265.104 1599.844,271.966 C 1616.866,269.847 1628.007,262.583 1641.839,255.968 C 1658.509,247.995 1672.003,237.834 1686.833,227.972 C 1713.214,210.429 1742.702,188.177 1763.823,166.979 C 1770.159,160.621 1778.036,156.175 1783.821,149.981 C 1788.051,148.546 1794.918,149.746 1795.819,144.981 C 1780.527,146.359 1762.338,144.612 1743.826,143.982 z M 1181.896,246.969 C 1186.454,245.176 1194.781,241.882 1193.894,237.97 C 1193.708,239.451 1191.478,238.887 1189.895,238.97 C 1186.899,245.035 1183.11,241.967 1181.896,246.969 z
M 974.922,430.946 C 971.15,432.174 973.82,439.843 968.922,439.945 C 955.409,439.051 941.464,435.502 927.927,429.946 C 902.592,430.851 859.76,434.731 832.939,428.946 C 828.818,428.158 831.061,433.733 826.939,432.946 C 802.473,430.373 766.834,438.095 738.95,430.946 C 707.797,435.717 675.858,427.257 647.961,433.945 C 632.469,426.808 605.58,435.27 588.968,429.946 C 576.336,432.728 559.127,432.31 544.974,428.946 C 495.585,426.18 437.562,429.258 387.994,427.946 C 382.053,427.789 375.704,424.848 369.996,424.947 C 365.087,425.031 360.164,427.705 354.998,427.946 C 331.399,429.05 310.842,428.985 286.007,426.946 C 207.679,428.403 132.826,425.675 60.035,434.945 C 52.094,435.957 43.44,435.722 36.038,436.945 C 29.118,438.088 20.347,443.712 14.04,437.945 C 17.079,423.91 23.933,429.114 34.038,428.946 C 54.951,428.598 76.27,427.174 97.03,425.947 C 297.33,414.104 496.301,426.593 678.957,423.947 C 725.694,423.269 773.239,424.432 823.939,422.947 C 871.039,421.566 919.793,426.796 963.921,423.947 C 970.914,423.495 977.623,421.042 984.919,420.947 C 1010.157,420.621 1036.271,423.596 1062.909,421.947 C 1086.235,420.503 1118.292,420.515 1140.899,419.947 C 1200.739,418.442 1262.715,418.832 1324.876,416.948 C 1347.287,416.268 1369.586,412.57 1391.868,410.948 C 1452.005,406.571 1512.505,406.993 1567.847,394.95 C 1580.109,398.317 1597.621,392.047 1605.842,389.951 C 1667.076,392.138 1718.148,370.334 1773.821,366.954 C 1758.519,379.891 1737.361,378.937 1718.828,384.952 C 1681.412,397.093 1638.035,401.413 1593.844,404.949 C 1572.068,406.692 1550.32,411.59 1528.852,413.948 C 1516.115,415.347 1502.653,414.036 1489.858,414.948 C 1472.006,416.219 1454.631,418.215 1436.864,418.947 C 1420.968,419.603 1404.872,421.817 1388.87,422.947 C 1371.729,424.157 1353.87,426.349 1336.877,426.946 C 1330.092,427.184 1322.219,428.085 1315.88,424.947 C 1308.013,428.549 1298.952,427.67 1292.882,424.947 C 1276.573,425.95 1255.823,430.51 1238.89,426.946 C 1233.722,427.612 1237.181,431.046 1230.89,430.946 C 1228.215,427.649 1234.686,427.124 1228.891,426.946 C 1227.437,427.389 1228.993,427.824 1228.891,428.946 C 1226.476,427.896 1219.88,428.355 1214.892,426.946 C 1212.706,427.093 1212.746,429.466 1212.893,431.946 C 1185.139,430.456 1163.85,426.041 1137.902,430.946 C 1115.703,425.187 1101.745,433.454 1077.91,428.946 C 1045.115,429.94 1012.359,438.126 974.922,430.946 z
M 1143.901,73.991 C 1140.592,80.348 1131.171,80.592 1127.903,86.99 C 1060.772,117.846 1008.257,163.321 945.925,198.976 C 930.899,215.28 906.529,222.24 891.932,238.971 C 871.569,247.271 856.582,260.949 843.938,276.966 C 842.201,278.204 837.298,276.202 832.939,276.966 C 837.462,271.111 836.753,263.102 841.938,256.969 C 850.893,246.376 867.198,236.144 880.933,225.973 C 894.971,215.577 911.1,206.891 923.928,199.976 C 963.415,170.138 1006.299,143.698 1051.912,119.986 C 1072.445,103.836 1097.926,96.069 1117.903,77.991 C 1062.679,91.429 1018.988,126.183 965.922,146.982 C 916.729,173.779 865.942,198.983 817.941,226.972 C 801.561,242.587 773.05,246.073 757.948,262.967 C 746.722,262.073 742.874,268.558 734.951,270.967 C 733.097,279.778 725.639,282.985 717.953,285.965 C 715.92,282.998 715.832,278.086 713.953,274.966 C 746.57,250.033 786.162,234.519 823.939,213.973 C 851.425,199.024 879.209,183.636 908.928,169.978 C 981.449,136.654 1046.184,88.514 1128.901,68.991 C 1130.061,68.718 1130.252,66.032 1131.9,65.991 C 1136.078,65.891 1140.644,70.204 1143.901,73.991 z" />
</svg>