<?xml version="1.0" encoding="UTF-8" standalone="no"?>
<!-- Created with Inkscape (http://www.inkscape.org/) -->
<svg
   xmlns:dc="http://purl.org/dc/elements/1.1/"
   xmlns:cc="http://creativecommons.org/ns#"
   xmlns:rdf="http://www.w3.org/1999/02/22-rdf-syntax-ns#"
   xmlns:svg="http://www.w3.org/2000/svg"
   xmlns="http://www.w3.org/2000/svg"
   xmlns:sodipodi="http://sodipodi.sourceforge.net/DTD/sodipodi-0.dtd"
   xmlns:inkscape="http://www.inkscape.org/namespaces/inkscape"
   width="405.67996"
   height="97.288269"
   id="svg2438"
   sodipodi:version="0.32"
   inkscape:version="0.46"
   version="1.0"
   sodipodi:docname="John Adams Sig 2.svg"
   inkscape:output_extension="org.inkscape.output.svg.inkscape">
  <defs
     id="defs2440">
    <inkscape:perspective
       sodipodi:type="inkscape:persp3d"
       inkscape:vp_x="0 : 526.18109 : 1"
       inkscape:vp_y="0 : 1000 : 0"
       inkscape:vp_z="744.09448 : 526.18109 : 1"
       inkscape:persp3d-origin="372.04724 : 350.78739 : 1"
       id="perspective2446" />
    <inkscape:perspective
       id="perspective2455"
       inkscape:persp3d-origin="372.04724 : 350.78739 : 1"
       inkscape:vp_z="744.09448 : 526.18109 : 1"
       inkscape:vp_y="0 : 1000 : 0"
       inkscape:vp_x="0 : 526.18109 : 1"
       sodipodi:type="inkscape:persp3d" />
    <inkscape:perspective
       id="perspective2468"
       inkscape:persp3d-origin="372.04724 : 350.78739 : 1"
       inkscape:vp_z="744.09448 : 526.18109 : 1"
       inkscape:vp_y="0 : 1000 : 0"
       inkscape:vp_x="0 : 526.18109 : 1"
       sodipodi:type="inkscape:persp3d" />
  </defs>
  <sodipodi:namedview
     id="base"
     pagecolor="#ffffff"
     bordercolor="#666666"
     borderopacity="1.0"
     gridtolerance="10000"
     guidetolerance="10"
     objecttolerance="10"
     inkscape:pageopacity="0.0"
     inkscape:pageshadow="2"
     inkscape:zoom="0.72503556"
     inkscape:cx="372.04724"
     inkscape:cy="526.18109"
     inkscape:document-units="px"
     inkscape:current-layer="layer1"
     showgrid="false"
     inkscape:window-width="1680"
     inkscape:window-height="970"
     inkscape:window-x="-8"
     inkscape:window-y="-8" />
  <metadata
     id="metadata2443">
    <rdf:RDF>
      <cc:Work
         rdf:about="">
        <dc:format>image/svg+xml</dc:format>
        <dc:type
           rdf:resource="http://purl.org/dc/dcmitype/StillImage" />
      </cc:Work>
    </rdf:RDF>
  </metadata>
  <g
     inkscape:label="Layer 1"
     inkscape:groupmode="layer"
     id="layer1"
     transform="translate(-161.45507,425.5197)">
    <path
       style="fill:#000000"
       d="M 163.99468,-328.62032 C 161.96679,-329.05429 160.88793,-332.91252 161.75934,-336.61436 C 162.8436,-341.22038 169.36654,-353.1266 173.11406,-357.33992 C 179.98408,-365.06386 188.69556,-373.02137 192.38664,-374.94448 C 196.41362,-377.0426 198.46104,-380.33129 202.62126,-391.38396 L 205.14125,-398.07895 L 202.69163,-397.46414 C 199.52076,-396.6683 196.12923,-400.02928 196.92068,-403.18313 C 198.18584,-408.22474 204.67773,-413.84618 209.24823,-413.85777 C 211.31,-413.863 212.21925,-414.69129 213.65269,-417.87011 C 215.39633,-421.73681 218.15265,-425.02766 218.14767,-423.23681 C 218.14634,-422.75696 216.19793,-418.487 213.81787,-413.748 C 211.43781,-409.00901 208.01096,-400.45901 206.20265,-394.748 C 198.91436,-371.73007 195.0785,-363.44758 183.49573,-345.71864 C 177.39771,-336.38483 169.61642,-328.16165 166.94865,-328.23188 C 166.23445,-328.25068 164.90516,-328.42548 163.99468,-328.62032 z M 170.76281,-334.11436 C 175.04813,-338.74901 178.12172,-343.17094 183.79551,-352.86436 C 188.73201,-361.29814 195.41848,-374.86436 194.6388,-374.86436 C 193.66081,-374.86436 179.39242,-362.3342 176.59751,-359.02093 C 169.4832,-350.58716 164.60535,-341.56353 163.53191,-334.8506 C 162.93543,-331.1204 163.05067,-330.86436 165.32613,-330.86436 C 166.78643,-330.86436 168.95815,-332.1626 170.76281,-334.11436 z M 207.9001,-404.78423 C 210.76925,-411.69553 210.73006,-412.21701 207.4001,-411.43707 C 203.44907,-410.51167 199.1501,-405.48189 199.1501,-401.78461 C 199.1501,-398.94789 199.37557,-398.7582 202.4001,-399.05039 C 205.29389,-399.32995 205.89671,-399.95839 207.9001,-404.78423 z M 333.36247,-346.33911 C 329.99089,-349.17611 329.05183,-352.86436 331.70108,-352.86436 C 332.55412,-352.86436 334.74051,-351.23963 336.55972,-349.25386 C 339.53013,-346.01148 340.21316,-345.71804 343.25874,-346.37589 C 349.28247,-347.67703 360.27191,-354.07708 365.55657,-359.36174 C 369.22443,-363.0296 376.12483,-372.31694 383.46816,-383.4692 C 391.82208,-396.15623 398.9996,-405.16861 403.76713,-408.95736 C 408.70804,-412.8839 414.14745,-416.20034 414.71528,-415.63251 C 414.96827,-415.37952 413.42081,-412.06569 411.27648,-408.26844 C 392.49826,-375.01538 384.95066,-361.44266 382.20576,-355.99102 C 380.07312,-351.75539 378.66241,-349.95205 377.9999,-350.61456 C 377.01276,-351.6017 382.15251,-362.69297 389.12151,-374.61436 L 392.19056,-379.86436 L 388.23728,-379.86436 C 384.01725,-379.86436 381.90723,-377.86914 374.64934,-367.01565 C 367.51135,-356.34148 351.55664,-345.41045 341.35053,-344.20169 C 337.17213,-343.70682 336.17308,-343.97415 333.36247,-346.33911 z M 396.57874,-387.99146 C 398.69597,-391.91136 402.16566,-398.09172 404.28917,-401.72559 C 406.41268,-405.35946 408.1501,-408.71507 408.1501,-409.18252 C 408.1501,-409.64996 406.2726,-408.54541 403.97787,-406.72795 C 399.27465,-403.00293 392.48953,-394.60804 387.53671,-386.38612 L 384.21044,-380.86436 L 388.46983,-380.86436 C 392.72386,-380.86436 392.73408,-380.87335 396.57874,-387.99146 z M 418.07441,-347.44492 C 416.74104,-348.86423 415.7626,-350.21423 415.9001,-350.44492 C 416.76132,-351.88983 415.5991,-351.47088 411.45432,-348.84234 C 404.01848,-344.12667 397.50166,-345.1166 399.10806,-350.71779 C 400.51454,-355.62188 411.48549,-372.55844 418.18425,-380.1669 C 421.95664,-384.4516 422.80277,-384.93682 426.03134,-384.6669 C 428.94287,-384.42349 429.94112,-383.76164 431.13921,-381.28039 L 432.62831,-378.19642 L 442.00737,-392.03039 C 447.16585,-399.63907 452.00825,-405.86436 452.76826,-405.86436 C 454.67555,-405.86436 454.49806,-404.57644 452.18565,-401.63668 C 451.1052,-400.26311 445.79332,-392.66493 440.38146,-384.75182 C 418.80211,-353.19892 416.64106,-348.76879 421.86063,-346.78432 C 426.23618,-345.12074 431.01344,-347.54571 439.4001,-355.68748 C 448.60078,-364.61951 449.88469,-364.02991 440.94455,-354.97824 C 430.8424,-344.75007 423.02515,-342.17511 418.07441,-347.44492 z M 410.22398,-349.69626 C 415.70035,-353.16927 419.97159,-358.27496 426.88899,-369.61701 C 431.42123,-377.04827 431.79962,-379.18133 429.04148,-381.75093 C 427.7938,-382.91332 426.46941,-383.86436 426.09838,-383.86436 C 425.12656,-383.86436 416.83504,-374.84943 414.57876,-371.33968 C 413.52676,-369.70325 411.98385,-367.6089 411.15007,-366.68555 C 410.31629,-365.76221 407.41741,-361.33993 404.70813,-356.85827 C 400.69098,-350.21314 400.04672,-348.54238 401.21613,-347.80239 C 403.57782,-346.30793 405.52752,-346.71785 410.22398,-349.69626 z M 535.739,-347.00821 C 536.12782,-347.63733 536.59755,-349.45415 536.78284,-351.04559 C 537.22721,-354.86211 538.89407,-357.86436 540.56865,-357.86436 C 542.52679,-357.86436 543.16434,-354.25504 541.57613,-352.16084 C 540.8268,-351.17277 540.1994,-349.96935 540.1819,-349.48655 C 540.13913,-348.30597 547.69114,-349.57566 551.05334,-351.31433 C 556.32853,-354.04223 562.1195,-369.50321 560.83374,-377.42642 C 560.31068,-380.64965 561.8892,-383.01939 566.1501,-385.40755 C 567.39289,-386.10411 567.43729,-385.9853 566.40907,-384.71466 C 565.7265,-383.87118 564.72279,-378.8872 564.1786,-373.63916 C 562.9647,-361.93269 562.26905,-360.0336 557.16757,-354.49914 C 552.76817,-349.72635 546.62368,-347.27432 541.09605,-348.0856 C 539.05234,-348.38555 537.7862,-348.07963 537.45048,-347.20476 C 537.16758,-346.46754 536.50771,-345.86436 535.98409,-345.86436 C 535.46048,-345.86436 535.35019,-346.37909 535.739,-347.00821 z M 209.9001,-347.61861 C 205.93846,-348.50692 209.67488,-365.24211 215.81212,-374.09815 C 219.46172,-379.36452 228.1501,-388.58919 228.1501,-387.19768 C 228.1501,-385.34013 233.94544,-383.56948 237.91662,-384.21371 C 242.86185,-385.01596 253.36104,-390.40859 256.42637,-393.72074 C 257.772,-395.17473 261.30263,-399.96436 264.27221,-404.36436 C 276.33718,-422.2409 281.12155,-427.09898 284.69334,-425.1001 C 285.88187,-424.43497 285.85029,-423.85983 284.48688,-421.33962 C 283.6016,-419.70322 282.27573,-417.2171 281.54049,-415.81489 C 279.9246,-412.73314 267.04358,-399.35044 262.09067,-395.60754 C 260.13299,-394.12813 257.60921,-390.9932 256.48228,-388.64103 C 255.35535,-386.28886 253.48602,-382.37096 252.32822,-379.93458 L 250.22312,-375.5048 L 255.43661,-380.57805 C 263.69579,-388.61505 269.60478,-390.88525 270.71818,-386.44912 C 271.46851,-383.45956 269.48651,-379.13803 261.93381,-367.29586 C 255.27314,-356.85235 254.81907,-354.86436 259.09434,-354.86436 C 263.49224,-354.86436 266.43718,-358.15225 273.42542,-370.86436 C 276.90246,-377.18936 280.85044,-384.03769 282.19871,-386.08286 C 284.7143,-389.89875 288.44001,-391.5419 292.00855,-390.40929 C 294.04796,-389.762 295.50824,-384.96124 294.48043,-382.28281 C 294.14202,-381.40093 296.29176,-382.51907 299.25762,-384.76757 C 305.58144,-389.56183 307.61106,-389.81936 310.46607,-386.1898 C 313.77597,-381.98195 312.77543,-377.79358 305.55421,-365.62825 C 298.97347,-354.5419 298.14081,-351.94688 300.52846,-349.96531 C 302.63554,-348.21659 306.49383,-350.13046 312.70644,-356.00609 C 318.4316,-361.4207 319.96276,-361.5524 315.35946,-356.23427 C 309.69218,-349.68694 302.15353,-346.30317 298.46266,-348.65002 C 297.80957,-349.0653 296.85109,-350.52091 296.3327,-351.88471 C 295.1546,-354.98415 296.83921,-359.39464 303.52318,-370.7102 C 307.66332,-377.7192 308.30898,-379.49788 307.81594,-382.53609 C 307.49677,-384.50293 306.99744,-386.35036 306.70631,-386.64148 C 306.41519,-386.9326 303.17509,-384.86573 299.50609,-382.04842 C 295.83709,-379.23112 292.56854,-376.79967 292.24264,-376.64521 C 291.91674,-376.49074 290.48724,-374.56436 289.06596,-372.36436 C 282.29554,-361.8844 278.76033,-356.86436 278.15055,-356.86436 C 276.02821,-356.86436 276.96569,-359.01454 282.87646,-367.70368 C 290.15234,-378.39957 293.59277,-385.26841 292.76051,-387.43723 C 292.45565,-388.23169 290.89158,-388.86436 289.23238,-388.86436 C 285.66718,-388.86436 283.34015,-386.07958 277.11579,-374.36436 C 269.08302,-359.2454 266.29013,-355.165 263.05819,-353.82629 C 259.3311,-352.28248 254.84215,-353.50933 254.32126,-356.21412 C 253.72586,-359.30579 254.88058,-362.00989 261.62107,-373.30867 C 265.21204,-379.32804 268.1501,-384.84054 268.1501,-385.55867 C 268.1501,-388.82243 263.62196,-386.19477 254.02919,-377.36436 C 250.25362,-373.88884 247.26617,-369.77274 244.23095,-363.86436 C 239.07302,-353.82391 239.54962,-354.49941 238.20835,-355.32836 C 237.15407,-355.97994 244.46767,-371.37309 251.84633,-384.03262 C 253.6634,-387.15017 255.1501,-389.92984 255.1501,-390.20967 C 255.1501,-390.4895 252.62152,-389.19582 249.53103,-387.33482 C 243.48897,-383.69648 237.19784,-382.25762 231.77778,-383.27443 C 228.62487,-383.86592 228.02835,-383.51273 223.10078,-378.13697 C 217.17809,-371.67559 211.71116,-360.8926 210.61284,-353.50577 C 209.90233,-348.72713 209.92961,-348.65908 212.27027,-349.3707 C 213.57918,-349.76864 215.60887,-350.97048 216.78071,-352.04145 C 219.91629,-354.90714 224.9959,-366.6088 226.74428,-374.99405 C 228.40144,-382.94184 229.1501,-384.68019 229.1501,-380.58025 C 229.1501,-372.99341 223.10507,-356.35716 218.45717,-351.15271 C 216.17843,-348.60111 212.42739,-347.05191 209.9001,-347.61861 z M 444.73311,-348.4242 C 443.32848,-349.82884 443.32517,-350.35123 444.69989,-353.6742 C 447.80558,-361.18126 459.70098,-377.70031 466.97995,-384.61436 C 470.38352,-387.84729 472.83303,-388.43628 476.6501,-386.93957 C 477.91773,-386.44252 479.47401,-386.69346 480.9001,-387.62486 C 484.85702,-390.2092 483.64497,-386.06183 478.33987,-378.86436 C 475.70481,-375.28936 470.75914,-368.56958 467.34948,-363.93151 C 463.93982,-359.29344 461.1501,-354.68951 461.1501,-353.70056 C 461.1501,-350.50698 465.60199,-350.34451 469.59781,-353.39227 C 472.70529,-355.76246 480.1501,-364.74715 480.1501,-366.12718 C 480.1501,-366.39936 481.71478,-369.26407 483.62716,-372.49321 C 490.79511,-384.59659 492.50967,-386.65565 496.52729,-387.98528 C 500.15568,-389.18609 500.52467,-389.12001 502.27729,-386.95561 C 503.30734,-385.68356 504.1501,-383.96254 504.1501,-383.13113 C 504.1501,-381.90578 504.43212,-381.85352 505.63909,-382.85522 C 506.45803,-383.53488 506.83589,-384.60249 506.47876,-385.22767 C 506.12164,-385.85285 506.18091,-386.04754 506.61047,-385.66033 C 507.04004,-385.27311 509.01665,-386.06061 511.00293,-387.41033 C 515.36173,-390.37221 518.1475,-390.50906 521.28932,-387.91566 L 523.6501,-385.96695 L 521.2642,-381.73141 L 518.8783,-377.49587 L 522.2642,-379.75149 C 531.18758,-385.69608 537.35939,-387.09786 539.50888,-383.66823 C 540.8685,-381.49887 538.91855,-377.2721 532.59648,-368.68473 C 530.03728,-365.20853 527.29171,-361.10437 526.49522,-359.56438 C 524.7543,-356.19838 525.57836,-352.86436 528.15126,-352.86436 C 530.47569,-352.86436 539.86558,-360.34432 550.87662,-370.96732 C 555.49658,-375.42448 559.51929,-378.8285 559.81596,-378.53183 C 561.14864,-377.19915 533.7201,-352.80713 529.32638,-351.41765 C 526.49545,-350.52239 521.1501,-352.55419 521.1501,-354.52552 C 521.1501,-356.30088 524.62844,-363.19919 526.43671,-365.01003 C 530.51567,-369.09479 537.20881,-379.45444 536.9469,-381.27773 C 536.48448,-384.49691 533.89662,-384.27986 525.97333,-380.35737 C 518.94453,-376.8777 518.4379,-376.38281 513.37212,-368.04815 C 506.22633,-356.29127 505.37601,-355.23845 504.07604,-356.53842 C 503.32063,-357.29383 505.36381,-361.16822 511.07979,-369.81925 C 519.06202,-381.90022 520.6241,-386.08476 517.58675,-387.25029 C 513.65714,-388.75823 505.87338,-381.40676 495.20167,-366.10844 C 490.87653,-359.90819 488.12216,-356.86436 486.83666,-356.86436 C 484.98203,-356.86436 484.97748,-356.95326 486.6958,-359.61436 C 487.67245,-361.12686 490.92576,-365.64241 493.92538,-369.64892 C 500.11735,-377.91935 501.5903,-383.02322 498.29421,-384.78723 C 497.19464,-385.37571 495.69862,-385.62834 494.96973,-385.34864 C 493.37667,-384.73733 488.99845,-378.17794 483.04107,-367.47732 C 478.15078,-358.69339 468.3867,-348.86436 464.55112,-348.86436 C 462.16695,-348.86436 459.1501,-351.24305 459.1501,-353.12288 C 459.1501,-353.73649 457.9126,-353.08434 456.4001,-351.67364 C 451.15729,-346.78371 447.4157,-345.74162 444.73311,-348.4242 z M 454.0493,-352.39226 C 458.0679,-356.02283 477.1501,-382.74835 477.1501,-384.74603 C 477.1501,-385.36111 476.1376,-385.83244 474.9001,-385.79343 C 473.3763,-385.74539 470.24403,-382.98585 465.19531,-377.24346 C 457.51383,-368.50658 446.15594,-352.32595 446.15221,-350.11436 C 446.14818,-347.72568 450.1671,-348.88493 454.0493,-352.39226 z"
       id="path2514"
       sodipodi:nodetypes="cssscccssssssssccsssssccsssccsssssssssscccssccssscccccssssscccssssssccsssssssccsssssssssssssccsssssssssscccssssssssssssssssssssssssssssssssssssssssssssccssssssssssssssssscccccsssssssssssssssssssssssssccssssc" />
  </g>
</svg>
