<?xml version="1.0" encoding="UTF-8"?>
<svg version="1.0" xmlns="http://www.w3.org/2000/svg" width="426" height="115" >
<path fill="#231F20" d="M49.425,17.036c-9.234,6.435-18.387,12.998-27.383,19.761c-4.616,3.471-9.41,6.917-13.532,10.982 c-1.981,1.954-2.117,3.714,1.17,3.074c7.75-1.507,15.356-4.731,22.64-7.679c6.091-2.464,14.048-4.993,18.846-9.736 c0.765-0.757,0.977-1.819-0.409-1.872c-1.903-0.072-3.867,1.191-5.474,2.043c-3.809,2.018-11.944,6.422-12.002,11.527 c-0.05,4.417,7.347,4.245,10.09,3.904c6.215-0.771,12.425-4.429,15.648-9.824c-0.903-0.034-1.806-0.068-2.709-0.102 c-0.875,1.596-1.424,3.509,0.529,4.401c1.065,0.487,2.699,0.086,3.801-0.032c2.351-0.252,8.351-1.67,4.834,2.232 c-5.578,6.188,8.946,2.257,10.924,1.718c4.167-1.135,8.201-2.854,11.696-5.407c0.905-0.661,5.757-4.658,4.268-6.282 c-2.932-3.195-11.673,4.859-13.296,6.766c-5.002,5.877,11.786,5.831,13.818,5.674c2.284-0.176,21.968-4.656,18.276-9.258 c-1.241-1.548-4.872-0.398-6.292,0.069c-3.542,1.165-6.868,3.842-8.721,7.074c-3.03,5.287,7.033,4.383,9.345,4.047 c4.203-0.611,10.254-1.782,13.341-5.018c-0.841-0.105-1.683-0.211-2.524-0.317c-1.174,1.389-2.933,3.92-1.03,5.374 c1.939,1.481,5.96,0.138,8.062-0.329c7.171-1.591,14.229-3.914,21.194-6.23c-0.262-0.466-0.525-0.933-0.787-1.398 c-1.456,0.687-10.717,4.823-8.993,7.221c2.427,3.374,9.966-1.957,12.15-3.456c-0.787-0.098-1.573-0.196-2.36-0.293 c-1.925,4.468,7.846,2.131,9.298,1.932c1.31-0.18,8.187-1.59,8.776-0.214c0.446,1.041,2.652,0.585,3.442,0.487 c2.722-0.34,5.405-1.02,8.114-1.45c1.65-0.262,3.369-0.501,5.027-0.19c0.679,0.127,1.572,1.211,2.283,1.503 c2.438,1.001,14.929-1.052,15.728,0.483c0.537,1.031,3.354,0.101,2.898-0.776c-1.321-2.539-8.833-0.92-10.959-0.839 c-2.811,0.107-4.642-0.105-6.979-1.481c-1.706-1.005-3.841-0.779-5.734-0.621c-2.853,0.237-5.676,0.92-8.485,1.441 c-2.332,0.433-2.094,0.012-3.982-0.521c-2.242-0.634-5.159-0.033-7.401,0.207c-0.937,0.1-9.987,1.701-9.124-0.301 c0.448-1.04-2.047-0.508-2.36-0.293c-0.673,0.462-1.366,0.894-2.062,1.321c-0.267,0.164-5.781,2.604-5.401,1.74 c0.915-2.081,5.343-3.712,7.287-4.629c1.521-0.718,0.574-1.851-0.787-1.398c-4.266,1.418-8.561,2.75-12.874,4.015 c-3.048,0.894-6.116,1.727-9.218,2.415c-1.354,0.3-5.183,1.306-4.544-1.211c0.214-0.843,0.966-1.739,1.528-2.403 c0.852-1.007-1.964-0.904-2.524-0.317c-2.435,2.553-7.312,3.303-10.627,3.869c-1.979,0.338-4.07,0.54-6.042,0.082 c-3.218-0.749,0.729-4.646,1.516-5.436c1.331-1.336,3.078-2.275,4.853-2.859c2.782-0.915,1.946,1.098,0.501,2.081 c-3.865,2.628-8.879,3.675-13.435,4.2c-3.437,0.396-7.285,0.302-10.525-1.021c-3.332-1.36-0.056-3.916,1.468-5.179 c0.59-0.49,5.344-3.044,5.22-2.771c-1.417,3.108-5.156,5.093-8.069,6.456c-2.73,1.277-5.683,2.058-8.61,2.734 c-0.239,0.055-5.998,1.284-5.445,0.222c0.868-1.667,5.665-4.609,1.51-5.481c-2.192-0.46-12.021,1.821-9.79-2.247 c0.694-1.266-2.213-0.931-2.709-0.102c-2.725,4.563-7.394,7.305-12.564,8.245c-2.599,0.473-9.132-0.142-7.149-4.305 c2.017-4.235,8.932-8.463,13.318-9.797c-0.599-0.596-1.072-0.604-1.419-0.025c-0.444,0.439-0.985,0.776-1.501,1.121 c-1.233,0.823-2.566,1.514-3.881,2.192c-3.53,1.822-7.198,3.384-10.864,4.91c-6.901,2.872-13.978,5.615-21.226,7.482 c-2.118,0.546-1.619,0.85-0.176-0.628c1.309-1.341,2.78-2.535,4.222-3.727c4.778-3.952,9.782-7.635,14.774-11.309 c7.063-5.197,14.202-10.297,21.397-15.311C52.855,16.84,50.375,16.374,49.425,17.036L49.425,17.036 M84.185,20.216c2.69,1.417,5.836,3.019,8.925,3.131c0.652,0.024,1.53-0.225,1.91-0.802 c0.383-0.582-0.323-0.876-0.796-0.894c-2.64-0.097-5.439-1.657-7.741-2.869C85.615,18.327,82.956,19.569,84.185,20.216 L84.185,20.216 M126.898,20.399c-0.647,1.821-0.793,4.211,0.742,5.617c0.622,0.569,3.278-0.52,2.719-1.032 c-1.363-1.248-1.16-3.45-0.591-5.05C130.014,19.243,127.184,19.595,126.898,20.399L126.898,20.399 M207.262,34.142c2.467-0.612,4.956-1.134,7.454-1.605c1.935-0.365,3.885-0.638,5.847-0.81 c1.626-0.143,3.76-0.595,2.363,1.365c-2.243,3.146-5.12,5.912-7.776,8.702c-1.184,1.243-4.521,3.623-4.75,5.491 c-0.087,0.702,0.771,1.005,1.333,0.929c2.818-0.38,5.725-3.765,8.013-5.25c1.205-0.782,2.448-1.472,3.722-2.132 c0.834-0.067,1.052-0.437,0.652-1.109c-0.486,0.731-1.04,1.408-1.661,2.028c-1.219,1.342-3.728,3.591-3.873,5.642 c-0.483,6.816,15.705-1.79,17.705-3.246c-0.722-0.354-1.444-0.708-2.166-1.062c-1.53,1.645-1.138,3.85,1.405,4.029 c4.818,0.34,9.632-1.104,14.108-2.776c1.864-0.697,0.209-2.229-1.275-1.675c-1.607,0.601-3.263,1.074-4.917,1.525 c-0.54,0.147-8.469,1.411-6.903-0.272c1.214-1.305-1.33-1.671-2.166-1.062c-1.104,0.804-2.295,1.467-3.496,2.113 c-0.777,0.418-9.947,3.899-9.194,1.754c0.545-1.553,6.708-6.171,5.224-8.125c-1.197-1.575-4.532,0.466-5.628,1.034 c-1.976,1.024-3.847,2.28-5.688,3.524c-0.778,0.526-4.551,3.102-3.595,2.973c0.444,0.31,0.889,0.619,1.333,0.929 c0.072-0.587,2.445-2.553,3.005-3.14c1.746-1.833,3.494-3.665,5.208-5.529c1.072-1.165,6.321-5.75,4.783-7.774 c-1.63-2.146-6.91-0.86-8.986-0.56c-3.563,0.514-7.109,1.272-10.604,2.139C204.938,32.638,205.472,34.586,207.262,34.142 L207.262,34.142 M263.88,30.926c1.492-0.226,4.153-0.576,4.885-2.176c0.82-1.792-1.418-2.582-2.729-2.778 c-3.139-0.469-12.887,0.515-14.353,4.084c-1.497,3.645,8.637,3.136,10.082,3.167c11.936,0.25,23.903-0.529,35.781-1.631 c-0.052-0.706-0.104-1.413-0.155-2.119c-8.247,1.394-16.383,10.014-22.027,15.336c-1.427,1.345,0.847,2.409,1.938,1.381 c4.804-4.529,9.815-8.957,15.504-12.355c1.535-0.917,3.335-2.004,5.137-2.309c1.522-0.257,1.518-2.274-0.155-2.119 c-12.124,1.125-24.382,1.983-36.564,1.605c-1.576-0.049-3.148-0.16-4.716-0.335c-2.461-0.275-1.788-0.496,0.339-1.225 c1.707-0.585,3.512-0.928,5.294-1.18c0.912-0.129,4.746,0.05,1.98,0.469C262.51,28.984,261.919,31.223,263.88,30.926 L263.88,30.926 M305.347,29.46c-2.089,1.875-4.221,3.834-5.885,6.105c-0.337,0.46-0.883,1.415-0.19,1.811 c3.625,2.074-0.276,4.377-1.929,6.205c-2.72,3.009,0.729,3.114,3.114,2.677c4.379-0.802,8.67-2.83,12.599-4.868 c-0.744-0.133-1.487-0.266-2.231-0.398c-1.021,1.21-5.65,6.994-1.408,7.021c4.679,0.03,12.806-1.265,16.521-4.379 c-0.771,0.157-1.541,0.314-2.313,0.472c1.554,0.793,0.771,3.233,3.563,2.596c2.502-0.572,4.204-1.785,6.889-0.594 c0.604,0.269,1.269,0.198,1.908,0.129c6.677-0.712,13.721-4.529,19.787-7.13c6.281-2.693,14.607-5.418,19.53-10.391 c0.853-0.861,1.932-2.834,0.315-3.59c-2.311-1.081-5.117-0.077-7.33,0.777c-3.41,1.315-17.475,9.616-13.859,14.884 c2.971,4.33,11.79,3.118,16.141,2.638c2.771-0.305,5.544-0.876,8.164-1.833c0.135-0.049,6.751-3.293,4.583-4.061 c-2.104-0.745-11.431,2.282-7.559,4.454c3.877,2.175,9.079,2.295,13.403,2.408c5.586,0.146,11.443-0.632,16.396-3.337 c1.739-0.95-0.902-1.222-1.777-0.781c-0.864,0.435-4.646,2.384-3.952,3.851c1.053,2.224,4.645,1.762,6.643,1.657 c3.597-0.189,7.208-0.838,10.705-1.684c2.788-0.674,0.127-1.352-0.113-1.149c-0.581,0.489-1.193,0.943-1.789,1.414 c-17.746,14.001-32.018,31.141-47.639,47.327c-3.479,3.606-7.073,7.108-10.833,10.42c-1.237,1.09-2.515,2.132-3.827,3.13 c-0.529,0.403-1.08,0.773-1.642,1.128c-1.133,0.718-0.376-0.076,0.003,0.568c-0.655-1.112,2.966-5.7,3.458-6.541 c2.794-4.774,5.604-9.529,8.697-14.119c3.088-4.583,6.544-8.986,10.79-12.551c5.205-4.371,12.688-5.297,19.242-5.153 c5.466,0.12,11.327,1.617,15.271,5.578c2.73,2.743,3.899,7.313-1.063,6.093c-0.868-0.214-3.408,1.112-1.791,1.51 c2.279,0.561,8.952,0.838,8.36-3.17c-1.301-8.822-12.346-11.174-19.628-11.576c-8.826-0.488-17.873,1.892-24.48,7.86 c-7.702,6.957-12.912,16.658-18.084,25.513c-0.412,0.706-6.36,8.703-1.928,7.944c4.939-0.846,9.545-6.27,12.951-9.472 c17.795-16.726,32.597-36.15,51.545-51.741c1.57-1.292,3.808-2.51,5.076-4.127c0.31-0.395-0.067-0.693-0.447-0.763 c-1.845-0.336-4.836,1.044-6.586,1.349c-2.341,0.408-4.711,0.676-7.087,0.716c-3.296,0.056-1.957-2.283-0.074-3.231 c-0.593-0.26-1.185-0.521-1.777-0.781c-6.037,3.296-13.958,2.972-20.552,1.918c-1.412-0.226-4.76-0.53-5.543-1.987 c0.117,0.218,0.456,0.129-0.852,0.551c-1.337,0.432-2.732,0.682-4.114,0.912c-4.448,0.742-10.12,1.311-14.3-0.756 c-6.895-3.409,10.042-13.674,12.508-14.444c4.909-1.534,0.952,2.952-0.693,3.965c-2.104,1.297-4.348,2.388-6.568,3.469 c-5.62,2.736-11.39,5.184-17.206,7.471c-2.388,0.939-4.797,1.831-7.241,2.61c-0.775,0.248-1.56,0.461-2.35,0.652 c-0.881,0.213-0.044-0.239-0.956-0.593c-1.905-0.74-3.72-0.312-5.654,0.179c-1.344,0.342-2.727,1.49-3.439-0.206 c-0.243-0.578-0.31-0.979-0.874-1.268c-0.671-0.342-1.778,0.024-2.313,0.472c-2.732,2.29-8.09,2.386-11.457,2.985 c-3.487,0.621,0.36-4.042,1.336-5.199c0.882-1.046-1.899-0.571-2.231-0.398c-0.95,0.493-1.921,0.941-2.894,1.388 c-0.839,0.378-1.687,0.739-2.54,1.083c-0.638,0.265-6.566,1.558-6.367,1.215c0.691-1.182,5.717-4.717,4.849-6.548 c-0.837-1.764-3.095-1.12-1.276-3.32c1.366-1.652,3.009-3.125,4.604-4.555C308.887,28.766,306.008,28.868,305.347,29.46 L305.347,29.46 M334.561,20.684c3.742-1.307,7.369-4.396,7.23-8.666c-0.045-1.372-2.951-0.803-2.916,0.297 c0.068,2.078-0.731,3.886-2.345,5.209c-0.531,0.436-1.121,0.813-1.732,1.125c-0.207,0.106-1.494,0.614-0.692,0.333 c-0.475,0.166-1.403,0.558-1.222,1.238C333.053,20.853,334.087,20.849,334.561,20.684L334.561,20.684z"/>
</svg>