<?xml version="1.0" encoding="UTF-8"?>
<svg version="1.1" xmlns="http://www.w3.org/2000/svg" width="237" height="50" >
<path d="M43.186,8.993c-1.055-0.235-2.279,0.698-3.068,1.236c-5.514,3.761-9.82,9.633-13.965,14.736 c-3.284,4.042-6.374,8.352-9.923,12.172c-0.584,0.629-1.26,1.16-1.928,1.694c-1.283,1.026-2.567,1.884-4.007,2.669 c-2.6,1.674-4.924,0.95-6.971-2.172c-0.053,0.114,3.612-3.557,0.182,0.177c-0.609,0.663,0.378,1.656,0.99,0.99 c4.442-4.835-2.222-4.273-2.711-1.146c-0.356,2.28,1.538,4.523,3.939,4.569c3.857,0.073,6.924-1.981,9.839-4.313 c4.563-3.649,7.948-9.169,11.581-13.65c3.698-4.563,7.458-9.14,11.853-13.058c0.662-0.59,3.235-2.686,3.819-2.556 C43.693,10.539,44.067,9.189,43.186,8.993L43.186,8.993z"/>
<path d="M12.534,33.501c0.382-5.05,5.395-9.707,8.861-12.775c9.631-8.522,22.383-13.477,35.206-10.932 c3.476,0.689,6.813,2.058,9.879,3.812c4.451,2.546,9.296,4.187,14.263,5.39c7.312,1.772,15.692,1.865,22.613-1.409 c3.882-1.836,4.344-6.055,1.077-8.723c-3.464-2.83-8.531-3.722-12.817-4.289c-18.161-2.402-35.895,6.12-48.445,18.765 c-0.636,0.642,0.354,1.632,0.99,0.99C56.7,11.695,73.623,3.984,91.616,5.975c4.016,0.444,10.649,1.512,13.112,5.213 c3.584,5.386-7.655,7.03-10.528,7.387c-4.931,0.611-9.813-0.136-14.607-1.298c-7.643-1.853-13.953-6.545-21.487-8.567 c-7.38-1.981-15.695-1.244-22.706,1.725c-8.401,3.558-23.447,12.254-24.267,23.067C11.065,34.402,12.466,34.396,12.534,33.501 L12.534,33.501z"/>
<path d="M5.353,34.009c8.722-1.333,17.445-2.666,26.167-4c0.89-0.136,0.511-1.484-0.372-1.35c-8.722,1.333-17.445,2.666-26.167,4 C4.09,32.795,4.47,34.144,5.353,34.009L5.353,34.009z"/>
<path d="M34.171,24.839c-2.667,3.333-5.333,6.667-8,10c-0.558,0.697,0.426,1.695,0.99,0.99c2.667-3.333,5.333-6.667,8-10 C35.719,25.132,34.735,24.134,34.171,24.839L34.171,24.839z"/>
<path d="M25.87,44.662c3.516-4.102,7.14-8.118,10.915-11.983c2.177-2.229,4.405-4.365,7.167-5.849 c0.478-0.257,4.539-2.245,3.76,0.752c-0.758,2.916-3.428,5.665-5.243,7.886c-2.104,2.572-5.019,6.317-8.25,7.538 c1.188-0.449,1.942-1.729,2.863-2.658c1.852-1.872,3.978-3.484,6.024-5.131c3.635-2.925,7.524-6.215,11.748-8.32 c0.808-0.403,0.099-1.61-0.707-1.209c-2.201,1.098-4.219,2.643-6.204,4.074c-4.726,3.41-10.428,7.069-13.878,11.828 c-0.481,0.664-1.721,3.092,0.241,2.807c4.046-0.587,8.04-6.579,10.314-9.359c1.499-1.833,5.883-6.528,4.535-9.339 c-0.955-1.989-3.672-1.135-5.208-0.409C36.224,28.94,30.322,37.324,24.88,43.672C24.296,44.354,25.281,45.349,25.87,44.662 L25.87,44.662z"/>
<path d="M64.925,30.104c1.088-3.547-0.282-4.982-3.078-2.46c-4.661,4.204-9.129,8.74-13.277,13.449 c-0.358,0.407-4.183,5.327-0.975,4.255c4.074-1.362,8.139-5.206,11.644-7.644c4.507-3.134,8.652-6.653,12.131-10.917 c0.559-0.686-0.365-1.663-0.99-0.99c-2.841,3.057-5.623,6.17-8.341,9.336c-1.185,1.38-6.99,6.8-6.195,9.019 c1.083,3.019,11.74-6.14,12.781-6.875c3.454-2.441,6.831-5.15,10.528-7.222c1.123-0.599,1.441,0.014,0.956,1.835 c-0.841,1.727-2.553,3.229-3.861,4.604c-0.939,0.986-4.268,5.56-6.019,4.694c-0.807-0.398-1.516,0.809-0.707,1.209 c1.67,0.825,2.852-0.111,4.125-1.234c2.515-2.217,8.208-6.675,8.36-10.408c0.245-6.021-9.27,1.893-10.28,2.608 c-4.695,3.327-9.318,7.105-14.364,9.884c-0.794,0.438-0.173,0.637,0.109,0.088c0.209-0.408,0.482-0.789,0.738-1.169 c0.983-1.464,2.128-2.823,3.25-4.182c3.17-3.842,6.52-7.549,9.911-11.196c-0.33-0.33-0.66-0.66-0.99-0.99 c-4.807,5.892-10.931,10.153-17.21,14.338c-1.466,0.977-2.934,1.949-4.398,2.928c-1.244,0.831-0.741,0.62-1.151,1.541 c0.59-1.326,1.926-2.516,2.881-3.579c2.851-3.176,5.889-6.19,8.941-9.172c1.116-1.089,2.245-2.165,3.395-3.22 c1.501-1.377,1.221-0.478,0.738,1.098C63.31,30.597,64.661,30.964,64.925,30.104L64.925,30.104z"/>
<path d="M83.229,32.396c0.853-0.384-0.169,0.739-0.352,1.002c-0.554,0.797-1.174,1.549-1.777,2.308 c-1.278,1.609-2.573,3.205-3.768,4.878c-0.675,0.945-2.426,4.124,0.267,3.507c3.225-0.738,6.583-4.382,9.004-6.432 c2.39-2.022,4.729-4.111,7.018-6.247c0.661-0.617-0.331-1.605-0.99-0.99c-2.122,1.98-4.294,3.908-6.493,5.801 c-1.805,1.553-3.645,3.067-5.558,4.484c-0.698,0.518-1.419,1-2.161,1.452c-0.38,0.232-0.773,0.428-1.191,0.582 c0.289-0.106,0.083,0.571,0.564-0.3c1.737-3.145,4.466-5.705,6.511-8.647c1.364-1.964,0.56-3.66-1.78-2.606 C81.7,31.558,82.412,32.764,83.229,32.396L83.229,32.396z"/>
<path d="M102.229,23.021c0.45-0.324,0.916-0.621,1.391-0.907c0.418-0.049,0.528-0.222,0.33-0.518 c-0.205,0.48-0.597,0.972-0.894,1.411c-1.397,2.068-2.88,4.081-4.357,6.093c-1.706,2.325-3.443,4.628-5.226,6.896 c-0.951,1.211-2.081,3.15-3.451,3.941c-0.781,0.451-0.076,1.661,0.707,1.209c1.889-1.092,3.348-3.659,4.648-5.33 c2.333-2.995,4.587-6.054,6.804-9.136c0.725-1.009,4.028-4.502,3.218-5.886c-0.822-1.402-3.102,0.46-3.877,1.018 C100.796,22.334,101.493,23.55,102.229,23.021L102.229,23.021z"/>
<path d="M111.604,20.688c-3.969-2.506-11.762,7.775-13.349,9.609c-0.439,0.509-0.03,1.373,0.682,1.17 c3.916-1.117-0.462,4.421-1.225,5.54c-0.641,0.939-2.577,3.36-1.777,4.726c1.167,1.993,5.498-0.083,6.886-0.709 c6.782-3.055,11.864-9.366,16.758-14.692c1.311-1.427,7.031-8.287,8.86-7.989c-0.103-0.39-0.205-0.78-0.309-1.17 c-5.724,6.74-11.617,13.537-16.519,20.909c-0.29,0.437-2.756,4.546-0.261,3.938c7.491-1.828,12.777-8.348,19.003-12.372 c-0.283-0.366-0.565-0.733-0.849-1.1c-1.776,1.939-3.522,3.907-5.243,5.896c-1.26,1.454-4.443,4.19-4.644,6.288 c-0.235,2.455,3.963-0.905,4.052-0.97c2.562-1.854,4.688-4.147,7.48-5.696c-1.178,0.653-2.758,3.223-3.152,4.521 c-0.095,0.313,0.064,0.619,0.321,0.791c0.868,0.578,1.804-0.27,2.534-0.731c3.071-1.94,0.57,0.61,1.242,1.911 c1.753,3.392,6.689-0.304,8.399-1.771c0.687-0.589-0.309-1.574-0.99-0.99c-0.818,0.702-7.356,4.118-5.119,0.199 c0.176-0.308,0.23-0.715,0.23-1.065c0-0.419-0.452-0.864-0.836-0.97c-1.194-0.329-2.788,0.946-3.634,1.477 c-1.643,1.03,2.048-2.496,2.401-2.939c0.372-0.468,0.615-0.857,0.692-1.425c0.047-0.35-0.079-0.786-0.489-0.86 c-1.852-0.338-4.044,1.635-5.374,2.648c-1.176,0.896-2.271,1.914-3.397,2.871c-1.074,0.934-2.227,1.752-3.458,2.455 c0.771-0.476,0.479,0.589,1.291-0.552c2.561-3.592,5.706-6.85,8.683-10.099c0.521-0.568-0.156-1.547-0.849-1.1 c-5.046,3.262-9.203,7.608-14.509,10.473c-0.462,0.225-0.923,0.449-1.384,0.674c-2.626,0.222-3.337,0.668-2.134,1.339 c0.15-0.578,0.584-1.151,0.891-1.652c0.992-1.621,2.157-3.145,3.296-4.664c4.224-5.642,8.752-11.073,13.313-16.444 c0.304-0.357,0.257-1.078-0.309-1.17c-1.493-0.243-3.207,1.582-4.203,2.415c-6.888,5.76-11.848,13.402-19.296,18.566 c-2.016,1.396-4.261,2.501-6.669,2.994c-2.271,0.464-0.143-2.605,0.277-3.255c1.147-1.771,2.464-3.415,3.44-5.292 c1.398-2.687-2.224-2.753-3.798-2.304c0.228,0.39,0.454,0.78,0.682,1.17c1.304-1.507,8.879-11.142,11.651-9.391 C111.662,22.38,112.364,21.168,111.604,20.688L111.604,20.688z"/>
<path d="M137.479,19.021c0.156-0.242,0.32-0.479,0.489-0.712c0.122-0.17,0.251-0.332,0.387-0.491 c0.074-0.086,0.154-0.166,0.236-0.244c0.003-0.002-0.066,0.023-0.03,0.019c0.379-0.051,0.579-0.531,0.488-0.861 c-0.111-0.404-0.483-0.539-0.861-0.488c-0.503,0.067-0.901,0.667-1.184,1.033c-0.259,0.336-0.505,0.683-0.734,1.038 C135.779,19.075,136.992,19.776,137.479,19.021L137.479,19.021z"/>
<path d="M178.672,10.006c-4.861,4.916-8.897,10.793-12.789,16.469c-2.918,4.256-5.623,8.723-9.018,12.628 c-0.809,0.93-1.717,1.736-2.759,2.395c-0.389,0.246-0.809,0.445-1.222,0.647c-0.146,0.069-0.293,0.138-0.439,0.207 c-3.697,1.446-4.728-0.246-3.091-5.079c0.728-0.52,0.029-1.734-0.707-1.209c-2.661,1.899-5.048,6.132-0.419,7.687 c3.304,1.11,6.31-0.464,8.727-2.715c5.361-4.994,8.935-12.246,13.137-18.151c2.925-4.111,6.01-8.287,9.57-11.888 C180.297,10.354,179.308,9.363,178.672,10.006L178.672,10.006z"/>
<path d="M158.409,25.647c-0.33,1.096-3.183,7.729-4.494,3.941c-0.976-2.815,1.115-6.503,2.474-8.783 c5.214-8.748,16.913-16.05,27.168-15.707c6.274,0.21,7.951,5.881,5.376,10.857c-1.976,3.819-6.685,5.599-10.578,6.574 c-2.829,0.708-5.621,0.729-8.516,0.626c-1.976-0.071-6.099-1.243-5.632-4.146c0.429-2.668,5.529-3.383,7.563-3.834 c0.881-0.195,0.507-1.545-0.373-1.35c-3.132,0.694-10.287,2.402-8.287,7.166c1.808,4.304,8.498,3.865,12.204,3.478 c5.287-0.553,10.727-2.535,14.131-6.77c2.533-3.15,3.489-9.171-0.146-11.94c-5.351-4.076-12.96-1.539-18.413,0.939 c-7.134,3.241-13.797,9.025-17.188,16.16c-1.159,2.438-2.634,7.517,0.448,9.322c3.058,1.791,5.034-4.243,5.611-6.161 C160.02,25.153,158.669,24.786,158.409,25.647L158.409,25.647z"/>
<path d="M173.647,27.146c-4.476,3.278-9.488,7.147-12.065,12.165c-2.498,4.865,3.251,3.824,5.854,2.789 c3.829-1.523,7.386-3.81,10.784-6.107c2.493-1.685,6.31-3.922,7.857-6.575c2.44-4.182-7.271,1.234-7.64,1.476 c-2.199,1.441-11.706,8.218-8.165,11.759c4.275,4.275,15.155-5.639,17.914-7.942c2.013-1.682,4.167-3.189,6.479-4.424 c3.012-1.606,2.075,0.026,0.597,1.641c-2.172,2.372-4.369,4.431-5.689,7.435c-2.673,6.086,5.765,2.868,8.031,1.744 c0.809-0.401,0.1-1.608-0.707-1.209c-2.048,1.016-7.879,3.397-5.438-1.224c1.175-2.224,3.021-4.014,4.794-5.756 c1.02-1.002,2.795-2.941,1.625-4.388c-1.369-1.691-5.873,1.668-6.792,2.267c-5.821,3.796-11.275,10.93-18.776,11.175 c-3.575,0.117,2.497-6.438,3.17-7.055c2.164-1.982,4.701-3.594,7.28-4.977c3.946-2.116-0.111,0.948-1.338,1.956 c-2.595,2.13-5.438,3.968-8.304,5.706c-2.471,1.498-5.067,2.847-7.798,3.802c-4.856,1.699-1.175-3.665,0.153-5.196 c2.563-2.959,5.729-5.542,8.881-7.852C175.074,27.828,174.377,26.612,173.647,27.146L173.647,27.146z"/>
<path d="M213.951,31.168c-0.881-7.037-24.001,10.35-14.958,12.532c2.323,0.562,5.376-0.925,7.409-1.82 c3.728-1.642,7.3-3.59,10.765-5.727c1.947-1.201,4.267-2.56,5.331-4.67c0.394-0.781-0.235-1.826-1.178-1.477 c-3.323,1.233-12.134,8.743-5.126,10.738c6.793,1.934,15.673-6.21,17.237-12.234c2.182-8.4-9.843-11.482-15.726-11.466 c-5.808,0.016-15.405,1.702-19.7,6.128c-0.629,0.648,0.36,1.639,0.99,0.99c1.948-2.008,5.392-2.907,7.948-3.759 c4.986-1.661,10.357-2.43,15.573-1.621c2.968,0.46,5.516,1.884,7.72,3.883c3.737,3.391,1.358,7.985-1.3,10.966 c-1.521,1.707-3.471,3.003-5.44,4.129c-1.892,1.08-3.877,1.58-6.035,1.705c-0.688-0.943-1.376-1.886-2.063-2.829 c0.98-1.275,2.105-2.403,3.375-3.383c3.604-3.069,1.983-1.285-0.011,0.175c-0.973,0.711-2.012,1.337-3.036,1.969 c-3.443,2.123-7.051,4.035-10.788,5.587c-1.332,0.553-2.702,0.981-4.112,1.279c-4.577,0.967-0.05-4.665,1.03-5.626 c0.513-0.456,10.487-7.129,10.694-5.47C212.661,32.052,214.063,32.063,213.951,31.168L213.951,31.168z"/>
<path d="M196.746,14.496c0.139-0.139,0.278-0.277,0.417-0.416c0.64-0.639-0.351-1.628-0.99-0.99 c-0.139,0.139-0.278,0.277-0.417,0.416C195.116,14.145,196.106,15.134,196.746,14.496L196.746,14.496z"/>
</svg>