<?xml version="1.0" encoding="UTF-8"?>
<svg version="1.1" xmlns="http://www.w3.org/2000/svg" width="369" height="55" >
<path d="M9.154,26.583C14.114,20.222,24.06,8.12,33.159,10.111c10.033,2.195-8.723,26.78-11.753,30.134 c-0.462,0.512-0.948,1.058-1.502,1.473c-0.636,0.477,1.211,1.956,1.818,0.53c1.007-2.365,2.715-4.506,4.312-6.484 c5.804-7.192,13.371-13.745,21.354-18.358c4.061-2.346,12.952-5.405,12.897,2.17c-0.06,8.42-8.721,16.58-14.272,21.825 c-1.651,1.56,0.8,3.966,2.475,2.475c4.342-3.865,8.844-7.559,13.418-11.144c6.741-5.282,14.888-12.396,23.706-13.441 c9.138-1.083,1.799,7.987-0.535,11.014c-2.616,3.392-5.551,7.093-6.877,11.231c-0.507,1.582,0.644,3.706,2.537,3.118 c3.156-0.98,5.543-4.132,7.958-6.269c6.015-5.321,12.434-10.25,19.081-14.754c2.565-1.738,5.21-3.406,8.024-4.714 c1.344-0.624,2.009-0.117,1.604-1.188c0.315,0.831-1.297,3.036-1.678,3.697c-2.713,4.716-6.235,8.896-8.844,13.69 c-1.199,2.204-2.736,5.23-1.89,7.801c1.588,4.819,9.029,0.77,11.6-0.595c4.58-2.431,8.727-5.603,12.753-8.845 c4.259-3.43,12.07-9.089,12.766-15.152c0.338-2.947-2.397-5.779-5.353-4.026c-3.539,2.099-6.809,6.854-7.61,10.899 c-0.437,2.204,2.937,3.143,3.375,0.93c0.341-1.724,1.304-3.25,2.215-4.727c0.391-0.632,4.482-5.475,3.731-2.819 c-0.729,2.581-3.385,4.868-5.195,6.713c-2.979,3.036-6.34,5.75-9.718,8.324c-1.545,1.178-15.304,9.535-15.299,7.599 c0.012-4.416,5.074-10.055,7.425-13.393c1.946-2.763,4.267-5.769,5.081-9.122c1.147-4.724-4.072-3.956-6.729-2.809 c-6.491,2.799-12.395,7.632-17.937,11.927c-2.948,2.285-5.849,4.627-8.684,7.051c-1.107,0.946-2.193,1.917-3.263,2.905 c-0.869,0.803-1.733,1.604-2.627,2.38c-1.641,1.424-0.447,3.117,0.681,0.776c2.15-4.466,5.581-8.032,8.451-12.001 c1.821-2.52,4.485-6.713,2.697-9.956c-3.527-6.399-13.39-2.273-18.13,0.327c-10.59,5.809-20.215,14.088-29.21,22.096 c0.825,0.825,1.65,1.649,2.475,2.475c6.705-6.335,15.232-15.11,15.303-25.055c0.044-6.16-5.53-8.193-10.753-7.344 C42.67,13.162,32.747,23.269,25.937,30.559c-2.246,2.403-9.796,9.758-7.643,13.775c2.233,4.166,8.575-5.146,9.465-6.323 c4.85-6.407,10.119-13.916,11.457-22.017c0.995-6.018-3.236-10.451-9.387-9.472c-7.778,1.238-14.251,7.676-19.389,13.202 c-1.309,1.408-2.579,2.867-3.761,4.385C5.31,25.865,7.768,28.361,9.154,26.583L9.154,26.583z"/>
<path d="M145.185,35.548c2.899-2.407,10.305-10.117,3.796-12.884c-6.068-2.579-12.923,8.722-15.423,12.636 c-2.203,3.447-4.579,8.967,1.672,9.068c9.588,0.157,19.738-9.104,26.344-14.903c-0.825-0.825-1.65-1.649-2.475-2.475 c-3.85,3.647-8.583,7.978-10.386,13.087c-0.69,1.956,0.364,3.55,2.144,4.248c2.439,0.957,5.823-1.471,7.681-2.68 c3.447-2.242,6.617-4.948,9.833-7.501c1.735-1.378,3.491-2.722,5.318-3.975c0.657-0.45,1.342-0.85,2.037-1.238 c1.224-0.684,2.104-1.789,0.919,0.411c-2.527,4.694-7.547,7.55-10.023,12.212c-0.897,1.689-0.303,3.817,1.752,4.095 c3.212,0.434,6.901-2.18,9.463-3.71c5.099-3.043,9.792-7.656,15.489-9.597c0.876-0.299-0.327-1.549-0.8-0.453 c-0.253,0.587-0.604,1.136-0.921,1.688c-0.58,1.015-1.076,2.084-1.521,3.163c-0.874,2.116-1.683,4.416-1.185,6.722 c1.526,7.073,13.5-2.989,15.285-4.391c9.189-7.213,17.406-16.601,27.461-22.61c0.902-0.54-0.047-1.441-0.366-0.299 c-0.285,1.022-0.78,1.985-1.244,2.937c-0.939,1.924-2.203,3.694-3.464,5.416c-2.971,4.059-6.536,7.719-10.144,11.209 c-2.467,2.386-5.054,4.879-7.971,6.715c-1.724,1.085,4.254-3.276,1.531,2.106c0.335-0.662,0.872-1.241,1.339-1.809 c1.696-2.063,3.574-3.983,5.422-5.909c9.092-9.471,18.898-20.629,30.567-27.009c5.796-3.168,2.649,4.173,0.958,6.92 c-2.028,3.295-5.302,6.234-8.515,8.374c-1.182,0.786-1.156,2.852,0.418,3.198c4.773,1.052,1.49,5.42-0.584,7.687 c-1.457,1.593-3.147,2.941-4.997,4.046c-3.223,1.925-4.176-0.365-4.225-3.493c-0.035-2.255-3.535-2.258-3.5,0 c0.331,21.351,31.131-7.891,14.235-11.614c0.14,1.066,0.279,2.133,0.418,3.198c5.706-3.798,11.346-9.547,12.484-16.534 c0.821-5.045-2.678-7.435-7.19-5.407c-8.921,4.008-16.461,12.204-23.341,18.888c-4.617,4.484-9.18,9.063-13.48,13.855 c-1.228,1.368-3.37,3.299-3.468,5.298c-0.255,5.225,8.334-2.352,8.993-2.926c6.09-5.305,11.867-11.371,16.243-18.182 c1.273-1.981,6.319-12.447-0.441-10.361c-2.993,0.923-5.721,3.666-8.085,5.599c-5.119,4.187-10.037,8.621-15.076,12.902 c-3.959,3.364-7.938,6.774-12.349,9.536c-2.51,1.57-4.16,2.653-3.221-0.77c0.79-2.878,4.375-6.604,3.521-9.662 c-1.194-4.276-8.51,0.919-10.066,1.885c-4.218,2.617-8.127,5.669-12.464,8.104c-0.69,0.376-1.392,0.728-2.107,1.055 c-0.432,0.169-0.864,0.337-1.296,0.506c-0.864,0.008-0.951,0.301-0.26,0.877c1.041-1.958,3.143-3.592,4.627-5.188 c1.968-2.116,10.392-10.905,3.869-12.699c-4.214-1.159-9.65,4.495-12.522,6.761c-2.749,2.168-5.461,4.378-8.318,6.403 c-1.207,0.855-2.464,1.623-3.777,2.302c-1.314,0.679-2.021,1.21-1.422-0.095c1.899-4.131,5.93-7.722,9.194-10.815 c1.652-1.564-0.793-3.951-2.475-2.475c-5.597,4.914-11.648,9.627-18.579,12.514c-1.67,0.695-3.477,1.265-5.291,1.364 c-1.018,0.056-0.668-0.321-0.794,0.313c0.176-0.889,0.78-1.768,1.209-2.549c2.384-4.34,5.652-8.84,9.662-11.808 c3.465-2.564,2.313,1.099,0.778,2.952c-0.997,1.203-2.173,2.299-3.374,3.296C140.972,34.517,143.462,36.979,145.185,35.548 L145.185,35.548z"/>
<path d="M253.352,32.665c1.405-1.275,2.838-2.521,4.288-3.744c1.031-0.87,2.08-1.718,3.188-2.487 c2.003-1.391-1.732,1.499-1.205-2.258c-0.095,0.676-1.118,1.688-1.497,2.2c-2.004,2.715-15.503,16.155-10.588,19.948 c2.053,1.585,5.434-0.727,7.18-1.717c4.561-2.586,8.677-5.93,12.854-9.073c0.504-0.38,1.018-0.741,1.544-1.09 c1.197-0.792-1.371-2.541-2.139-1.224c-1.278,2.194-2.877,4.233-4.357,6.29c-1.133,1.572-3.263,4.173-2.522,6.319 c2.468,7.16,23.805-13.271,25.8-16.316c0.466-0.711,0.801-1.466,1.333-2.141c0.845-1.07-1.057-1.547-1.401-0.371 c-0.821,2.81-3.284,5.241-5.212,7.309c-2.397,2.571-6.28,5.6-5.074,9.617c2.382,7.931,18.529,0.568,22.367-1.457 c2.754-1.453,17.25-11.29,10.162-15.443c-2.635-1.545-6.632,1.334-8.491,2.849c-3.594,2.926-6.606,6.382-7.201,11.108 c-0.327,2.599,1.372,4.622,3.655,5.464c4.022,1.483,8.888-2.551,11.673-4.817c3.97-3.229,8.124-6.517,12.898-8.493 c0.58-0.24,1.179-0.402,1.789-0.543c-0.828,0.19,0.018-1.449-1.057,0.4c-1.697,2.924-4.456,5.396-6.819,7.764 c-1.415,1.417,0.393,3.736,2.12,2.748c3.649-2.085,7.371-4.054,11.163-5.865c1.971-0.942,4.241-2.188,6.451-2.434 c-0.383-1.315-0.737-1.549-1.063-0.701c-0.632,1.043-1.514,2.025-2.253,2.979c-1.038,1.339-2.081,2.671-3.044,4.065 c-2.939,4.262,0.55,5.892,4.527,4.905c5.126-1.271,27.218-10.481,21.8,3.079c-0.838,2.098,2.548,2.999,3.375,0.93 c3.327-8.327-2.356-12.445-10.361-11.789c-5.845,0.479-11.055,3.243-16.668,4.635c-1.638,0.406-0.433,1.339-0.015,0.582 c0.369-0.669,0.856-1.284,1.305-1.899c1.411-1.938,2.971-3.764,4.355-5.721c0.933-1.318,1.287-3.455-0.466-4.278 c-1.95-0.916-4.577,0.405-6.37,1.138c-5.005,2.045-9.813,4.671-14.503,7.353c0.706,0.916,1.413,1.832,2.12,2.748 c1.086-1.088,13.513-12.81,6.286-14.082c-2.397-0.423-5.081,1.186-7.1,2.255c-4.925,2.61-8.905,6.399-13.393,9.624 c-1.688,1.213-6.861,4.018-6.908-0.046c-0.035-3.027,2.983-5.834,5-7.677c0.517-0.472,6.188-4.879,5.038-2.317 c-1.485,3.311-5.371,5.732-8.253,7.574c-4.791,3.061-12.106,6.286-17.93,4.783c-3.188-0.823,3.844-7.085,4.536-7.827 c1.779-1.908,3.343-4.095,4.472-6.445c2.532-5.269-2.161-7.099-5.159-2.573c-3.898,5.885-9.614,10.384-15.42,14.345 c-1.22,0.831-2.481,1.598-3.781,2.296c-0.486,0.261-0.983,0.477-1.504,0.657c-0.941,0.327,0.372,1.858,0.684,0.839 c1.196-3.911,5.124-6.954,6.965-10.615c0.797-1.584-0.021-3.39-1.951-3.129c-2.61,0.353-5.679,3.835-7.673,5.321 c-2.916,2.173-5.926,4.221-9.09,6.015c-0.694,0.396-1.419,0.726-2.174,0.989c0.246,1.092,0.438,1.198,0.574,0.32 c0.524-1.671,1.813-3.276,2.775-4.709c2.292-3.413,4.962-6.543,7.469-9.794c0.944-1.224,2.631-2.897,2.631-4.597 c0-5.709-11.133,4.771-12.212,5.75C249.203,31.71,251.685,34.178,253.352,32.665L253.352,32.665z"/>
<path d="M97.292,45.854c0.325-0.284,0.65-0.568,0.975-0.853c0.719-0.628,0.641-1.834,0-2.475c-0.708-0.708-1.757-0.628-2.475,0 c-0.325,0.284-0.65,0.568-0.975,0.853c-0.719,0.628-0.641,1.834,0,2.475C95.525,46.563,96.575,46.482,97.292,45.854 L97.292,45.854z"/>
</svg>