<?xml version="1.0" encoding="UTF-8" standalone="no"?>
<!-- Created with Inkscape (http://www.inkscape.org/) -->
<svg
   xmlns:dc="http://purl.org/dc/elements/1.1/"
   xmlns:cc="http://creativecommons.org/ns#"
   xmlns:rdf="http://www.w3.org/1999/02/22-rdf-syntax-ns#"
   xmlns:svg="http://www.w3.org/2000/svg"
   xmlns="http://www.w3.org/2000/svg"
   xmlns:sodipodi="http://sodipodi.sourceforge.net/DTD/sodipodi-0.dtd"
   xmlns:inkscape="http://www.inkscape.org/namespaces/inkscape"
   width="616.52014"
   height="64.230797"
   id="svg2678"
   sodipodi:version="0.32"
   inkscape:version="0.46"
   version="1.0"
   sodipodi:docname="James Monroe's sig.svg"
   inkscape:output_extension="org.inkscape.output.svg.inkscape">
  <defs
     id="defs2680">
    <inkscape:perspective
       sodipodi:type="inkscape:persp3d"
       inkscape:vp_x="0 : 526.18109 : 1"
       inkscape:vp_y="0 : 1000 : 0"
       inkscape:vp_z="744.09448 : 526.18109 : 1"
       inkscape:persp3d-origin="372.04724 : 350.78739 : 1"
       id="perspective2686" />
    <inkscape:perspective
       id="perspective2695"
       inkscape:persp3d-origin="372.04724 : 350.78739 : 1"
       inkscape:vp_z="744.09448 : 526.18109 : 1"
       inkscape:vp_y="0 : 1000 : 0"
       inkscape:vp_x="0 : 526.18109 : 1"
       sodipodi:type="inkscape:persp3d" />
  </defs>
  <sodipodi:namedview
     id="base"
     pagecolor="#ffffff"
     bordercolor="#666666"
     borderopacity="1.0"
     gridtolerance="10000"
     guidetolerance="10"
     objecttolerance="10"
     inkscape:pageopacity="0.0"
     inkscape:pageshadow="2"
     inkscape:zoom="2.5692591"
     inkscape:cx="308.26007"
     inkscape:cy="32.115398"
     inkscape:document-units="px"
     inkscape:current-layer="layer1"
     showgrid="false"
     inkscape:window-width="1680"
     inkscape:window-height="970"
     inkscape:window-x="-8"
     inkscape:window-y="-8" />
  <metadata
     id="metadata2683">
    <rdf:RDF>
      <cc:Work
         rdf:about="">
        <dc:format>image/svg+xml</dc:format>
        <dc:type
           rdf:resource="http://purl.org/dc/dcmitype/StillImage" />
      </cc:Work>
    </rdf:RDF>
  </metadata>
  <g
     inkscape:label="Layer 1"
     inkscape:groupmode="layer"
     id="layer1"
     transform="translate(-70.357117,-155.94695)">
    <path
       style="fill:#000000"
       d="M 70.357117,218.02822 C 70.357117,215.15604 71.718211,213.56753 77.682083,209.47936 C 86.199129,203.64102 103.50414,196.34838 108.84114,196.34838 C 110.01468,196.34838 111.84836,195.68769 112.91598,194.88018 C 115.04074,193.2731 116.77097,192.86974 115.96821,194.16863 C 115.42858,195.04176 128.86826,193.15814 136.31577,191.31684 C 138.76803,190.71055 142.58319,188.88433 144.79389,187.25856 C 149.89187,183.50946 155.27731,181.98734 158.75966,183.31133 C 160.18826,183.85448 161.35711,184.85001 161.35711,185.52363 C 161.35711,186.47621 161.09045,186.48171 160.15711,185.54838 C 158.22688,183.61815 155.06191,184.14767 150.3029,187.19706 C 146.06673,189.91143 141.33676,194.34838 142.6793,194.34838 C 144.07997,194.34838 156.80803,189.22292 160.3478,187.23346 C 165.91684,184.10348 167.29049,185.21572 163.3702,189.68069 C 161.56661,191.73486 160.29671,193.62131 160.54819,193.87279 C 160.79967,194.12427 166.37205,192.51063 172.93127,190.28693 C 194.20213,183.0757 215.05701,179.07864 216.06834,182.01925 C 216.28982,182.66324 213.46589,186.37574 209.79294,190.26925 C 206.11999,194.16277 203.33941,197.34838 203.61386,197.34838 C 203.88831,197.34838 205.85532,196.61092 207.98499,195.70959 C 210.11465,194.80826 216.14971,192.60213 221.39622,190.80708 C 238.43064,184.97889 246.62609,186.0244 240.10711,193.19406 C 238.0251,195.48388 238.00644,195.60837 239.85711,194.8615 C 255.67316,188.47864 272.35711,184.47178 272.35711,187.05622 C 272.35711,187.44553 270.69885,189.46227 268.67209,191.53786 C 266.64532,193.61345 265.18282,195.50464 265.42209,195.74049 C 266.17299,196.48069 289.19957,188.55126 295.95091,185.22759 C 299.49598,183.48235 302.62453,182.28246 302.90323,182.56117 C 303.18194,182.83987 301.71057,184.6282 299.63354,186.53522 C 297.5565,188.44225 294.95711,191.03659 293.85711,192.30041 L 291.85711,194.59827 L 295.35711,193.84111 C 297.28211,193.42468 302.86683,191.32055 307.76761,189.16528 C 319.40603,184.04691 331.46591,180.60315 340.67389,179.76875 C 353.1196,178.64095 352.4346,180.80189 336.17785,193.95227 C 327.09405,201.30033 323.9661,203.33374 323.32995,202.30443 C 322.16664,200.42216 322.60208,199.92566 330.70767,193.8922 C 334.63986,190.96524 339.65711,186.96422 341.85711,185.00104 L 345.85711,181.43163 L 341.65633,181.39 C 333.41899,181.30838 322.1025,184.43765 306.35711,191.15105 C 294.35522,196.26832 289.8946,197.19143 288.95836,194.75165 C 288.48721,193.52384 289.13111,192.25295 291.06872,190.58635 C 293.16135,188.78643 293.35807,188.36273 291.85711,188.8883 C 290.75711,189.27347 285.55007,191.10714 280.28592,192.96312 C 268.93547,196.96493 261.35711,198.29365 261.35711,196.28191 C 261.35711,195.54584 262.81961,193.40093 264.60711,191.51545 L 267.85711,188.08731 L 263.47417,188.75092 C 261.06356,189.1159 252.99065,191.63924 245.53438,194.35833 C 238.07811,197.07742 231.7535,199.0781 231.47969,198.80429 C 231.20587,198.53048 232.95071,196.30032 235.35711,193.84838 C 237.76351,191.39644 239.42571,189.08365 239.0509,188.70883 C 237.92158,187.57951 227.70576,190.26643 212.10711,195.79548 C 203.56597,198.82295 197.35711,200.54828 197.35711,199.89426 C 197.35711,199.27305 199.41914,196.7586 201.93939,194.30659 C 204.45964,191.85457 207.92348,188.09646 209.63679,185.95523 L 212.75192,182.06209 L 207.80451,182.77811 C 199.71542,183.94882 183.64838,188.17107 171.21261,192.39408 C 155.98485,197.56521 153.39321,197.59725 156.91382,192.57088 C 158.61568,190.14113 158.26081,189.81246 155.59355,191.3481 C 152.83378,192.937 137.02401,199.34861 136.68985,199.01445 C 136.52348,198.84807 137.20497,197.10823 138.20429,195.14814 L 140.02123,191.58432 L 137.24471,192.38061 C 135.71763,192.81858 129.60571,193.96197 123.66266,194.9215 C 111.94149,196.81392 114.37578,195.62536 83.357117,214.60097 C 79.232117,217.12443 74.619617,219.4987 73.107117,219.87714 C 70.648953,220.49218 70.357117,220.29596 70.357117,218.02822 z M 92.270597,207.52352 C 100.19801,202.81214 106.21879,198.80227 105.65012,198.61271 C 104.09693,198.09498 91.719267,202.97372 84.874331,206.80163 C 75.610574,211.98221 66.175417,222.03847 74.607117,217.74471 C 76.394617,216.83444 84.343183,212.23491 92.270597,207.52352 z M 650.67265,212.99439 C 645.26539,211.60713 640.35711,208.9466 640.35711,207.40287 C 640.35711,206.32986 650.45543,197.34838 651.66186,197.34838 C 652.97279,197.34838 661.50097,192.15891 661.00504,191.66297 C 660.76171,191.41965 655.46187,190.8431 649.22761,190.38175 C 638.84203,189.61321 637.66498,189.70503 635.17508,191.47799 C 630.20488,195.01709 621.90874,198.26607 616.09821,198.94899 C 610.77056,199.57515 610.35711,199.47726 610.35711,197.58965 C 610.35711,195.21199 615.71958,190.22443 621.38171,187.33583 C 628.28829,183.81235 640.04592,183.3898 638.77151,186.71086 C 638.1348,188.3701 646.19545,189.34838 660.5038,189.34838 C 665.92312,189.34838 670.34392,189.68588 670.3278,190.09838 C 670.31168,190.51088 666.67793,192.84635 662.25281,195.28832 C 654.4056,199.61873 645.35711,206.63792 645.35711,208.39482 C 645.35711,210.66691 654.53153,211.81751 672.35711,211.78097 C 693.06671,211.73853 691.23072,212.98148 669.35711,213.81195 C 659.87174,214.17208 654.31536,213.92895 650.67265,212.99439 z M 627.96359,193.81116 C 632.7101,191.54383 633.41921,190.91937 631.60711,190.6026 C 629.05753,190.15691 628.80086,189.33983 630.60711,187.41927 C 631.63639,186.32485 631.33928,186.2127 628.92444,186.78417 C 624.95239,187.72414 618.27067,191.73548 615.29633,194.96573 L 612.85711,197.61483 L 617.46359,197.12062 C 619.99715,196.8488 624.72215,195.35955 627.96359,193.81116 z M 575.80772,202.26846 C 575.44063,201.67451 575.97658,200.59656 576.9987,199.87302 C 578.02083,199.14948 580.59832,197.16693 582.72647,195.46735 C 585.92236,192.91506 586.30026,192.26379 584.89763,191.72555 C 581.9288,190.58631 570.9106,192.15723 564.2281,194.67252 C 551.6925,199.3909 544.83442,199.11201 547.52783,193.99337 C 548.14861,192.81363 549.15165,191.4814 549.75681,191.03287 C 551.01677,190.09903 549.74906,190.38636 539.85711,193.27663 C 536.00711,194.40155 530.05092,195.9615 526.62114,196.74319 C 520.66801,198.09999 520.42935,198.08191 521.35924,196.34439 C 521.89498,195.34336 524.47616,192.65008 527.09521,190.35933 C 531.68994,186.34054 531.75179,186.21537 528.85711,186.79405 C 522.14018,188.13684 519.37958,188.54854 508.78135,189.78804 C 499.01993,190.92968 497.18815,191.45823 493.34515,194.24208 C 488.40751,197.81889 479.36813,200.80404 476.36298,199.85024 C 475.23599,199.49255 474.35711,198.3373 474.35711,197.2136 C 474.35711,195.76917 473.87099,195.36406 472.60711,195.75524 C 461.06428,199.32782 441.77059,200.58946 440.71577,197.84066 C 439.84909,195.58211 442.70458,191.89809 449.83456,186.07605 C 453.3557,183.20083 455.89128,180.72422 455.46918,180.57248 C 454.26589,180.1399 444.31348,183.57733 426.00764,190.7481 C 416.74043,194.37825 408.75293,197.34838 408.25764,197.34838 C 406.16641,197.34838 407.76118,195.01328 414.35711,188.41734 C 418.20711,184.56734 421.35711,181.21756 421.35711,180.97337 C 421.35711,180.12114 411.78446,183.07018 402.35711,186.82668 C 390.30427,191.62937 381.63831,195.95908 378.03038,198.98087 C 375.13936,201.40223 373.35711,201.99119 373.35711,200.52519 C 373.35711,200.07244 376.58568,196.35994 380.53172,192.27519 C 384.47776,188.19044 389.48574,182.93515 391.66058,180.59676 L 395.61482,176.34513 L 390.81508,179.02776 C 382.55262,183.64574 386.98848,179.68163 396.05411,174.3459 C 400.79756,171.55406 405.04861,169.63988 405.5009,170.09216 C 405.95318,170.54445 401.49335,175.77757 395.59017,181.72133 C 384.02244,193.36857 383.91676,193.18274 398.35711,186.58689 C 405.50938,183.31998 419.02232,178.78101 424.10711,177.93751 C 429.25067,177.08426 428.17439,179.38757 419.7558,187.2496 C 415.57509,191.15393 412.37071,194.34838 412.63496,194.34838 C 412.89922,194.34838 415.54988,193.23385 418.52533,191.87164 C 423.83505,189.44077 430.36648,186.87894 445.40742,181.32766 C 460.44039,175.77932 465.95095,177.57515 456.60711,184.97752 C 444.01174,194.9558 442.73066,197.34838 449.98324,197.34838 C 459.92114,197.34838 473.60291,194.32996 479.35711,190.86804 C 487.22432,186.13486 492.45294,184.73122 496.29261,186.32166 C 497.96411,187.01402 499.06901,188.00552 498.74795,188.525 C 497.99821,189.73811 506.67134,188.82854 525.27543,185.743 C 538.58758,183.53515 542.45988,183.37702 539.72964,185.15275 C 529.07897,192.07988 525.37015,194.69475 525.71151,195.03611 C 526.76272,196.08732 552.37667,188.40696 554.95446,186.26758 C 556.23456,185.2052 558.37976,185.76991 558.33464,187.1574 C 558.32228,187.53744 556.08239,189.42338 553.35711,191.34838 C 550.63183,193.27338 548.39194,195.18588 548.37958,195.59838 C 548.33524,197.07833 554.02844,196.28656 563.89346,193.44083 C 569.41345,191.8485 576.45486,190.23019 579.54103,189.8446 C 584.3795,189.24008 585.42713,189.4184 587.14816,191.13943 C 589.02879,193.02006 589.48231,193.05576 595.00059,191.75748 C 598.22168,190.99966 601.98211,190.40305 603.35711,190.43168 C 605.64223,190.47926 605.6852,190.55681 603.85711,191.33391 C 602.75711,191.80151 598.9662,192.74918 595.43286,193.43985 C 590.37845,194.42785 587.87602,195.61813 583.69699,199.022 C 578.14011,203.54814 576.91116,204.05386 575.80772,202.26846 z M 487.96547,195.08347 C 492.66813,192.79874 492.80807,192.60945 491.41826,190.41308 C 490.63293,189.172 489.93317,189.16817 486.24684,190.38477 C 481.79276,191.85475 476.35711,195.79216 476.35711,197.54856 C 476.35711,199.00034 482.65699,197.66253 487.96547,195.08347 z M 116.35711,192.53194 C 116.35711,191.852 123.96641,186.07906 133.73433,179.34838 C 134.93161,178.52338 140.22855,174.61152 145.50531,170.65535 C 154.63031,163.81402 156.663,161.62045 156.8053,158.46096 C 156.88904,156.60167 161.35711,154.90311 161.35711,156.73056 C 161.35711,160.464 154.27987,167.01653 136.49367,179.75061 C 126.04777,187.22938 117.24372,193.34838 116.92912,193.34838 C 116.61452,193.34838 116.35711,192.98098 116.35711,192.53194 z M 117.35711,186.4492 C 117.35711,184.04642 120.32196,179.61286 124.38115,175.94563 C 132.26043,168.82717 152.46054,157.11847 154.07569,158.73362 C 154.40047,159.0584 152.45915,160.29132 149.76165,161.47346 C 138.52381,166.39827 124.74065,176.66266 120.10711,183.55735 C 118.59461,185.80794 117.35711,187.10928 117.35711,186.4492 z M 301.35711,180.34838 C 302.18211,179.81522 303.53211,179.379 304.35711,179.379 C 305.69044,179.379 305.69044,179.48671 304.35711,180.34838 C 303.53211,180.88153 302.18211,181.31775 301.35711,181.31775 C 300.02378,181.31775 300.02378,181.21004 301.35711,180.34838 z"
       id="path2703" />
  </g>
</svg>
