<svg id="svg" xmlns="http://www.w3.org/2000/svg" xmlns:xlink="http://www.w3.org/1999/xlink" width="400" height="111.88118811881189" viewBox="0, 0, 400,111.88118811881189"><g id="svgg"><path id="path0" d="M322.164 3.581 C 310.348 7.772,304.191 19.250,308.381 29.277 C 309.807 32.691,309.787 32.766,307.143 33.781 C 302.959 35.389,289.171 37.621,283.416 37.622 C 280.171 37.623,278.218 38.050,278.218 38.758 C 278.218 40.293,295.020 39.283,305.125 37.140 C 312.540 35.568,312.825 35.580,316.815 37.615 C 319.064 38.763,324.709 40.251,329.360 40.922 L 337.815 42.143 330.246 47.556 C 326.082 50.533,321.879 54.306,320.905 55.940 C 319.930 57.574,316.827 60.141,314.009 61.644 C 306.537 65.631,299.010 71.262,299.010 72.865 C 299.010 76.226,306.373 73.260,315.490 66.226 C 322.779 60.602,331.807 59.391,333.801 63.768 C 336.202 69.037,345.754 67.413,353.747 60.377 C 356.619 57.849,359.786 56.137,362.868 55.446 C 367.991 54.298,369.558 54.757,367.125 56.693 C 366.277 57.368,362.857 60.063,359.524 62.682 C 350.785 69.549,352.290 72.452,361.386 66.271 C 368.799 61.234,370.042 60.996,373.544 63.942 C 377.595 67.351,394.513 65.470,395.849 61.462 C 396.189 60.442,395.707 60.268,393.944 60.776 C 386.834 62.827,377.775 62.503,374.930 60.097 L 372.137 57.735 377.295 53.097 C 384.122 46.960,383.243 46.625,370.053 50.336 C 363.925 52.061,358.381 53.470,357.733 53.468 C 357.086 53.467,354.453 55.286,351.883 57.510 C 346.797 61.912,343.824 63.366,339.913 63.366 C 336.519 63.366,338.179 61.339,343.559 58.913 C 347.683 57.054,348.903 54.455,345.653 54.455 C 344.623 54.455,341.838 55.337,339.465 56.414 C 336.970 57.546,333.060 58.363,330.198 58.350 L 325.248 58.328 331.390 52.598 C 342.357 42.366,343.317 41.932,358.801 40.174 C 385.525 37.142,390.755 38.083,390.354 45.849 C 390.080 51.153,391.336 51.833,393.539 47.574 C 399.452 36.139,387.961 33.538,352.561 38.299 L 348.192 38.887 356.274 31.765 C 363.360 25.521,366.095 21.782,363.575 21.782 C 363.145 21.782,357.958 25.807,352.049 30.726 L 341.305 39.671 335.257 39.048 C 328.556 38.359,322.737 37.109,318.488 35.446 L 315.689 34.350 319.973 31.684 C 340.562 18.869,342.310 -3.564,322.164 3.581 M331.485 6.139 C 335.935 10.589,320.736 31.765,314.007 30.490 C 311.966 30.103,309.483 22.592,310.309 19.301 C 312.197 11.780,327.570 2.224,331.485 6.139 M93.069 13.695 C 86.789 16.188,76.510 22.341,64.106 31.033 C 55.202 37.272,51.547 39.143,41.766 42.472 C 27.613 47.289,16.832 52.024,16.832 53.424 C 16.832 54.838,16.796 54.846,25.469 51.367 C 29.704 49.669,36.818 47.033,41.279 45.509 L 49.389 42.739 49.695 45.372 C 50.336 50.903,53.763 51.133,70.863 46.796 C 79.264 44.665,86.139 43.052,86.139 43.211 C 86.139 46.327,74.144 51.843,59.545 55.441 L 43.544 59.385 41.458 57.300 C 36.140 51.981,15.349 56.969,7.262 65.504 C 1.898 71.166,2.380 75.632,8.663 78.483 C 21.677 84.387,42.480 78.491,67.089 61.923 C 80.301 53.028,84.614 51.419,108.230 46.575 C 118.888 44.389,118.519 44.256,115.920 49.352 C 113.417 54.258,110.674 56.344,95.545 64.852 C 79.417 73.920,74.071 77.901,74.452 80.558 C 75.320 86.609,90.932 78.750,108.385 63.478 C 116.507 56.371,142.574 43.802,142.574 46.993 C 142.574 49.995,132.468 60.463,124.488 65.726 C 114.995 71.988,111.387 75.501,112.220 77.672 C 113.906 82.067,122.106 77.753,133.435 66.510 C 144.657 55.374,164.954 42.646,169.827 43.689 C 177.471 45.327,191.076 44.104,191.874 41.708 C 192.238 40.613,191.000 40.440,185.520 40.821 C 181.776 41.081,175.907 40.876,172.477 40.364 C 166.257 39.437,166.224 39.444,160.100 43.361 C 152.125 48.463,144.554 52.780,144.554 52.226 C 144.554 51.986,145.264 50.367,146.131 48.629 C 149.919 41.035,145.306 40.981,128.626 48.424 L 118.144 53.101 120.446 49.075 C 125.893 39.551,125.048 39.328,103.305 44.564 C 84.641 49.058,84.957 49.059,89.619 44.540 C 96.708 37.668,95.788 37.542,75.370 42.574 C 47.341 49.483,44.719 44.961,71.394 35.716 C 86.110 30.617,96.059 25.597,101.264 20.645 C 108.570 13.695,103.628 9.503,93.069 13.695 M99.010 16.832 C 99.010 19.773,89.346 25.641,75.413 31.159 C 63.753 35.777,63.457 35.389,73.560 28.721 C 87.158 19.746,99.010 14.209,99.010 16.832 M118.042 20.353 C 116.832 21.201,115.842 22.815,115.842 23.941 C 115.842 26.873,125.808 26.117,128.981 22.944 C 132.517 19.408,129.666 17.834,125.726 21.149 C 124.018 22.586,121.897 23.762,121.013 23.762 C 118.928 23.762,120.629 22.094,123.185 21.631 C 124.229 21.442,125.269 20.730,125.496 20.050 C 126.093 18.256,120.724 18.474,118.042 20.353 M247.335 24.716 C 239.819 28.523,231.872 33.997,222.311 41.952 C 215.911 47.277,213.773 48.515,210.974 48.515 C 208.291 48.515,207.789 48.251,208.713 47.327 C 210.339 45.700,210.208 43.564,208.483 43.564 C 207.703 43.564,203.265 47.084,198.622 51.386 C 182.279 66.527,179.421 68.299,165.637 71.847 C 156.886 74.100,154.762 71.340,161.543 66.528 C 164.039 64.757,163.960 61.990,161.434 62.651 C 160.371 62.929,159.338 62.667,159.139 62.070 C 157.906 58.372,145.809 63.304,139.204 70.197 C 133.781 75.858,139.374 78.320,148.375 74.236 C 153.552 71.887,154.455 71.816,154.455 73.762 C 154.455 75.722,161.940 75.762,169.337 73.844 C 172.314 73.071,174.841 72.531,174.952 72.642 C 175.271 72.961,159.394 85.493,154.398 88.866 C 148.821 92.631,146.905 94.826,148.129 96.050 C 149.743 97.664,158.405 91.731,172.277 79.511 C 179.629 73.035,187.785 66.269,190.402 64.476 C 193.019 62.682,197.920 58.658,201.293 55.532 C 206.122 51.058,207.906 49.971,209.683 50.420 C 212.561 51.147,201.515 62.379,193.564 66.810 C 188.427 69.674,183.168 74.035,183.168 75.433 C 183.168 78.685,191.787 75.081,199.910 68.430 C 202.816 66.052,203.843 65.555,202.975 66.948 C 199.793 72.052,206.567 74.064,215.874 70.781 C 219.659 69.445,220.294 69.445,221.770 70.781 C 225.420 74.084,236.503 71.884,249.745 65.226 C 259.631 60.255,259.546 60.877,249.545 66.688 C 242.750 70.636,239.604 73.481,239.604 75.677 C 239.604 76.683,246.400 76.266,247.046 75.221 C 248.063 73.576,261.578 64.356,262.973 64.356 C 263.674 64.356,264.835 65.582,265.552 67.079 C 266.342 68.731,268.166 70.227,270.187 70.883 L 273.519 71.963 267.785 76.635 C 264.631 79.204,260.787 81.959,259.243 82.758 C 256.137 84.364,255.456 87.131,258.168 87.125 C 260.750 87.119,265.188 84.127,272.088 77.739 C 278.005 72.261,278.628 71.951,287.127 70.246 C 300.765 67.510,309.942 61.787,307.288 57.673 C 304.551 53.432,293.030 56.613,280.894 64.961 C 274.735 69.198,270.739 69.411,269.050 65.594 C 268.388 64.097,267.172 62.347,266.349 61.707 C 265.049 60.696,265.210 60.168,267.574 57.693 C 274.549 50.391,270.850 50.948,253.483 59.813 C 231.242 71.167,221.512 73.197,229.796 64.757 C 235.714 58.726,234.501 58.655,222.616 64.332 C 207.957 71.334,204.168 71.942,207.573 66.746 C 208.802 64.870,208.924 63.974,208.068 63.117 C 204.666 59.715,215.201 51.860,226.450 49.411 C 246.554 45.034,266.421 30.118,261.896 22.796 C 260.670 20.813,253.060 21.816,247.335 24.716 M258.572 26.300 C 257.407 32.624,245.307 41.122,231.331 45.432 C 222.217 48.242,220.480 48.129,224.257 44.970 C 242.144 30.014,259.642 20.493,258.572 26.300 M104.578 38.156 C 104.242 39.033,104.635 39.925,105.505 40.259 C 107.442 41.002,108.326 40.108,107.579 38.162 C 106.828 36.203,105.329 36.200,104.578 38.156 M66.832 58.027 C 46.650 73.599,17.009 82.081,8.785 74.639 C 3.145 69.535,19.820 58.418,33.119 58.417 C 41.794 58.416,41.103 59.261,27.462 65.324 C 19.557 68.838,17.327 70.259,17.327 71.782 C 17.327 76.242,27.471 73.697,37.826 66.640 C 43.251 62.942,46.506 61.608,55.647 59.336 C 68.721 56.086,69.459 55.999,66.832 58.027 M81.188 59.901 C 81.188 62.604,82.115 63.034,83.960 61.188 C 85.782 59.366,85.374 57.426,83.168 57.426 C 81.716 57.426,81.188 58.086,81.188 59.901 M303.960 59.364 C 303.960 60.803,296.114 65.040,291.089 66.315 C 288.639 66.936,285.743 67.689,284.653 67.987 C 280.852 69.028,285.257 65.694,292.574 61.991 C 299.380 58.546,303.960 57.490,303.960 59.364 M155.446 65.334 C 155.446 66.438,148.763 70.865,144.854 72.352 C 142.503 73.246,142.399 73.185,143.664 71.649 C 147.394 67.121,155.446 62.805,155.446 65.334 M100.990 65.797 C 100.990 66.526,82.919 78.218,81.792 78.218 C 79.845 78.218,83.847 75.142,92.160 70.250 C 100.845 65.138,100.990 65.065,100.990 65.797 M124.714 69.848 C 124.015 70.690,122.067 72.287,120.385 73.396 C 118.039 74.942,118.249 74.589,121.287 71.879 C 125.514 68.109,126.781 67.358,124.714 69.848 M235.996 92.131 C 218.854 93.734,209.153 96.940,203.085 103.008 C 197.650 108.443,199.541 109.700,206.053 104.983 C 224.634 91.523,290.940 93.067,293.732 107.024 C 294.449 110.610,296.040 109.778,296.040 105.817 C 296.040 97.204,284.037 92.042,263.861 91.978 C 259.505 91.964,253.490 91.802,250.495 91.618 C 247.500 91.435,240.975 91.665,235.996 92.131 " stroke="none" fill="#000000" fill-rule="evenodd"></path></g></svg>