<?xml version="1.0" encoding="UTF-8" standalone="no"?>
<svg
 xmlns="http://www.w3.org/2000/svg"
 version="1.0"
 width="492"
 height="109">
<path d="m 148.155,66.854 c -6.657,-2.081 -12.736,-2.289 -19.591,0 -1.646,0.46 -1.183,-1.383 -1.836,-2.006 -2.646,2.235 -8.172,1.327 -11.02,3.343 -1.26,-0.184 -0.576,-2.49 -1.836,-2.675 -2.969,-0.122 -4.495,1.332 -4.898,4.012 1.55,4.218 8.542,0.992 10.408,-0.669 3.838,3.049 11.425,0.496 15.305,-0.668 4.334,2.548 11.081,2.564 13.468,-1.337 z m -62.446,8.691 c 1.618,-5.363 5.559,-8.191 6.734,-14.039 -2.878,-0.885 -6.484,-0.432 -6.734,3.343 1.73,0.553 1.586,-0.942 3.061,-0.669 -2.064,4.208 -6.794,5.506 -7.959,10.697 1.841,1.487 2.137,0.788 4.898,0.668 z M 184.275,54.82 c -6.16,4.27 -14.111,12.166 -17.142,22.062 5.355,4.185 5.394,-5.155 10.407,-5.348 2.221,0.026 1.968,2.754 3.673,3.343 10.491,-5.608 20.767,1.917 30.611,-1.337 -0.716,-3.419 -7.552,-0.751 -6.122,-4.681 -4.021,1.213 -5.922,0.632 -9.795,2.006 -1.691,0.286 -0.575,-2.492 -1.837,-2.674 -2.937,0.804 -5.248,2.292 -8.571,2.674 -2.055,-0.61 -0.303,-1.243 -0.612,-3.343 -2.391,0.509 -5.042,0.734 -4.897,4.012 -0.55,-1.406 -1.698,-2.157 -2.449,-3.343 9.581,-8.269 22.6,-16.311 25.713,-29.416 -7.294,3.849 -15.574,10.179 -18.979,16.045 z m 14.693,-10.028 c -4.165,7.931 -11.17,12.761 -17.754,18.05 5.065,-6.947 11.454,-12.449 17.754,-18.05 z m -31.222,28.079 c -2.175,-2.295 0.036,-5.613 0.612,-8.691 -2.529,-2.395 -5.625,5.18 -8.571,6.686 4.677,-14.28 19.108,-17.908 25.713,-30.084 -11.281,0.849 -18.808,11.536 -25.713,19.388 -3.837,1.381 -10.18,0.026 -10.408,5.348 3.322,0.73 4.071,-1.349 6.734,-1.337 -1.083,3.194 -5.369,5.976 -3.061,10.697 3.388,0.356 4.055,-2.258 6.122,-3.343 2.221,1.586 2.604,5.18 6.122,5.348 -1.006,-1.902 2.354,-0.518 2.45,-4.012 z M 112.034,48.135 c -7.275,-0.483 -23.688,3.239 -31.835,3.343 8.317,-14.101 30.1,-17.039 31.835,-36.101 -11.967,3.921 -16.862,25.712 -31.223,20.725 -3.673,-1.275 -5.537,-7.24 -11.02,-3.342 -1.35,3.266 3.298,5.143 4.285,8.022 2.865,-2.124 7.188,1.041 9.795,-0.669 -1.948,4.34 -8.79,9.116 -12.856,13.371 -15.526,1.342 -34.818,4.336 -51.424,6.016 -4.271,0.433 -8.852,0.156 -11.632,3.343 0.081,3.73 3.479,1.198 4.898,0.669 19.095,-1.655 36.558,-5.094 55.099,-7.354 -4.194,7.01 -13.556,14.165 -19.59,21.394 -5.004,1.402 -11.766,3.839 -9.795,10.696 5.556,1.868 13.146,-8.269 18.366,-13.37 7.673,-7.498 12.338,-12.116 17.142,-19.388 11.337,-1.878 26.703,-1.896 37.955,-7.355 z m 69.18,14.708 c 6.584,-5.289 13.589,-10.119 17.754,-18.05 -6.3,5.6 -12.689,11.102 -17.754,18.05 z m 239.374,10.028 c -0.045,-4.606 4.647,-3.331 4.285,-6.686 14.289,-7.572 27.211,-16.637 29.386,-37.438 -1.047,0.029 -1.586,-0.497 -1.837,-1.337 -6.138,4.216 -9.424,11.547 -15.305,16.045 -0.173,1.08 0.578,1.151 0.612,2.006 -0.492,-0.354 -0.994,-0.698 -1.837,-0.668 -0.104,2.482 -1.203,1.667 -3.061,3.342 -6.067,5.471 -10.994,16.707 -17.143,21.394 -2.04,1.556 -5.274,2.519 -7.958,2.674 4.209,-13.712 -21.661,-9.53 -20.815,2.006 -2.869,-1.924 1.802,-3.324 0,-6.017 -6.867,0.474 -9.299,5.639 -14.081,6.686 0.479,-3.266 4.544,-2.615 4.285,-6.686 -7.361,0.192 -9.911,5.005 -15.917,4.011 1.931,-1.902 2.869,-4.889 2.449,-9.359 -7.381,-1.994 -9.323,10.161 -11.633,12.034 -1.886,-0.667 0.683,-1.808 1.225,-2.006 -3.367,-1.325 -5.871,-0.123 -10.407,-0.669 0.451,-3.741 4.92,-3.096 5.51,-6.686 -1.871,-1.389 -4.724,0.771 -7.959,0 -0.428,-0.581 1.016,-1.558 0,-4.011 -1.224,0 -2.448,0 -3.673,0 -0.907,1.771 -2.247,5.583 -1.225,7.354 -3.115,2.409 -9.82,2.885 -11.632,4.681 -1.724,-5.681 5.748,-7.087 7.347,-11.365 -6.379,-0.884 -9.463,7.446 -17.143,7.354 0.391,-3.363 2.962,-4.343 2.449,-8.691 -1.225,0 -2.449,0 -3.673,0 -3.243,4.927 -3.764,12.827 -10.408,14.04 -0.804,-0.236 -0.963,-1.178 -1.836,-1.337 0.178,-5.47 8.357,-5.456 7.346,-10.028 -5.214,1.6 -11.791,4.728 -11.632,10.028 0.832,5.527 14.035,5.293 12.244,-0.669 1.982,2.254 6.235,-0.947 8.571,-0.669 2.991,8.075 15.539,1.651 19.591,-1.337 -0.477,1.486 -1.286,2.607 -1.225,4.68 6.101,2.632 16.596,-2.249 19.591,2.675 4.332,-1.21 6.341,-2.292 9.795,-3.343 1.663,-0.479 -0.438,3.152 1.225,2.674 4.914,1.585 8.9,-1.511 14.081,-1.337 9.725,0.326 20.491,5.259 29.998,-1.337 1.444,0.566 -1.687,1.646 -0.612,4.011 6.165,3.097 13.42,-4.423 17.754,-5.348 1.184,2.491 -2.205,4.943 -1.836,8.69 6.501,1.254 10.361,-3.483 16.529,-6.017 14.663,-6.023 32.551,-9.616 45.916,-18.051 -19.005,4.651 -36.197,11.281 -53.875,17.382 -0.055,-4.294 3.224,-4.948 3.062,-9.359 -6.71,0.915 -9.881,5.697 -16.528,6.684 z m -15.305,-4.012 c -1.905,4.701 -6.087,4.467 -11.02,4.681 -0.513,-5.909 8.17,-10.654 11.02,-4.681 z m 45.303,-32.758 c -3.306,8.548 -9.423,16.197 -15.306,21.393 -1.692,1.496 -4.666,4.049 -6.734,3.343 8.349,-6.706 14.147,-19.76 22.04,-24.736 z M 273.045,88.916 c 0.552,-2.072 2.557,-2.557 2.449,-5.349 -2.497,1.145 -2.39,3.001 -2.449,5.349 z m -10.407,13.371 c 1.431,-1.768 1.479,-3.056 4.285,-2.006 -0.476,-0.595 -0.658,-1.51 -0.612,-2.674 -0.718,0.107 -0.517,1.219 -0.612,2.005 -0.595,-0.018 -0.475,-0.818 -0.612,-1.337 -0.746,1.415 -2.304,1.942 -2.449,4.012 z M 104.076,64.849 c -5.019,1.428 -7.892,5.198 -10.408,9.359 4.362,0.432 9.644,-3.659 10.408,-9.359 z M 342.21875,10.03125 c -17.007,0.557 -32.3045,9.676 -45.3125,19.375 -11.138,8.305 -22.31475,17.40775 -30.59375,26.09375 -3.39,3.556 -4.83925,10.76825 -11.03125,10.03125 C 266.04825,52.09525 280.355,40.704 281,17.375 c -16.386,3.277 -22.86975,17.35975 -30.59375,30.09375 -0.904,5.917 -6.21675,12.6405 -1.84375,20.0625 -5.136,6.426 -11.9125,11.0565 -21.4375,12.6875 -3.025,-3.309 -2.2195,-8.1075 -3.0625,-12.6875 -1.948,0.547 -4.51,0.4025 -6.125,1.3125 -0.259,14.812 7.915,17.59275 19,12.71875 7.382,-3.247 12.67275,-13.47625 18.96875,-12.03125 -0.447,4.051 -5.32175,14.40575 -1.84375,20.71875 9.525,-1.408 11.446,-11.132 18.375,-15.375 3.629,13.302 -10.36275,18.399 -13.46875,28.75 0.627,0.653 1.24575,1.315 1.84375,2 9.23,-3.96 12.83425,-14.0615 16.53125,-24.0625 1.847,-0.881 3.30075,-2.154 6.09375,-2 16.059,-16.508 35.54675,-29.857 50.21875,-48.125 4.174,-5.196 8.57125,-11.77925 9.78125,-19.40625 -0.572,-0.49 -0.92175,-1.21 -1.21875,-2 z m -3.65625,2 c -5.979,18.447 -23.41975,27.90925 -32.46875,40.78125 -10.126,5.212 -17.443,19.25525 -28.75,25.40625 -0.783,-2.042 -0.21375,-5.59525 -2.46875,-6.03125 l 0,1.34375 c -2.04,-0.92 3.10225,-4.91475 5.53125,-5.34375 1.722,-4.138 6.9635,-4.39075 7.9375,-9.34375 -13.53,5.161 -21.532,15.28575 -30,22.71875 -1.676,-5.077 1.67475,-8.34675 2.46875,-12.71875 5.168,-0.373 9.73975,-1.34625 12.21875,-4.65625 -3.076,-0.238 -5.54875,0.18475 -7.34375,1.34375 0.32,-3.845 2.62825,-6.894 4.90625,-9.375 6.169,-6.718 14.91525,-14.54975 22.03125,-20.71875 12.432,-10.775 28.5105,-18.34225 45.9375,-23.40625 z M 276.96875,23.25 c 0.33694,0.0022 0.65387,0.04725 0.96875,0.15625 -4.073,18.283 -14.94775,29.13125 -25.09375,40.78125 1.84,-14.088 9.39025,-29.10125 17.15625,-36.78125 1.82175,-1.801625 4.6102,-4.17174 6.96875,-4.15625 z M 275.5,83.5625 c 0.107,2.792 -1.91675,3.27075 -2.46875,5.34375 0.058,-2.348 -0.0292,-4.19875 2.46875,-5.34375 z m -9.1875,14.03125 c -0.046,1.164 0.15,2.0925 0.625,2.6875 -2.806,-1.05 -2.8815,0.232 -4.3125,2 0.146,-2.07 1.72375,-2.585 2.46875,-4 0.138,0.519 -2.5e-4,1.32575 0.59375,1.34375 0.096,-0.786 -0.092,-1.92325 0.625,-2.03125 z" />
</svg>
