<?xml version="1.0" encoding="UTF-8"?>
<svg version="1.1" xmlns="http://www.w3.org/2000/svg" width="326" height="64" >
<path d="M45.367,19.08c-1.416,0.413-2.854,0.619-4.33,0.654c-5.091,0.121-1.323-4.931-0.201-6.104 c1.568-1.641,3.892-2.575,5.979-3.271c3.414-1.137,6.718-2.491,9.57-4.739c0.844-0.666-0.231-1.742-1.06-1.375 c-3.529,1.563-6.413,5.516-8.743,8.376c-8.345,10.243-13.458,23.383-24.53,31.202c-3.908,2.761-8.599,3.871-12.965,1.554 c-7.74-4.107,0.15-12.089,5.271-13.948c1.324-0.48,5.11-0.666,5.772,0.971c1.515,3.745-7.17,10.786-9.262,12.826 c-0.809,0.79,0.43,2.026,1.237,1.238c2.172-2.119,16.542-15.936,5.869-16.953c-6.288-0.6-18.936,8.471-12.464,15.195 c9.338,9.704,21.604-1.576,27.516-9.339c5.934-7.792,10.412-16.537,16.855-23.964c1.716-1.978,3.854-4.551,6.327-5.646 c-0.353-0.458-0.707-0.917-1.06-1.375c-5.792,4.566-15.508,4.287-18.245,12.235c-1.935,5.618,5.912,5.03,8.928,4.15 C46.913,20.452,46.453,18.764,45.367,19.08L45.367,19.08z"/>
<path d="M57.342,36.567c-1.671-2.706-4.722-2.735-7.42-1.775c-2.754,0.98-9.63,5.68-8.581,9.495 c1.821,6.62,16.789-8.543,18.133-10.567c0.636-0.957-0.853-1.766-1.511-0.883c-1.235,1.656-7.855,10.393-3.008,11.375 c2.471,0.502,5.775-1.531,7.895-2.545c1.875-0.896,3.696-1.909,5.504-2.933c0.688-0.39,1.368-0.795,2.046-1.201 c0.642-0.384,3.578-2.683,2.132-1.144c-1.936,2.063-4.236,8.269,0.929,5.98c2.155-0.955,4.014-3.021,5.729-4.541 c0.512-0.453,6.054-4.804,3.944-1.261c-1.01,1.696-3.576,3.869-2.54,6.166c0.771,1.711,2.536,1.189,3.915,0.582 c2.217-0.977,4.093-3.132,5.801-4.745c0.807-0.763,5.505-5.403,4.785-1.979c-0.949,4.509,1.282,5.702,5.733,5.1 c5.941-0.805,11.635-3.693,17.31-5.504c2.67-0.852,6.267-1.342,8.369-3.382c2.467-2.393,0.124-7.265-3.422-5.531 c-3.152,1.54-11.588,9.195-7.586,13.298c4.579,4.691,13.979-3.927,17.402-6.726c0.269-0.22,3.588-2.778,3.531-2.986 c0.266,0.981,1.039,1.896,2.085,2.082c0.795,0.142,1.505,0.232,2.313,0.342c-0.875-0.119-3.011,2.161-3.604,2.625 c-0.837,0.655-3.091,2.084-3.089,3.438c0.001,0.634,0.144,1.028,0.727,1.37c0.298,0.174,0.688,0.244,1.029,0.262 c2.851,0.145,3.44,2.848,3.666,5.182c0.46,4.766-4.206,11.211-9.101,11.818c-3.597,0.447-2.308-8.035,1.566-8.51 c1.105-0.136,1.118-1.887,0-1.75c-5.122,0.628-7.59,7.849-3.63,11.35c1.931,1.707,5.22-0.089,6.766-1.398 c3.964-3.361,6.559-7.263,6.042-12.612c-0.177-1.831-1.396-5.301-3.607-5.659c-2.914-0.471,5.068-4.345,5.068-6.614 c0-1.654-4.145-1.728-4.779-3.141c-1.006-2.239-3.314,0.429-4.282,1.303c-3.266,2.948-6.841,5.618-10.711,7.717 c-1.934,1.048-7.259,2.893-6.27-1.624c0.524-2.399,2.556-4.498,4.26-6.135c1.09-1.047,4.384-3.795,4.691-0.756 c0.183,1.792-1.562,2.295-2.927,2.786c-5.785,2.08-11.704,4.021-17.556,5.901c-2.105,0.677-9.662,3.293-8.465-1.202 c0.353-1.326,0.88-3.363-0.667-4.128c-1.877-0.928-4.512,1.785-5.739,2.803c-0.612,0.508-7.886,6.852-8.054,5.529 c-0.225-1.773,1.961-3.519,2.817-4.955c1.663-2.792-0.243-4.371-2.936-3.214c-1.512,0.65-2.835,1.889-4.095,2.922 c-0.606,0.498-6.253,4.716-6.066,3.93c0.414-1.738,3.847-3.658,3.374-5.379c-0.898-3.264-9.018,2.777-10.408,3.531 c-0.965,0.523-10.407,5.368-9.649,2.374c0.662-2.613,2.678-5.191,4.27-7.328c-0.503-0.294-1.007-0.589-1.511-0.883 c-2.832,4.263-7.2,7.657-11.606,10.166c-0.303,0.173-4.19,2.081-2.964-0.55c0.783-1.679,2.959-3.27,4.32-4.308 c2.098-1.599,6.227-3.756,8.117-0.695C56.423,38.408,57.937,37.53,57.342,36.567L57.342,36.567z"/>
<path d="M154.049,37.577c2.036-1.848,4.011-3.761,5.963-5.696c3.087-3.06,5.803-7.557,10.162-8.765 c1.99-0.552,4.378-0.176,5.959,1.165c2.479,2.102-0.906,5.963-2.03,7.737c-1.344,2.122-2.679,4.25-4.32,6.159 c-1.188,1.598-2.37,0.833-3.547-2.295c0.132-0.672,0.585-1.431,0.988-2.019c0.64-0.933-0.877-1.807-1.512-0.883 c-1.899,2.769-1.788,9.416,3.091,8.088c2.26-0.614,4.002-3.884,5.177-5.628c1.909-2.836,5.09-6.334,4.634-10.022 c-0.594-4.801-7.355-4.678-10.623-3.424c-3.43,1.315-5.771,5.133-8.236,7.661c-2.239,2.3-4.565,4.526-6.943,6.683 C151.974,37.099,153.215,38.333,154.049,37.577L154.049,37.577z"/>
<path d="M186.867,26.943c-2.381,3.525-6.391,6.072-10.487,3.662c-0.147,0.544-0.294,1.087-0.441,1.631 c4.474-0.436,0.399,6.585,3.511,8.67c4.386,2.939,11.354,1.214,16.155,0.43c1.112-0.182,0.639-1.868-0.465-1.688 c-3.618,0.591-7.246,1.078-10.918,0.904c-1.521-0.072-3.789-0.39-4.443-2.06c-0.423-1.078,0.464-3.385,0.404-4.644 c-0.103-2.187-2.188-3.563-4.244-3.363c-0.827,0.081-1.243,1.159-0.441,1.631c4.952,2.913,9.926,0.085,12.882-4.291 C189.012,26.889,187.495,26.014,186.867,26.943L186.867,26.943z"/>
<path d="M258.645,4.832c-8.056,5.162-15.971,10.666-23.319,16.798c-4.584,3.825-8.646,8.235-13.205,12.1 c-3.88,3.288-13.347,11.026-15.08,1.965c-0.212-1.107-1.898-0.638-1.688,0.465c2.674,13.981,19.091-1.975,23.669-6.264 c9.457-8.86,19.588-16.557,30.506-23.552C260.475,5.737,259.598,4.222,258.645,4.832L258.645,4.832z"/>
<path d="M225.89,28.456c-2.092,0.497,0.271-2.32,0.892-2.896c1.717-1.595,4.463-2.154,6.721-2.215 c0.938-0.025,1.91,0.104,2.763,0.509c1.452,0.688,0.579,2.164,0.021,3.179c-1.14,2.075-5.157,5.477-6.702,1.973 c-0.455-1.031-1.962-0.14-1.512,0.883c3.568,8.09,17.036-6.551,7.014-8.181c-3.518-0.572-8.473,0.68-10.58,3.764 c-0.76,1.111-2.167,3.179-0.726,4.359c0.698,0.572,1.745,0.511,2.574,0.313C227.452,29.883,226.986,28.195,225.89,28.456 L225.89,28.456z"/>
<path d="M250.604,33.246c-3.697-3.745-13.524,3.635-10.094,7.718c1.617,1.923,3.938,0.392,5.549-0.777 c1.407-1.021,2.624-2.306,3.777-3.596c1.221-1.367,0.135-1.252,1.801-1.188c10.657,0.408,21.345-4.086,29.19-11.116 c1.585-1.42,4.759-4.24,4.759-6.677c0-1.621-1.71-1.618-2.833-1.143c-6.544,2.771-13.978,9.313-16.696,15.942 c-2.475,6.034,4.608,6.331,8.359,5.123c10.034-3.232,18.406-11.279,26.95-17.185c1.222-0.844,2.454-2.769,0.048-3.029 c-1.997-0.216-4.182,3.258-5.169,4.486c-4.957,6.166-9.046,13.075-13.068,19.866c-0.576,0.973,0.937,1.853,1.512,0.883 c3.526-5.953,7.159-11.851,11.229-17.451c1.19-1.639,2.452-3.229,3.838-4.707c0.321-0.343,0.667-0.658,1.021-0.967 c0.623-0.544,0.325-0.388,0.418-0.329c0.304,0.194,0.479-1.093-0.71-0.263c-1.547,1.08-3.101,2.149-4.639,3.241 c-6.739,4.783-13.19,10.176-20.884,13.391c-1.861,0.777-5.082,2.038-6.903,0.573c-2.341-1.884,1.48-6.364,2.622-7.759 c1.763-2.152,3.879-4.021,6.006-5.801c0.706-0.59,6.979-3.982,7.109-4.701c-0.42,2.322-3.534,4.667-5.18,6.141 c-3.492,3.129-7.655,5.343-11.984,7.063c-4.99,1.984-10.888,3.126-16.277,2.594c-0.306-0.03-0.603,0.19-0.756,0.434 c-0.997,1.586-2.418,2.901-3.801,4.146c-0.473,0.366-0.946,0.731-1.42,1.097c-1.257,1.115-1.806,0.347-1.646-2.305 c0.989-1.217,4.997-4.125,6.634-2.466C250.159,35.288,251.396,34.05,250.604,33.246L250.604,33.246z"/>
<path d="M295.357,26.02c1.157-0.226,2.313-0.308,3.488-0.3c2.992,0.019,0.478,3.058-0.394,3.946 c-1.544,1.574-4.612,3.367-6.907,2.766c0.07,0.533,0.14,1.066,0.209,1.6c3.711-1.654,4.396,1.318,4.854,4.486 c0.306,2.118,2.485,3.067,4.314,3.349c2.021,0.311,3.709-0.075,5.596-0.759c5.138-1.862,9.984-3.494,15.545-3.422 c1.129,0.015,1.128-1.735,0-1.75c-4.855-0.063-9.308,1.021-13.854,2.672c-4.587,1.666-10.144,3.403-9.969-3.898 c0.099-4.107-5.021-3.236-7.369-2.189c-0.715,0.319-0.471,1.422,0.209,1.6c3.606,0.946,11.496-3.165,11.299-7.474 c-0.162-3.548-5.088-2.78-7.486-2.313C293.785,24.548,294.255,26.234,295.357,26.02L295.357,26.02z"/>
</svg>