<?xml version="1.0" encoding="UTF-8"?>
<svg version="1.1" xmlns="http://www.w3.org/2000/svg" width="232" height="47" >
<path d="M15.232,10.094c4.459-1.368,9.377,0.203,14.018-0.219c-0.206-0.498-0.413-0.996-0.619-1.494 c-3.75,3.167-7.5,6.334-11.25,9.5c-0.874,0.738,0.369,1.919,1.237,1.238c0.837-0.73,1.6-0.237,2.288,1.479 c0.058,1.57-0.913,3.57-1.528,4.911c-1.192,2.599-2.944,4.985-4.695,7.223c-1.571,2.007-3.366,3.971-5.495,5.393 c-1.435,0.958,0.858-3.746,0.707-3.517c1.06-1.61,2.448-3.041,3.78-4.432c5.168-5.393,11.483-9.909,17.766-13.92 c0.948-0.605,0.071-2.121-0.883-1.512c-6.073,3.877-11.903,8.276-17.141,13.225c-0.651,0.615-11.006,12.567-5.571,12.346 c2.957-0.12,5.302-3.178,7.084-5.164c2.968-3.309,5.417-7.149,7.033-11.286c1.425-3.647-0.004-9.576-4.583-5.983 c0.413,0.413,0.825,0.825,1.237,1.238c3.75-3.167,7.5-6.334,11.25-9.5c0.566-0.479,0.125-1.562-0.619-1.494 c-4.915,0.446-9.677-1.193-14.482,0.281C13.692,8.736,14.151,10.426,15.232,10.094L15.232,10.094z"/>
<path d="M41.255,13.059c-2.27-4.618-11.559-1.003-11.635,3.506c-0.103,6.082,11.056-1.264,12.624-2.945 c0.651-0.699-0.218-1.97-1.06-1.375c-1.819,1.286-5.2,4.522-2.006,6.284c2.912,1.605,14.65-7.074,15.692-4.837 c0.422,0.907,1.892,0.262,1.599-0.674c-1.449-4.632-10.69,0.371-10.059,4.652c0.976,6.618,22.151-10.594,23.209-11.426 c-0.413-0.413-0.825-0.825-1.237-1.238c-4.615,4.148-10.096,8.267-13.762,13.303c-0.608,0.835,0.676,1.707,1.374,1.061 c0.719-0.667,1.469-1.295,2.226-1.918c1.453-1.195,4.935-2.311,5.983-3.631c-0.709,0.894-3.36,2.492-2.746,4.038 c2.705,6.806,13.075-8.318,16.412-3.417c0.458-0.354,0.916-0.707,1.374-1.061c-1.38-1.29-3.372-1.098-5.054-0.667 c-1.842,0.472-7.443,3.41-6.958,5.922c0.849,4.403,13.521-3.37,15.013-4.767c-0.413-0.413-0.825-0.825-1.237-1.238 c-0.979,0.993-4.792,4.734-2.471,6.095c2.124,1.244,5.976-1.167,7.819-1.911c1.768-0.715,3.531-1.438,5.338-2.05 c0.757-0.257,1.406-1.661-0.095,0.087c-0.896,1.044-1.966,1.967-2.967,2.904c-0.715,0.671,0.245,1.961,1.06,1.375 c1.066-0.768,2.147-1.514,3.234-2.251c0.72-0.488,1.453-0.956,2.19-1.418c1.161-0.729,1.157-2.037,0.822-1.059 c-0.905,2.638,4.313,0.924,4.981,0.619c0.891-0.407-0.353,0.52-0.652,1.033c-0.288,0.492-0.323,1.189,0.104,1.616 c1.768,1.768,7.77-2.254,9.07-2.916c-0.353-0.458-0.707-0.916-1.06-1.375c-4.329,3.405-8.728,6.902-12.485,10.941 c-2.19,2.355-1.949,5.001,1.78,3.883c8.835-2.649,16.748-11.325,23.208-17.423c2.349-2.218,4.935-5.367,8.344-5.772 c4.576-0.544,7.623,2.018,12.089,0.121c-0.353-0.458-0.707-0.916-1.06-1.375c-2.235,1.88-4.349,3.897-6.429,5.945 c-1.724,1.698-3.348,3.489-4.946,5.305c-0.74,0.868-1.534,1.683-2.382,2.443c0.612-0.585-5.089,3.855-3.869,1.367 c0.495-1.009-1.014-1.896-1.511-0.883c-1.371,2.796,0.579,4.581,3.411,3.007c3.801-2.113,6.373-5.68,9.328-8.778 c2.404-2.521,4.969-4.926,7.635-7.168c0.831-0.699-0.229-1.728-1.06-1.375c-5.291,2.247-10.404-2.171-15.528,1.299 c-6.475,4.384-11.62,10.861-17.844,15.642c-2.686,2.063-5.541,3.944-8.582,5.439c-4.349,2.14-0.317-1.542,1.032-2.823 c3.194-3.036,6.644-5.834,10.106-8.557c0.819-0.645-0.222-1.802-1.06-1.375c-1.892,0.964-3.776,1.916-5.761,2.678 c-1.356,0.521-1.124,1.047-0.58,0.384c0.696-0.848,1.805-1.704,1.104-2.9c-0.412-0.703-1.716-0.782-2.363-0.439 c-0.526,0.279-3.058,1.1-3.116,1.267c0.149-0.435,0.19-0.675-0.042-1.091c-0.142-0.255-0.458-0.451-0.755-0.433 c-2.814,0.168-6.035,3.325-8.238,4.91c0.353,0.458,0.707,0.916,1.06,1.375c0.133-0.125,7.289-7.115,2.571-6.213 c-3.716,0.71-7.262,2.705-10.793,4.004c-3.468,1.276-0.458-1.846,0.597-2.916c0.795-0.807-0.415-2.008-1.237-1.238 c-2.766,2.589-6.604,4.137-10.207,5.137c-3.715,1.032,0.977-1.83,1.906-2.447c1.193-0.793,3.944-1.97,5.301-0.701 c0.702,0.655,1.953-0.21,1.374-1.061c-1.618-2.377-4.904-1.46-7.145-0.444c-1.998,0.905-3.647,2.226-5.481,3.41 c-0.715,0.462-3.979,1.113-2.357-0.47c0.512-0.5,1.146-0.965,1.515-1.595c0.912-1.557-1.12-2.353-2.363-2.035 c-3.37,0.861-6.287,3.385-8.792,5.706c0.458,0.354,0.916,0.707,1.374,1.061c3.563-4.895,9.002-8.914,13.488-12.947 c0.857-0.771-0.374-1.917-1.237-1.238c-4.423,3.481-8.905,6.907-13.705,9.858c-1.584,0.975-4.336,2.977-6.351,2.613 c-1.685-0.305,5.455-7.195,6.456-3.995c0.533-0.225,1.066-0.449,1.599-0.674c-1.29-2.772-4.671-0.94-6.697,0.061 c-1.731,0.855-3.383,1.87-5.118,2.726c-1.351,0.665-2.778,1.24-4.29,1.388c-1.848,0.182,1.944-3.336,1.79-3.227 c-0.353-0.458-0.707-0.916-1.06-1.375c-1.878,2.016-4.53,3.266-7.059,4.257c-0.325,0.105-0.65,0.212-0.975,0.317 c-1.098-1.681-0.67-2.807,1.284-3.378c1.58-0.99,4.538-1.568,5.488,0.364C40.242,14.954,41.751,14.067,41.255,13.059 L41.255,13.059z"/>
<path d="M142.844,17.232c1.265-7.628-9.637,0.217-11.3,1.746c-0.831,0.764-2.375,2.954-0.276,3.24 c4.403,0.6,9.657-2.938,12.851-5.475c-0.413-0.413-0.825-0.825-1.237-1.238c-1.115,1.111-3.56,3.445-2.507,5.242 c1.56,2.662,7.171-1.097,8.703-1.944c4.695-2.596,0.534-0.516,2.919,0.882c2.737,1.604,8.059-2.343,10.07-3.555 c-0.294-0.504-0.589-1.008-0.883-1.512c-4.503,3.318-11.216,7.042-14.064,11.939c-0.569,0.978,0.944,1.857,1.511,0.883 c2.673-4.597,9.236-8.216,13.436-11.311c0.887-0.653,0.105-2.107-0.883-1.512c-0.769,0.463-8.113,3.67-8.123,3.743 c0.165-1.226,1.36-1.782,0.41-2.932c-0.2-0.242-0.565-0.29-0.852-0.226c-1.97,0.443-3.759,1.719-5.505,2.685 c-2.924,1.616-6.491,2.336-2.996-1.146c0.82-0.817-0.376-1.922-1.237-1.238c-2.367,1.881-4.679,3.193-7.516,4.203 c-0.672,0.239-3.644,1.592-2.584,0.507c0.399-0.409,8.902-6.625,8.375-3.448C140.973,17.871,142.659,18.344,142.844,17.232 L142.844,17.232z"/>
<path d="M161.75,18.625c1.367-0.037,2.791-0.661,4.021-1.183c5.774-2.449,11.041-5.997,16.171-9.562 c0.916-0.637,0.068-2.137-0.883-1.512c-2.571,1.69-5.085,3.468-7.548,5.311c-1.997,1.493-5.776,3.68-6.532,6.251 c-2.047,6.966,17.908-3.22,18.713-3.675c-0.294-0.504-0.589-1.008-0.883-1.512c-1.326,0.822-10.205,6.614-4.682,7.818 c3.865,0.843,12.702-6.578,5.23-7.906c-1.097-0.195-1.578,1.455-0.465,1.688c0.709,0.148,2.637,0.578,2.389,1.549 c-0.241,0.944,1.124,1.569,1.6,0.674c1.954-3.679,3.454,1.705,3.89,1.204c-0.806,0.925-1.785,1.729-2.64,2.61 c-0.793,0.82,0.392,1.969,1.238,1.238c3.074-2.658,11.245-11.451,15.511-8.802c6.384,3.965,15.763,3.361,22.87,3.433 c1.129,0.012,1.128-1.738,0-1.75c-6.162-0.062-12.584-0.062-18.574-1.699c-1.775-0.485-3.139-1.549-4.8-2.225 c-2.341-0.952-5.241,1.409-6.997,2.581c-3.243,2.164-6.3,4.676-9.248,7.224c0.413,0.413,0.825,0.825,1.238,1.238 c1.107-1.145,6.25-4.923,3.123-6.755c-1.71-1.001-5.975-1.343-7.123,0.819c0.533,0.225,1.066,0.449,1.6,0.674 c0.601-2.35-1.599-3.281-3.611-3.701c-0.155,0.563-0.31,1.125-0.465,1.688c4.212,0.749-8.161,7.018-3.275,2.752 c1.232-1.076,2.684-1.978,4.074-2.84c0.957-0.594,0.103-2.069-0.883-1.512c-3.894,2.203-7.854,4.286-12.15,5.584 c-0.09,0.027-4.356,0.786-3.879-0.095c0.6-1.104,1.891-2.02,2.821-2.823c3.214-2.775,6.794-5.198,10.341-7.529 c-0.294-0.504-0.589-1.008-0.883-1.512c-4.758,3.306-9.612,6.52-14.865,8.992c-1.266,0.596-2.979,1.475-4.443,1.514 C160.624,16.905,160.621,18.655,161.75,18.625L161.75,18.625z"/>
<path d="M206.25,22.875c1.652-0.17,4.181-0.584,5.684,0.256c0.986,0.551,1.868-0.961,0.883-1.512 c-1.842-1.029-4.547-0.702-6.566-0.494C205.139,21.239,205.128,22.99,206.25,22.875L206.25,22.875z"/>
</svg>