<?xml version="1.0" encoding="UTF-8"?>
<svg version="1.1" xmlns="http://www.w3.org/2000/svg" width="352" height="103" >
<path d="M70.096,14.927c5.102-2.397,10.228-4.745,15.372-7.052c3.461-1.553,6.936-3.077,10.443-4.52 c1.265-0.521,2.538-1.029,3.836-1.463c1.25-0.418,0.248-1.519-0.362-0.884c-7.461,7.763-16.972,14.107-25.363,20.795 C59.839,33.106,45.614,44.356,31.492,55.734c-10.536,8.489-21.32,16.864-31.19,26.137c0.792,0.222,1.583,0.442,2.374,0.664 c9.771-10.997,21.643-20.403,33.565-28.912c12.306-8.781,25.49-16.027,39.002-22.761c8.633-4.303,17.479-8.732,26.725-11.582 c2.713-0.836,6.489-1.908,3.134,1.545c-3.766,3.876-7.872,7.454-11.863,11.093C80.146,43.857,66.897,55.644,53.412,67.14 c-3.365,2.869-6.741,5.737-10.25,8.43c-0.94,0.722-1.906,1.395-2.921,2.007c-1.725,1.041-0.384,0.98-0.224,0.661 c1.649-3.296,5.422-6.085,8.063-8.509c7.205-6.614,14.892-12.708,22.589-18.731c14.05-10.994,29.625-21.122,46.571-27.033 c1.885-0.657,3.803-1.223,5.746-1.677c0.689-0.161,1.382-0.278,2.085-0.357c1.01-0.113,0.253-0.416-0.294,0.264 c-3.887,4.825-10.128,9.486-15.645,12.284c-1.791,0.909-0.174,2.079,1.214,1.449c5.466-2.481,10.913-5.006,16.341-7.57 c3.47-1.64,6.93-3.301,10.348-5.046c1.521-0.776,3.755-1.599,4.91-2.934c0.856-0.991-0.602-1.476-1.417-1.191 c-2.679,0.938-5.331,3.295-7.44,5.116c-1.058,0.914-4.866,4.617-1.131,4.838c4.954,0.294,10.298-1.78,14.944-3.218 c3.012-0.933,8.552-1.833,10.864-4.228c0.605-0.626,0.067-1.208-0.654-1.27c-2.906-0.246-7.417,3.446-9.486,5.105 c-2.92,2.343-0.496,3.394,2.143,2.998c5.851-0.877,11.627-3.111,17.124-5.217c4.787-1.834,11.095-3.972,14.536-8.026 c1.224-1.442-1.622-1.307-2.375-0.665c-15.48,13.202-30.41,27.074-44.916,41.334c-7.859,7.726-15.428,16.052-24.077,22.918 c-1.82,1.445-4.137,3.865-5.796,1.377c-1.797-2.694-3.836-12.019,2.115-10.165c1.078,0.335,3.421-1.234,1.724-1.764 c-9.156-2.851-9.896,7.036-6.511,13.134c3.411,6.144,12.502-3.216,15.163-5.611c13.505-12.162,25.942-25.512,39.272-37.875 c8.321-7.717,16.766-15.319,25.402-22.684c-0.792-0.222-1.583-0.443-2.375-0.665c-4.832,5.694-15.468,8.216-22.279,10.322 c-1.695,0.524-3.408,0.988-5.134,1.402c-0.686,0.164-1.376,0.296-2.073,0.401c-1.111,0.167-0.424,0.247-0.242,0.042 c1.035-1.161,2.684-1.964,4-2.75c0.757-0.451,1.535-0.866,2.315-1.275c0.92-0.482,1.813-0.346,0.405-0.465 c-0.218-0.423-0.436-0.846-0.654-1.269c-1.249,1.294-5.122,1.93-6.895,2.517c-3.726,1.234-7.504,2.333-11.333,3.198 c-0.247,0.056-3.883,0.446-3.913,0.526c0.371-0.991,1.776-1.943,2.539-2.57c1.346-1.107,4.162-3.434,5.2-3.797 c-0.472-0.397-0.944-0.794-1.417-1.191c-1.024,1.186-3.687,2.123-5.199,2.886c-3.575,1.804-7.2,3.511-10.822,5.217 c-4.79,2.255-9.597,4.475-14.417,6.663c0.405,0.483,0.809,0.966,1.214,1.449c5.863-2.974,13.578-8.207,17.335-13.738 c2.056-3.027-3.302-1.999-4.664-1.726c-6.897,1.384-13.581,4.464-19.86,7.521c-11.64,5.669-22.499,12.885-32.784,20.711 c-9.212,7.01-18.308,14.354-26.743,22.294c-1.788,1.683-6.798,5.376-6.66,8.298c0.109,2.32,5.267-0.7,5.825-1.05 c4.162-2.604,7.881-6.108,11.617-9.268c13.509-11.423,26.709-23.226,39.805-35.118c1.347-1.224,18.208-14.639,14.664-16.957 c-2.576-1.685-8.071,0.837-10.455,1.689c-10.009,3.577-19.588,8.375-29.056,13.168C47.629,42.761,27.369,56.173,9.449,72.737 c-3.156,2.917-6.29,5.917-9.147,9.134c-1.222,1.375,1.61,1.383,2.374,0.664c10.23-9.61,21.425-18.263,32.35-27.058 c14.078-11.334,28.259-22.54,42.391-33.807c8.111-6.467,16.996-12.635,24.343-19.998c2.476-2.481-2.243-1.587-3.453-1.159 C91.351,2.97,84.637,6.226,77.935,9.288c-3.024,1.381-6.043,2.777-9.053,4.19C67.071,14.329,68.709,15.579,70.096,14.927 L70.096,14.927z"/>
<path d="M194.414,28.681c0.809-2.667-3.57-1.074-4.585-0.65c-6.748,2.814-12.42,9.382-17.372,14.543 c-6.224,6.487-12.167,13.244-18.154,19.947c-3.089,3.459-7.284,9.751-11.142,11.753c0.841-0.091,1.682-0.182,2.522-0.272 c5.326-5.947,9.038-13.012,11.548-20.567c1.774-5.34,2.703-10.896,5.353-15.922c1.248-2.365,1.795-2.658,4.055-2.503 c11.93,0.813,23.98,0.824,35.931,0.869c7.374,0.027,14.759-0.042,22.12-0.506c3.748-0.236,8.241-0.314,11.639-2.148 c3.032-1.637-4.397-7.045-5.188-8.406c-2.314-3.982-1.004-9.783,0.254-13.829c1.348-4.336,4.055-6.501,8.67-6.496 c7.53,0.008,15.214,2,22.642,3.049c8.86,1.25,17.61,2.685,26.335,4.699c8.079,1.865,16.112,4.07,23.928,6.847 c0.713,0.253,10.741,4.576,9.174,5.366c-1.212,0.61,1.708,0.243,2.195-0.002c3.893-1.961-6.662-5.587-7.663-5.965 c-10.037-3.787-20.597-6.364-31.068-8.604c-11.728-2.51-23.697-3.939-35.556-5.697c-5.587-0.828-11.671-1.646-16.874,1.089 c-5.795,3.045-7.045,13.345-5.553,18.835c0.688,2.53,2.729,4.204,4.639,5.815c1.436,1.209,3.168,3.122,0.638,3.635 c-6.343,1.287-13.142,1.088-19.581,1.182c-8.171,0.118-16.345,0.011-24.515-0.161c-5.789-0.121-11.579-0.288-17.365-0.525 c-2.469-0.102-5.101-0.746-7.499,0.089c-6.776,2.359-7.868,14.241-9.558,19.833c-2.28,7.546-6.292,14.697-11.548,20.567 c-0.29,0.324,2.222-0.117,2.522-0.272c2.213-1.148,4.185-3.898,5.825-5.683c4.717-5.131,9.312-10.375,13.975-15.556 c4.959-5.511,9.964-10.994,15.274-16.168c2.081-2.026,4.256-3.899,6.563-5.662c0.459-0.35,5.222-4.122,4.571-1.98 C191.421,29.693,194.206,29.368,194.414,28.681L194.414,28.681z"/>
<path d="M255.603,32.792c0.504-0.983,2.09-3.419,1.125-4.431c-0.496-0.521-1.354-0.33-1.939-0.109 c-2.942,1.112-5.885,4.731-8.225,6.715c-5.749,4.875-11.554,9.685-17.403,14.441c-12.575,10.224-25.311,20.764-39.22,29.15 c-3.365,2.029-8.46,5.222-11.927,1.479c-5.353-5.776,14.117-11.559,16.367-12.18c13.122-3.62,26.739-5.666,39.962-8.989 c3.872-0.974,7.732-1.997,11.59-3.027c1.224-0.326,2.446-0.652,3.672-0.969c0.429-0.11,0.858-0.216,1.288-0.319 c2.09-0.503-1.662-0.014,0.051-1.366c-5.485,4.333-12.864,7.1-18.959,10.496c-3.883,2.163-7.745,4.378-11.467,6.812 c-1.811,1.184-4.284,2.601-5.353,4.58c-2.285,4.238,12.313-0.063,12.952-0.296c5.313-1.936,17.288-5.607,19.078-11.978 c0.327-1.165-1.974-0.664-2.383-0.378c-3.185,2.226-11.811,7.177-11.432,11.694c0.284,3.379,11.848,0.027,13.188-0.306 c21.109-5.244,42.385-16.936,55.284-34.771c0.874-1.208-1.985-0.971-2.548-0.408c-7.691,7.695-15.209,15.571-22.625,23.531 c-11.448,12.287-23.372,24.821-32.556,38.949c-0.816,1.255,1.993,1.014,2.548,0.408c9.152-9.977,18.223-20.903,24.431-32.98 c-0.94,0.021-1.881,0.041-2.821,0.063c-2.783,9.742,13.203,6.021,17.232,4.767c10.722-3.336,21.053-8.457,30.712-14.132 c6.82-4.008,14.317-8.806,18.877-15.447c0.902-1.313-2.03-0.84-2.548-0.408c-7.439,6.2-14.854,12.431-22.242,18.691 c-4.861,4.119-9.713,8.25-14.507,12.448c-1.397,1.224-6.013,4.077-6.285,6.163c-0.037,0.286,0.098,0.453,0.319,0.608 c1.755,1.232,6.333-1.987,7.725-2.678c6.379-3.165,12.787-6.258,19.408-8.892c8.14-3.239,16.141-5.059,24.951-4.21 c2.652,0.255,5.43,2.734,8.039,2.027c1.759-0.477,1.311-2.157-0.449-1.68c0.385-0.104-1.372-0.933-1.941-1.153 c-2.619-1.017-5.474-1.172-8.252-1.267c-6.979-0.235-13.549,1.2-20.084,3.568c-6.997,2.535-13.736,5.68-20.407,8.968 c-2.097,1.033-4.181,2.093-6.294,3.094c-2.1,0.993-0.525,1.742,0.657,0.588c13.032-12.72,27.746-23.984,41.729-35.639 c-0.85-0.136-1.699-0.272-2.548-0.408c-3.776,5.5-9.766,9.38-15.297,12.911c-7.582,4.842-15.749,8.771-24.054,12.197 c-2.711,1.119-24.861,10.195-21.828-0.421c0.353-1.234-2.43-0.7-2.821,0.063c-6.133,11.929-15.032,22.667-24.069,32.52 c0.85,0.136,1.699,0.272,2.548,0.408c9.08-13.967,20.892-26.324,32.194-38.488c7.405-7.97,14.935-15.836,22.625-23.531 c-0.85-0.136-1.699-0.272-2.548-0.408c-11.443,15.82-29.433,25.965-47.766,31.781c-4.472,1.419-9.846,3.31-14.62,2.964 c-1.746-0.127,3.905-5.49,4.45-5.952c1.745-1.483,3.598-2.862,5.476-4.175c-0.794-0.126-1.589-0.252-2.383-0.378 c-0.756,2.691-4.9,4.558-7.125,5.768c-3.717,2.021-7.684,3.646-11.692,4.983c-0.799,0.267-7.76,1.751-7.45,1.177 c0.993-1.843,3.955-3.229,5.638-4.309c6.373-4.087,13.11-7.623,19.764-11.223c2.288-1.238,8.831-3.372,10.052-5.929 c0.102-0.213,0.171-0.494-0.027-0.687c-1.729-1.68-9.438,1.672-11.2,2.14c-11.25,2.986-22.572,5.67-33.962,8.064 c-10.144,2.133-22.077,3.467-30.463,10.22c-2.525,2.033-5.125,6.092-1.712,8.639c7.784,5.808,19.371-4.511,25.276-8.665 c13.728-9.659,26.762-20.342,39.668-31.062c3.281-2.726,6.546-5.471,9.793-8.237c1.44-1.227,3.335-3.632,5.152-4.318 c-0.646-0.036-1.293-0.073-1.939-0.109c0.406,0.425-0.898,2.51-1.179,3.058C252.184,33.961,255.109,33.758,255.603,32.792 L255.603,32.792z"/>
</svg>