<?xml version="1.0" encoding="UTF-8"?>
<svg version="1.1" xmlns="http://www.w3.org/2000/svg" width="606" height="87" >
<path d="M8.918,67.543c5.029-1.431,10.008-3.281,14.607-5.776c2.251-1.222,4.907-2.939,5.575-5.576 c0.794-3.134-3.657-3.857-5.679-3.983c-5.942-0.372-12.905,2.022-17.98,4.92c-5.805,3.313-8.168,10.104-0.98,13.242 c7.424,3.241,17.131,1.125,24.593-0.982c10.56-2.981,19.988-9.188,28.513-15.919c8.493-6.706,15.872-14.621,23.568-22.189 c9.574-9.416,19.724-18.186,30.932-25.612c-1.428,0.364-2.855,0.729-4.283,1.092c-7.127,9.668-13.769,19.698-19.896,30.025 c-6.812,11.48-12.92,24.688-22.041,34.568c0.394-0.427,3.404-0.136,4.22-1.02c8.586-9.302,14.444-21.604,20.821-32.435 c6.543-11.113,13.586-21.92,21.242-32.304c-0.408,0.553-3.446,0.537-4.283,1.092c-14.862,9.847-27.522,22.137-40.053,34.717 C54.368,54.883,36.939,70.604,16.86,70.555c-4.44-0.011-11.72-0.923-12.773-6.271c-1.39-7.059,10.583-10.858,15.171-10.851 c6.867,0.013,6.262,5.174,1.704,8.345c-3.888,2.705-8.767,4.407-13.301,5.696C4.623,68.339,7.55,67.932,8.918,67.543 L8.918,67.543z"/>
<path d="M81.13,46.26c-4.359-6.249-11.563-9.039-18.967-8.156C57.846,38.617,43.535,41.8,49.93,48.36 c6.697,6.868,21.446,5.562,29.933,5.229c6.084-0.238,12.149-0.882,18.182-1.679c2.883-0.381,5.755-0.84,8.623-1.321 c1.625-0.272,3.244-0.578,4.862-0.884c0.33-0.063,1.321-0.62,0.642-0.084c-5.271,4.168-10.531,8.402-15.435,13 c-0.403,0.378-3.568,3.042-2.954,3.803c0.589,0.73,4.328-0.771,4.982-1.017c7.507-2.824,14.173-7.74,21.483-11.037 c2.214-0.998,4.596-1.347,6.96-1.883c3.697-0.84-1.294,3.046-2.031,3.707c-2.6,2.336-7.687,5.761-8.117,9.59 c-0.424,3.775,14.025-0.673,15.283-1.035c4.005-1.154,7.953-2.532,11.841-4.031c2.125-0.82,4.763-1.574,6.548-3.053 c-0.536,0.444-3.243,0.21-4.22,1.02c-3.29,2.725-8.883,3.906-12.841,5.2c-2.685,0.877-15.936,5.045-11.017-2.025 c1.99-2.86,5.036-5.151,7.608-7.462c0.094-0.085,3.413-3.118,2.601-3.278c-1.452-0.285-3.253,0.374-4.645,0.69 c-2.584,0.587-5.23,1-7.752,1.835c-4.593,1.52-8.86,3.835-13.099,6.138c-2.544,1.383-5.068,2.806-7.619,4.177 c-1.121,0.603-2.254,1.176-3.411,1.704c3.569-1.632,1.034,0.433,1.927-1.151c2.125-3.771,7.13-6.911,10.383-9.627 c2.663-2.223,5.36-4.406,8.084-6.553c0.223-0.176-1.001,0.036-1.058,0.047c-17.048,3.347-36.906,6.813-54.086,2.45 c-3.232-0.82-6.705-2.415-8.636-5.226c-3.609-5.249,8.429-6.658,11.039-6.363c4.964,0.561,9.962,4.128,12.792,8.184 C77.229,48.062,81.014,46.093,81.13,46.26L81.13,46.26z"/>
<path d="M165.13,52.927c1.337-6.267-9.828-4.731-13.017-3.877c-6.327,1.695-14.671,7.022-14.906,14.415 c-0.146,4.593,14.057-0.672,15.863-1.313c8.168-2.896,14.821-7.932,21.84-12.849c6.681-4.68,14.891-9.404,19.939-15.955 c1.542-2.001,2.319-3.6-0.526-2.913c-3.463,0.837-5.91,3.009-8.71,5.154c-7.081,5.425-13.89,11.226-20.254,17.479 c-1.339,1.316-12.45,12.002-6.437,12.84c6.552,0.913,15.125-5.989,20.315-8.772c4.545-2.438,9.54-4.553,14.67-5.238 c0.628-0.084,1.7-0.463,0.723,0.1c-3.162,1.821-6.201,3.886-8.957,6.28c-1.508,1.31-4.623,4.212-3.033,6.411 c1.05,1.452,4.572,0.551,5.953,0.317c7.243-1.228,14.285-4.073,21.042-6.851c5.46-2.244,14.057-4.787,17.874-9.654 c1.613-2.056-0.198-2.016-1.903-1.654c-3.842,0.815-7.313,2.518-10.731,4.41c-3.534,1.957-8.432,5.16-9.322,9.463 c-0.668,3.229,4.255,3.498,6.261,3.364c6.81-0.454,13.795-3.284,20.118-5.632c4.383-1.627,8.706-3.426,12.965-5.353 c2.007-0.908,4.896-1.84,6.5-3.436c-0.427,0.426-3.315,0.222-4.219,1.02c-2.679,2.361-5.326,4.837-7.667,7.536 c-2.187,2.521-4.957,5.745,0.021,5.753c10.368,0.017,22.973-3.907,31.533-9.642c-1.406,0.34-2.813,0.68-4.219,1.02 c-1.98,1.437-4.036,3.118-5.2,5.308c-1.571,2.953,4.087,2.569,5.449,2.34c8.289-1.398,16.747-4.92,22.829-10.814 c4.375-4.241,8.568-21.624-1.22-21.29c-8.434,0.287-12.394,6.996-12.589,14.862c0.003-0.114,4.33-0.465,4.347-1.164 c0.086-3.491,2.532-16.354,8.051-11.184c3.678,3.445,1.325,13.808-0.868,17.427c-3.369,5.559-13.56,11.762-19.941,11.06 c-5.204-0.573,1.847-6.464,3.362-7.563c-0.593,0.431-3.162,0.312-4.219,1.02c-5.894,3.947-12.806,6.139-19.797,7.115 c-1.312,0.183-6.811,1.317-6.071-1.331c1.217-4.354,7.118-8.56,10.418-11.471c-1.406,0.34-2.813,0.68-4.219,1.02 c-2.12,2.107-5.986,3.196-8.662,4.371c-5.883,2.583-11.911,4.938-18.069,6.781c-3.703,1.107-13.329,2.152-9.677-4.538 c1.976-3.62,6.507-6.054,9.961-7.967c4.164-2.305,3.714-0.815,1.453,1.301c-3.34,3.126-8.29,4.84-12.415,6.654 c-6.047,2.66-12.708,5.903-19.3,6.793c-6.047,0.816-3.288-4.293-0.578-6.821c2.793-2.605,6.182-4.729,9.506-6.594 c0.094-0.063,0.085-0.097-0.028-0.104c-5.085,0.079-10.527,1.817-15.235,3.566c-4.541,1.688-8.775,3.796-13,6.155 c-1.607,0.897-9.689,6.796-9.758,2.616c-0.04-2.435,3.077-5.373,4.502-6.987c2.729-3.09,5.768-5.915,8.806-8.695 c6.184-5.66,12.708-10.998,19.495-15.92c1.593-0.959,0.866-0.892-2.182,0.202c0.189,0.276-0.585,1.489-0.658,1.631 c-0.794,1.533-1.945,2.724-3.186,3.905c-2.894,2.754-6.176,5.131-9.38,7.503c-6.293,4.659-12.698,9.369-19.281,13.614 c-3.803,2.453-13.369,7.914-17.431,5.426c-2.106-1.289,1.236-6.286,1.982-7.396c3.236-4.81,8.572-8.194,14.394-6.078 c1.591,0.578,2.705,2.304,2.345,3.986C160.864,53.716,164.937,53.833,165.13,52.927L165.13,52.927z"/>
<path d="M352.129,35.261c2.198-3.85,10.628-13.055,14.753-6.647c0.432,0.67,0.208,1.581,0.005,2.271 c-0.208,0.536-0.517,1.012-0.927,1.426c-1.38,1.556-1.096-0.186-0.219,0.268c-2.588-1.338,0.851-5.998,1.934-7.091 C377.606,15.475,391.75,10.424,401.4,0c-0.369,0.399-3.336,0.271-4.219,1.02c-6.195,5.247-10.912,12.301-15.339,19.004 c-6.706,10.153-13.512,20.412-22.275,28.936c-10.321,10.04-25.033,15.201-39.272,13.998c-6.525-0.551-13.209-2.144-19.007-5.233 c-2.736-1.459-7.161-5.807-1.412-5.935c9.163-0.202,17.822,3.1,26.994,1.934c2.712-0.345,5.333-1.061,7.951-1.824 c1.706-0.498,6.76-0.139,9.437,0.064c10.919,0.827,21.793,2.559,32.617,4.16c1.263,0.188,3.459-1.331,4.164-1.227 c-10.833-1.604-21.696-3.271-32.618-4.161c-3.664-0.298-7.434-0.528-11.068,0.166c-2.481,0.473-4.57,1.311-6.782,1.618 c-9.853,1.372-19.418-2.55-29.349-1.826c-4.416,0.321-12.123,2.426-5.997,7.112c8.726,6.676,23.074,7.485,33.49,6.176 c8.97-1.127,17.43-4.686,25.336-8.91c10.286-5.496,17.652-15.339,24.3-24.644C385.656,20.203,391.683,8.23,401.4,0 c-1.406,0.34-2.813,0.68-4.219,1.02c-7.325,7.913-17.35,13.336-26.104,19.483c-3.184,2.235-6.546,4.542-9.043,7.563 c-2.394,2.896-1.531,6.49,2.32,5.73c2.44-0.481,5.19-1.373,6.62-3.531c2.641-3.984-3.695-5.035-6.168-4.691 c-7.181,0.999-13.34,4.398-17.023,10.851C348.178,35.733,351.52,36.329,352.129,35.261L352.129,35.261z"/>
<path d="M394.129,53.261c-0.155-5.784-5.744-5.781-9.956-4.533c-5.964,1.767-12.031,5.354-15.587,10.565 c-4.022,5.896,5.811,4.066,8.364,3.316c7.856-2.308,15.559-6.528,21.115-12.609c-0.32,0.351-3.33,0.406-4.219,1.02 c-3.249,2.241-12.31,7.934-11.063,12.738c1.277,4.929,17.334,0.003,20.062-0.695c5.632-1.439,11.145-3.368,16.565-5.45 c4.284-1.646,9.434-3.446,12.73-6.812c3.864-3.942-5.234-2.73-6.682-2.342c-6.138,1.651-11.51,6.928-14.644,12.321 c-3.521,6.058,5.791,3.367,8.405,2.618c17.228-4.936,34.446-13.243,49.594-22.747c7.271-4.562,13.93-10.338,19.896-16.487 c0.764-0.788,7.45-8.045,3.555-7.296c-3.049,0.586-5.431,1.306-7.525,3.59c-15.279,16.653-32.642,31.069-50.226,45.228 c1.428-0.364,2.855-0.729,4.283-1.092c1.002-1.655,2.846-2.895,4.38-3.991c2.471-1.765,5.229-3.119,7.972-4.396 c3.771-1.757,9.328-4.573,13.584-4.683c3.007-0.076-5.472,6.726-6.021,7.211c-0.827,0.728-5.339,5.084-2.225,5.79 c6.293,1.427,15.415-2.736,21.017-5.054c2.584-1.068,25.894-11.285,23.284-15.38c-0.706-1.109-4.674,0.33-5.55,0.556 c-2.878,0.741-5.572,1.793-6.232,4.97c-0.869,4.183,3.406,7.89,1.844,11.981c-0.966,2.527-5.639,3.679-7.405,3.98 c-0.993,0.169-4.543,1.147-5.514,0.033c-0.964-1.106,5.366-3.078,5.887-3.209c18.306-4.615,37.779-7.601,53.916-18.07 c-0.642,0.417-3.115,0.373-4.219,1.02c-4.976,2.914-9.839,6.13-14.275,9.816c-2.812,2.336-8.105,9.385-0.47,7.651 c6.627-1.504,12.911-4.754,17.644-9.696c1.175-1.228,1.847-2.726,2.513-4.269c0.819-1.901,0.811-1.099-1.505-1.07 c0.798-0.01,1.592,0.018,2.389-0.031c5.437-0.328,10.809-1.461,16.165-2.387c4.764-0.823,1.958,1.042-0.094,2.546 c-2.649,1.942-5.382,3.762-7.946,5.819c-2.95,2.368-6.428,6.997-0.104,6.393c5.962-0.57,11.955-3.158,17.392-5.495 c4.195-1.804,9.97-3.775,13.266-7.075c-1.32,0.37-2.641,0.74-3.96,1.11c-0.585,0.077-0.113,2.034,0.003,2.556 c0.454,2.047,1.891,3.521,3.709,4.455c7.495,3.852,19.26-0.651,26.526-2.958c2.642-0.839-1.594,0.03-2.285,0.25 c-5.693,1.808-17.345,5.581-22.4-0.398c-1.299-1.536-0.584-3.778-1.501-5.092c-0.103-0.047-0.21-0.054-0.323-0.019 c-3.112,0.411-4.704,1.894-7.323,3.359c-3.076,1.722-6.292,3.203-9.518,4.62c-3.446,1.514-7.976,3.965-11.806,3.475 c-5.097-0.652,6.322-9.058,7.291-9.747c0.796-0.566,8.765-5.605,4.781-5.334c-4.885,0.333-9.789,1.75-14.65,2.402 c-2.988,0.401-6.022,0.025-8.947,0.809c-2.151,0.576-2.707,0.889-3.506,2.977c-1.493,3.902-4.51,6.343-7.869,8.637 c-1.424,0.974-7.61,5.512-7.948,1.521c-0.214-2.537,3.788-5.271,5.448-6.651c4.175-3.468,8.845-6.451,13.523-9.192 c-1.406,0.34-2.813,0.68-4.219,1.02c-10.581,6.864-22.889,10.316-35.043,13.217c-6.949,1.657-14.251,2.752-20.947,5.323 c-1.205,0.462-5.625,2.762-2.941,3.355c3.696,0.817,9.126-1.032,12.689-2.082c3.275-0.965,6.987-2.279,8.296-5.707 c0.661-1.731-0.875-4.419-1.422-6.03c-0.758-2.232-1.201-4.479-0.253-6.705c0.379-0.89,3.163-2.658,2.621-0.617 c-0.409,1.544-2.583,2.887-3.762,3.811c-6.008,4.711-13.258,8.084-20.317,10.857c-1.699,0.668-16.158,5.717-11.71-0.791 c2.067-3.025,8.708-5.389,9.314-9.093c0.321-1.963-18.427,4.337-18.99,4.559c-5.281,2.08-13.439,5.09-16.6,10.309 c0.318-0.525,3.521-0.479,4.283-1.092c15.263-12.289,30.664-24.738,44.337-38.822c2.072-2.135,4.023-4.372,6.033-6.563 c0.459-0.5,0.933-0.987,1.466-1.406c1.768-1.387-1.057-0.039-1.311,1.085c-0.867,3.852-6.133,7.674-8.835,10.225 c-4.632,4.371-9.655,8.437-14.977,11.94c-8.774,5.775-18.415,10.338-27.977,14.634c-2.498,1.122-22.652,10.791-23.103,6.24 c-0.314-3.18,4.329-7.167,6.261-9.044c1.387-1.347,2.908-2.548,4.515-3.619c1.348-0.898-0.662-0.438,0.989-0.451 c0.669-0.005,1.328,0.152,1.913,0.476c3.36,1.856-6.56,6.58-7.073,6.824c-8.938,4.244-20.396,8.814-30.453,8.093 c-9.911-0.712,4.808-12.387,7.547-14.277c-1.406,0.34-2.813,0.68-4.219,1.02c-3.649,3.992-8.195,7-12.995,9.438 c-2.454,1.246-10.65,3.983-8.292-1.662c2.165-5.183,16.931-15.229,17.224-4.371C389.782,54.387,394.147,53.893,394.129,53.261 L394.129,53.261z"/>
<path d="M485.474,40.908c-2.631,0.31-5.236,1.075-7.716,1.982c-1.877,0.686-3.538,1.699-4.979,3.083 c-1.323,1.272-2.658,3.553-4.741,3.589c-1.322,0.022-3.329,1.213-4.164,1.227c2.361-0.04,4.837-0.701,7.044-1.493 c1.848-0.664,3.42-1.511,4.853-2.882c1.757-1.681,3.325-3.987,6.002-4.303c1.013-0.119,2.026-0.412,2.993-0.727 C484.892,41.344,486.336,40.807,485.474,40.908L485.474,40.908z"/>
<path d="M56.042,79.455c10.938,2.903,22.57,3.913,33.793,4.909c34.956,3.103,70.258,2.2,105.22-0.244 c27.578-1.928,55.062-5.089,82.42-9.027c7.098-1.021,14.185-2.113,21.266-3.244c1.494-0.239,3.86-0.193,5.206-0.96 c-0.303,0.173-0.606,0.343-0.911,0.514c-1.69,0.948-3.396,1.868-5.109,2.775c-2.145,1.135-4.317,2.211-6.521,3.225 c-0.443,0.203-5.743,2.216-3.686,1.758c2.914-0.649,5.831-1.283,8.749-1.911c3.91-0.84,7.824-1.655,11.747-2.43 c2.641-0.521,6.111-1.728,8.826-1.364c0.858,0.115,1.966,1.725,2.561,2.261c2.067,1.863,4.58,3.116,7.146,4.138 c12.428,4.944,26.78,3.854,39.871,3.156c33.412-1.782,66.754-4.954,100.119-7.416c34.804-2.568,69.877-5.433,104.804-4.639 c1.314,0.03,3.357-1.245,4.164-1.227c-39.935-0.908-80.074,2.723-119.854,5.758c-20.31,1.549-40.609,3.213-60.923,4.703 c-13.553,0.993-27.194,2.205-40.794,2.139c-8.246-0.04-16.981-1.012-24.611-4.289c-2.153-0.925-4.143-2.197-5.881-3.765 c-0.683-0.614-1.388-1.69-2.29-1.996c-1.334-0.453-3.391,0.229-4.721,0.445c-3.418,0.557-6.814,1.261-10.206,1.951 c-5.763,1.174-11.512,2.419-17.25,3.704c-0.452,0.102-4.327,1.333-2.551,1.013c7.715-1.393,14.883-5.728,21.609-9.56 c0.291-0.165-0.664-0.031-0.609-0.04C255.459,78.349,202.702,84.333,149.8,84.999c-25.73,0.323-51.732-0.467-77.204-4.397 c-4.14-0.64-8.336-1.297-12.391-2.373C59.021,77.914,56.639,79.614,56.042,79.455L56.042,79.455z"/>
</svg>