<?xml version="1.0" encoding="UTF-8"?>
<svg version="1.1" xmlns="http://www.w3.org/2000/svg" width="460" height="66" >
<path d="M131.177,36.703c2.012-8.309,7.437-15.999,14.551-20.651c4.413-2.887,9.451-5.014,14.318-6.985 c2.037-0.824,4.106-1.564,6.194-2.246c0.802-0.262,1.614-0.486,2.429-0.703c0.421-0.108,0.845-0.202,1.271-0.28 c0.782,0.145,0.944-0.109,0.485-0.761c-2.696,3.282-8.263,5.299-11.783,7.695c-3.678,2.504-6.984,5.456-10.174,8.546 c-7.905,7.659-14.947,15.118-24.968,20.057c-12.031,5.931-25.68,7.266-38.905,7.176c-5.875-0.04-11.755-0.127-17.621-0.483 c-3.246-0.196-6.998-0.277-9.989-1.729c-2.314-1.122-0.96-3.488,0.664-4.536c4.482-2.891,11.295-3.163,16.397-3.612 c10.139-0.894,20.218,0.017,30.242,1.569c3.18,0.492,6.446,0.987,9.508,2.007c0.874,0.291,0.981-0.687,0.291-0.5 c-0.81,0.22-1.687,0.226-2.519,0.285c-2.766,0.197-5.557,0.141-8.327,0.118C92.03,41.58,80.88,40.58,69.69,40.068 c-11.912-0.544-23.983,0.118-35.792,1.738c-8.52,1.169-19.702,2.347-26.601,8.149c-3.468,2.917-0.308,5.696,2.78,6.785 c8.816,3.111,20.078,1.994,29.252,1.88c27.038-0.339,54.196-2.999,80.873-7.354c1.112-0.182,0.639-1.868-0.465-1.688 C92.27,54.063,64.32,56.662,36.482,56.9c-5.095,0.044-10.192-0.051-15.281-0.319c-3.954-0.208-10.293-0.021-13.406-3.021 c-2.324-2.237,7.016-5.679,7.883-5.991c6.483-2.336,13.457-3.421,20.264-4.27c23.727-2.96,46.941,0.136,70.684,0.133 c0.196,0,12.944-0.231,8.566-2.96c-2.047-1.276-5.153-1.479-7.458-1.901c-4.248-0.777-8.541-1.332-12.831-1.81 c-10.071-1.121-20.354-0.943-30.324,0.945c-3.476,0.659-11.582,2.323-10.547,7.573c0.712,3.61,6.255,3.871,9.045,4.204 c12.058,1.435,24.951,1.425,36.996,0.126c10.423-1.124,20.55-4.224,29.578-9.577c8.822-5.231,15.292-13.1,22.713-20.007 c3.4-3.166,7.162-5.822,11.073-8.313c2.355-1.5,7.401-3.284,8.678-6.055c1.684-3.657-10.92,1.091-11.416,1.28 c-14.197,5.413-27.398,13.554-31.21,29.299C129.224,37.335,130.912,37.8,131.177,36.703L131.177,36.703z"/>
<path d="M152.126,35.636c0.894-4.199-3.618-4.17-6.393-2.958c-5.457,2.385-10.558,7.235-14.09,11.941 c-2.396,3.192-1.196,5.553,2.771,4.678c6.653-1.467,13.088-6.474,17.486-11.551c0.61-0.705-0.218-2.003-1.061-1.375 c-1.587,1.182-15.706,12.953-7.826,13.638c5.452,0.475,11.055-4.931,15.118-7.865c1.973-1.424,4.313-3.478,6.866-3.582 c2.138-0.087-1.604,4.463-1.713,4.588c-1.686,1.941-3.745,3.57-5.738,5.177c0.413,0.413,0.825,0.825,1.238,1.238 c3.152-3.302,6.936-7.67,11.288-9.275c0.487-0.18,1.181-0.166,1.71-0.242c1.039-0.15,0.212-0.978-0.411-0.193 c-2.215,2.787-4.777,5.341-7.163,7.98c-0.754,0.835,0.475,2.073,1.238,1.238c1.349-1.479,2.805-2.851,4.304-4.175 c1.597-1.411,3.342-2.671,5.317-3.494c0.971-0.405,3.208-1.375,2.215,0.245c-0.728,1.187-6.97,7.791-2.191,8.887 c5.504,1.262,11.223-3.096,14.857-6.72c2.555-2.547,1.333-4.617-2.036-3.593c-3.346,1.018-8.539,8.16-4.236,10.771 c3.558,2.159,9.967-1.634,13.059-3.07c3.981-1.85,8.555-3.834,11.915-6.761c0.744-0.647-0.271-1.98-1.061-1.374 c-3.604,2.767-8.064,14.049-12.756,8.786c-0.753-0.844-1.986,0.398-1.238,1.238c6.164,6.913,10.968-5.513,14.878-8.514 c-0.354-0.458-0.707-0.916-1.061-1.374c-1.452,1.265-3.306,2.186-4.967,3.126c-4.84,2.74-10.365,5.938-15.958,6.617 c-3.857,0.47-2.484-3.062-1.221-4.971c0.643-0.97,1.521-1.811,2.481-2.458c1.263-0.852,0.578,0.722,0.043,1.256 c-1.503,1.498-3.353,2.664-5.161,3.751c-2.928,1.76-9.598,2.839-5.474-2.487c0.856-1.105,1.759-2.211,2.32-3.5 c0.428-0.984-0.181-2.054-1.298-2.062c-5.719-0.037-10.369,4.693-13.971,8.637c0.413,0.413,0.825,0.825,1.238,1.238 c0.231-0.257,11.345-11.181,6.699-10.828c-5.98,0.455-10.698,5.998-14.6,10.082c-0.796,0.834,0.377,1.933,1.238,1.238 c2.571-2.075,9.794-6.969,8.551-11.316c-0.737-2.581-4.588-1.064-6.035-0.313c-5.694,2.956-10.895,9.838-17.605,10.383 c-3.457,0.28,3.153-6.397,3.799-6.979c1.35-1.217,2.771-2.371,4.229-3.456c-0.354-0.458-0.707-0.916-1.061-1.375 c-1.997,2.306-4.346,4.313-6.778,6.14c-1.869,1.404-3.904,2.539-6,3.562c-1.067,0.521-7.194,3.307-5.131-0.119 c1.837-3.05,4.908-5.58,7.609-7.83c0.689-0.575,10.99-7.391,10.075-3.089C150.204,36.271,151.892,36.739,152.126,35.636 L152.126,35.636z"/>
<path d="M289.637,8.796c-6.563,3.863-13.055,7.854-19.426,12.024c-7.777,5.09-14.53,11.249-21.6,17.25 c-6.03,5.119-16.659,15.995-25.607,11.433c-5.799-2.957,12.532-13.127,12.779-10.81c0.404,3.781-5.655,7.01-8.563,7.44 c-1.113,0.165-0.639,1.852,0.465,1.688c3.915-0.58,8.149-3.555,9.487-7.422c1.018-2.94-0.725-4.396-3.601-3.75 c-4.079,0.916-12.814,6.095-13.253,10.891c-0.362,3.951,4.462,4.59,7.396,4.636c5.733,0.092,10.546-3.733,14.897-7.015 c6.062-4.572,11.677-9.712,17.436-14.651c9.222-7.908,20.029-14.057,30.471-20.202C291.491,9.735,290.611,8.223,289.637,8.796 L289.637,8.796z"/>
<path d="M278.071,4.513c-2.193,3.64-4.678,7.119-7.296,10.463c-3.851,4.916-9.706,12.469-16.551,12.638 c-6.237,0.153,1.243-5.758,2.708-6.821c3.664-2.66,7.745-4.766,11.817-6.717c3.829-1.835,26.515-10.95,20.753,1.153 c-1.737,3.648-5.599,6.001-8.813,8.15c-2.617,1.75-5.473,3.024-8.512,3.818c-1.749,0.398-3.502,0.418-5.259,0.059 c-2.353-0.381-0.271,0.45,0.15,1.486c0.981,2.413-2.141,6.877-3.291,8.863c-1.713,2.956-4.142,5.349-6.895,7.324 c-1.601,1.148-3.481,1.992-5.253,2.841c-0.222,0.106-5.755,2.766-4.034,0.552c2.99-3.847,7.04-6.795,11.642-8.299 c7.306-2.388,14.497-4.813,21.597-7.797c1.024-0.431,0.575-2.125-0.465-1.688c-7.929,3.332-16.244,5.501-24.173,8.727 c-1.83,0.745-3.425,1.831-4.953,3.07c-1.794,1.454-6.563,4.77-6.36,7.354c0.381,4.839,13.009-3.209,14.291-4.269 c3.256-2.69,14.595-15.523,7.738-19.314c-0.912-0.504-2.659-0.649-3.271,0.396c-1.151,1.964,3.536,2.558,4.219,2.668 c8.103,1.313,19.312-6.164,23.152-13.059c2.743-4.925,0.214-9.022-5.224-9.18c-4.668-0.136-9.662,2.056-13.864,3.836 c-5.546,2.351-10.91,5.09-15.877,8.513c-1.977,1.362-7.798,5.188-5.939,8.36c1.91,3.262,7.4,1.328,9.833,0.035 c8.395-4.461,14.843-14.323,19.641-22.281C280.167,4.427,278.653,3.548,278.071,4.513L278.071,4.513z"/>
<path d="M275.543,38.807c-2.005,1.718-12.066,9.376-9.913,12.648c3.585,5.443,14.983-6.926,17.072-8.783 c-0.413-0.413-0.825-0.825-1.238-1.238c-2.179,2.382-4.897,5.36-5.591,8.595c-1.264,5.898,9.668,1.007,11.242,0.331 c1.034-0.444,0.142-1.951-0.883-1.512c-2.265,0.973-5.702,2.813-8.309,2.313c-1.161-0.224,0.617-3.013,0.895-3.469 c1.093-1.801,2.463-3.468,3.884-5.02c0.765-0.837-0.396-1.986-1.238-1.238c-3.116,2.771-6.236,5.585-9.683,7.946 c-1.175,0.805-5.945,3.088-3.879-0.248c2.165-3.495,5.777-6.432,8.879-9.087C277.64,39.31,276.396,38.077,275.543,38.807 L275.543,38.807z"/>
<path d="M301.137,43.462c-1.446-5.54-6.545-5.013-10.156-1.756c-1.324,1.194-7.818,11.582-1.811,10.4 c5.532-1.089,11.237-5.021,16.24-7.472c8.137-3.985,16.256-8.005,24.391-11.994c5.716-2.803,12.42-5.057,16.661-9.996 c0.967-1.126,2.379-3.356,1.014-4.722c-1.591-1.592-5.017,0.161-6.589,0.922c-6.982,3.377-13.01,9.728-18.541,14.997 c-6.326,6.027-12.526,12.328-18.081,19.082c-0.703,0.855,0.455,2.076,1.238,1.238c3.217-3.443,6.596-6.753,10.157-9.839 c1.31-1.136,2.683-2.191,4.139-3.132c2.777-1.796,3.813,0.141,1.369,2.731c-1.693,1.795-4.515,3.81-4.765,6.538 c-0.506,5.511,8.33,1.461,10.592,0.559c5.483-2.187,11.684-4.606,16.315-8.354c2.529-2.046-1.251-2.386-2.709-1.778 c-3.996,1.665-10.546,5.723-11.942,10.156c-1.176,3.732,2.078,4.385,4.878,3.039c6.445-3.097,12.07-8.222,17.416-12.888 c0.854-0.747-0.385-1.96-1.238-1.238c-1.433,1.213-15.38,14.468-7.454,14.749c4.764,0.17,9.457-5.008,12.786-7.804 c2.419-2.032,4.914-4.405,7.895-5.589c3.864-1.534-0.385,4.443-0.811,4.924c-1.836,2.07-3.964,3.893-6.05,5.701 c0.413,0.413,0.825,0.825,1.238,1.238c3.752-3.798,7.728-7.62,12.223-10.521c3.979-2.567,1.348,0.609-0.129,2.514 c-1.208,1.557-2.465,3.131-3.078,5.028c-1.576,4.884,7.581,2.804,9.315,2.277c3.104-0.941,5.684-3.091,8.447-4.699 c3.279-1.908,6.917-1.695,10.048-4.181c3.203-2.543,0.876-6.328-2.729-4.922c-3.882,1.514-8.239,5.667-9.39,9.729 c-1.374,4.851,5.968,4.049,8.406,3.249c4.803-1.576,11.035-6.405,13.138-11.133c0.332-0.745-0.201-1.392-0.988-1.285 c-1.829,0.248-4.541,4.264-5.634,5.512c-1.326,1.514-4.772,5.306-2.662,7.415c2.879,2.879,8.708-1.146,10.993-2.87 c2.109-1.591,4.547-4.748,7.383-4.884c3.244-0.155-4.801,7.37-5.505,8.026c0.459,0.354,0.917,0.707,1.375,1.061 c1.271-1.927,2.761-3.686,4.358-5.346c1.215-1.263,2.604-2.304,4.13-3.16c2.113-1.186,6.337-0.823,3.514,1.78 c-1.598,1.472-5.422,4.206-4.727,6.765c1.016,3.745,10.389,3.676,13.163,3.565c6.246-0.249,12.429-3.451,17.461-6.929 c2.988-2.065,7.198-5.21,7.87-9.06c0.649-3.723-4.5-3.492-6.722-3.242c-12.824,1.446-22.609,13.909-30.058,23.266 c-0.694,0.874,0.535,2.121,1.238,1.238c6.959-8.745,14.612-18.042,25.47-21.928c1.677-0.6,6.768-2.19,8.248-0.271 c1.128,1.462-2.509,4.75-3.326,5.549c-4.408,4.306-10.358,7.38-16.261,8.98c-2.817,0.764-18.336,0.504-14.22-3.603 c1.66-1.655,5.694-4.092,5.163-6.696c-0.67-3.28-6.939-1.352-8.604-0.418c-3.375,1.894-6.106,5.436-8.211,8.626 c-0.565,0.857,0.67,1.719,1.375,1.061c1.474-1.377,8.31-6.36,7.289-9.293c-0.781-2.244-3.766-1.847-5.472-1.061 c-2.476,1.141-4.624,3.563-6.766,5.178c-1.684,1.271-10.038,4.873-7.139-0.031c0.925-1.564,5.353-7.354,6.739-7.543 c-0.33-0.429-0.659-0.856-0.988-1.285c-1.805,4.055-6.514,7.369-10.212,9.466c-2.212,1.255-10.061,3.033-7.451-1.89 c1.124-2.119,3.174-3.909,5.049-5.348c0.636-0.488,1.324-0.894,2.021-1.288c3.4-1.925,1.154,2.113-0.538,3.13 c-2.332,1.402-5.271,1.314-7.713,2.56c-2.11,1.074-3.984,2.587-6.081,3.7c-1.469,0.78-10.444,3.55-8.795-0.137 c0.352-0.785,8.832-10.729,3.425-9.97c-5.795,0.813-11.791,8.143-15.683,12.08c-0.802,0.812,0.394,1.97,1.238,1.238 c1.94-1.683,11.628-8.772,9.379-12.611c-2.059-3.515-7.6,0.869-9.395,2.247c-2.365,1.815-4.599,3.802-6.905,5.689 c-0.275,0.226-9.705,6.891-8.693,3.052c1.042-3.957,6.223-7.799,9.248-10.358c-0.413-0.413-0.825-0.825-1.238-1.238 c-4.367,3.813-8.833,7.546-13.687,10.73c-1.118,0.733-7.328,4.258-5.455,0.379c1.141-2.361,3.879-4.278,5.922-5.761 c1.749-1.27,3.698-2.482,5.753-3.181c-0.059-0.232-0.116-0.464-0.175-0.696c-0.404,0.327-0.828,0.628-1.271,0.901 c-0.986,0.649-2.039,1.205-3.075,1.769c-4.777,2.597-9.822,4.859-14.955,6.646c-1.228,0.427-2.41,0.728-3.731,0.833 c-2.518,0.202,2.063-5.188,2.007-5.131c1.05-1.036,4.02-3.249,3.925-5.07c-0.128-2.494-2.543-3.3-4.649-2.438 c-6.198,2.534-11.581,9.194-16.059,13.986c0.413,0.413,0.825,0.825,1.238,1.238c7.659-9.314,16.417-17.935,25.486-25.863 c3.997-3.495,9.197-8.605,14.783-9.182c1.418-0.146-1.758,3.616-1.997,3.858c-1.427,1.445-3.193,2.474-4.986,3.383 c-1.407,0.715-2.858,1.355-4.278,2.043c-10.348,5.008-20.634,10.144-30.958,15.199c-4.021,1.97-8.038,3.945-12.097,5.837 c-4.164,1.94-2.63-1.96-1.138-4.247c1.978-3.034,7.673-6.845,9.131-1.264C299.734,45.018,301.422,44.555,301.137,43.462 L301.137,43.462z"/>
</svg>