<?xml version="1.0" encoding="UTF-8" standalone="no"?>
<!-- Created with Inkscape (http://www.inkscape.org/) -->

<svg
   xmlns:dc="http://purl.org/dc/elements/1.1/"
   xmlns:cc="http://creativecommons.org/ns#"
   xmlns:rdf="http://www.w3.org/1999/02/22-rdf-syntax-ns#"
   xmlns:svg="http://www.w3.org/2000/svg"
   xmlns="http://www.w3.org/2000/svg"
   xmlns:sodipodi="http://sodipodi.sourceforge.net/DTD/sodipodi-0.dtd"
   xmlns:inkscape="http://www.inkscape.org/namespaces/inkscape"
   width="242"
   height="62"
   id="svg2"
   version="1.1"
   inkscape:version="0.48.5 r10040"
   sodipodi:docname="Neues Dokument 1">
  <defs
     id="defs4" />
  <sodipodi:namedview
     id="base"
     pagecolor="#ffffff"
     bordercolor="#666666"
     borderopacity="1.0"
     inkscape:pageopacity="0.0"
     inkscape:pageshadow="2"
     inkscape:zoom="2.8"
     inkscape:cx="107.98086"
     inkscape:cy="24.091101"
     inkscape:document-units="px"
     inkscape:current-layer="layer1"
     showgrid="false"
     inkscape:window-width="1366"
     inkscape:window-height="705"
     inkscape:window-x="-8"
     inkscape:window-y="-8"
     inkscape:window-maximized="1" />
  <metadata
     id="metadata7">
    <rdf:RDF>
      <cc:Work
         rdf:about="">
        <dc:format>image/svg+xml</dc:format>
        <dc:type
           rdf:resource="http://purl.org/dc/dcmitype/StillImage" />
        <dc:title></dc:title>
      </cc:Work>
    </rdf:RDF>
  </metadata>
  <g
     inkscape:label="Ebene 1"
     inkscape:groupmode="layer"
     id="layer1"
     transform="translate(0,-990.36218)">
    <g
       id="g3001"
       transform="matrix(0.00520833,0,0,-0.00520833,0.73099145,1052.3264)"
       style="fill:#000000;stroke:none">
      <path
         id="path3003"
         d="m 21618,11861 c -136,-45 -254,-131 -494,-361 -615,-592 -1546,-1695 -1876,-2225 -307,-493 -468,-1076 -429,-1553 24,-293 99,-529 233,-727 175,-257 419,-452 1018,-810 304,-182 492,-309 504,-341 7,-18 -42,-149 -84,-221 -85,-149 -198,-167 -1170,-195 -462,-12 -591,-7 -663,27 -60,28 -68,54 -77,264 -24,501 -158,822 -412,984 -86,56 -160,83 -313,117 -27,7 -177,14 -332,17 -249,5 -283,7 -287,22 -8,25 -218,1247 -292,1696 -192,1169 -238,1442 -265,1563 -68,299 -121,391 -254,441 -102,38 -197,25 -244,-35 -19,-24 -21,-40 -21,-158 0,-138 16,-365 50,-719 61,-626 78,-1048 61,-1470 -35,-865 -165,-1515 -446,-2228 -103,-262 -163,-376 -243,-460 -61,-66 -221,-183 -309,-228 l -42,-21 -15,22 c -21,34 -33,79 -60,231 -30,160 -62,242 -116,291 -70,63 -142,58 -327,-21 -56,-23 -110,-43 -120,-43 -34,1 -64,26 -152,126 -132,151 -168,165 -472,183 -526,33 -868,-67 -1484,-435 -126,-75 -257,-148 -290,-162 -78,-32 -155,-33 -216,-4 -61,30 -185,148 -204,196 -45,109 -32,324 100,1571 193,1829 209,1995 203,2164 -4,162 -13,176 -138,218 -175,59 -267,40 -373,-77 -63,-70 -137,-205 -211,-386 -118,-289 -125,-346 -181,-1534 -44,-943 -76,-1388 -104,-1463 -11,-29 -66,-58 -218,-115 -134,-51 -228,-106 -387,-226 -228,-173 -384,-263 -558,-325 -192,-67 -332,-75 -437,-24 -64,31 -95,71 -154,203 -111,247 -317,516 -433,565 -59,25 -126,45 -155,45 -43,0 -127,-49 -175,-103 -25,-29 -133,-183 -239,-343 -271,-406 -374,-541 -454,-594 -78,-52 -116,-35 -166,74 -70,150 -104,359 -140,861 -19,255 -31,338 -57,388 -30,59 -150,126 -196,110 -56,-20 -116,-91 -317,-373 -132,-186 -284,-368 -539,-645 -171,-186 -1005,-1035 -1017,-1035 -5,0 -9,94 -9,223 0,316 -18,982 -30,1112 -13,135 -35,217 -66,246 -29,27 -106,36 -158,19 -71,-23 -195,-130 -506,-435 -315,-308 -459,-434 -567,-497 -184,-108 -507,-203 -624,-184 -58,9 -112,40 -147,82 -36,44 -65,122 -132,359 -88,313 -122,356 -290,363 -74,3 -91,0 -130,-20 -68,-35 -99,-87 -115,-196 -24,-156 -79,-248 -250,-417 -167,-165 -366,-303 -530,-366 -303,-117 -355,-57 -570,657 -94,313 -142,448 -198,559 -94,189 -209,305 -299,305 -47,-1 -131,-38 -220,-98 l -78,-53 0,573 c 0,883 37,1473 136,2173 99,701 227,1115 345,1115 69,0 155,-69 421,-337 263,-265 386,-410 510,-604 212,-327 330,-661 519,-1454 66,-280 92,-364 145,-466 68,-130 153,-192 266,-193 81,-1 111,17 148,90 23,46 25,59 24,189 0,154 -6,198 -70,587 -86,518 -109,822 -139,1783 -23,769 -35,965 -65,1102 -24,109 -82,154 -200,157 -162,3 -185,-69 -235,-729 -30,-395 -51,-537 -80,-549 -39,-14 -125,49 -372,275 -103,95 -229,206 -280,246 -239,192 -439,268 -708,268 -148,0 -202,-16 -289,-82 C 406,10245 269,9797 159,8988 61,8264 14,7477 4,6410 -4,5572 8,5383 72,5322 c 47,-43 117,-66 220,-70 123,-5 213,15 304,70 87,53 121,58 161,24 38,-32 70,-85 123,-207 86,-195 145,-316 182,-376 51,-80 145,-168 250,-231 294,-178 570,-187 898,-31 153,73 272,153 491,330 l 97,78 123,-53 c 262,-113 471,-178 623,-195 164,-19 413,20 613,95 132,49 196,83 410,212 184,111 235,134 256,113 31,-31 12,-627 -28,-885 -17,-109 -24,-116 -235,-279 -80,-61 -212,-162 -295,-226 -311,-238 -423,-351 -445,-446 -22,-95 9,-340 81,-632 80,-327 171,-614 379,-1188 228,-631 306,-886 345,-1135 35,-221 42,-242 88,-257 149,-50 719,-35 774,19 10,11 4,108 -32,498 -78,860 -99,1132 -136,1770 -6,102 -13,482 -15,845 l -6,660 866,865 865,864 15,-34 c 38,-93 91,-260 127,-405 61,-244 101,-338 189,-444 96,-115 213,-172 360,-173 122,-1 157,18 300,161 64,64 174,184 245,266 280,324 467,535 474,535 5,0 62,-51 127,-112 246,-233 356,-323 434,-356 68,-29 183,-42 365,-42 173,0 263,9 410,40 179,37 224,34 452,-34 164,-49 268,-66 392,-66 168,0 269,34 417,140 46,32 97,66 113,75 45,23 103,18 196,-14 124,-44 216,-60 418,-72 324,-20 1181,4 1247,34 32,15 65,82 95,191 13,47 36,108 51,136 36,67 120,145 191,178 53,24 71,27 199,30 l 142,4 5,-254 c 5,-257 10,-295 51,-391 24,-54 95,-121 147,-136 98,-29 263,-6 404,58 86,39 147,41 241,5 133,-50 212,-65 370,-71 178,-7 279,9 389,61 315,148 672,702 885,1376 61,192 98,279 134,315 51,50 123,29 330,-99 60,-38 127,-74 149,-82 68,-24 165,-27 375,-10 366,30 403,26 462,-55 70,-97 110,-258 149,-604 l 18,-160 -86,-93 c -359,-388 -376,-439 -176,-538 131,-64 179,-64 662,6 503,72 899,104 1218,99 200,-4 212,-6 260,-29 84,-42 84,-58 -8,-350 -99,-317 -102,-354 -102,-1310 1,-908 9,-1070 70,-1340 19,-85 53,-276 75,-425 53,-348 82,-493 130,-636 66,-199 131,-309 215,-361 57,-36 67,-67 64,-215 -2,-133 5,-157 54,-178 42,-17 214,-52 298,-61 124,-12 205,28 245,124 43,105 57,405 29,647 -18,156 -35,247 -80,420 -38,148 -58,252 -77,410 -17,143 -17,883 0,1205 79,1491 146,2091 245,2198 30,33 124,83 237,127 394,155 540,233 540,288 0,23 -45,66 -202,193 -132,106 -158,135 -158,173 0,61 91,158 289,311 252,195 432,307 510,317 37,5 41,3 59,-27 15,-25 21,-59 26,-158 13,-241 47,-567 70,-685 51,-251 125,-314 361,-310 118,2 205,48 280,148 119,158 158,344 184,880 10,211 32,298 88,357 119,124 921,562 1085,592 55,10 68,-15 68,-129 0,-109 -25,-282 -85,-594 -78,-409 -105,-648 -105,-954 0,-192 9,-289 37,-387 13,-46 28,-67 87,-126 150,-149 318,-201 449,-141 78,35 146,84 370,261 331,262 618,466 678,481 24,6 28,2 51,-52 15,-32 41,-105 58,-163 41,-133 70,-190 128,-252 57,-61 131,-100 237,-124 64,-15 121,-19 290,-19 335,0 358,7 985,308 l 135,64 95,-91 c 106,-101 174,-142 295,-177 73,-22 98,-24 280,-23 233,0 268,7 570,105 228,74 282,78 460,36 175,-42 320,-52 557,-38 112,7 259,15 328,17 155,7 176,-2 237,-95 99,-152 226,-240 423,-292 242,-63 451,-43 659,64 238,122 410,172 1278,367 l 393,88 187,-85 c 316,-143 441,-174 703,-176 288,-2 364,40 531,293 97,147 143,190 203,190 71,0 96,-14 291,-161 179,-136 367,-211 525,-212 92,0 122,7 380,84 199,60 385,99 471,99 152,0 1096,-128 1874,-255 425,-69 796,-111 1480,-170 165,-14 706,-64 1202,-111 1344,-125 1722,-154 2813,-209 1235,-62 1748,-77 1917,-55 47,7 99,21 133,38 46,23 59,36 82,82 15,30 28,64 28,75 0,57 -59,86 -229,110 -182,25 -381,34 -1196,55 -1986,49 -2694,98 -4510,311 -1203,141 -2778,405 -3256,545 -248,73 -266,76 -404,77 -162,0 -242,-22 -454,-124 -194,-94 -272,-122 -306,-109 -45,17 -106,64 -208,159 -231,214 -366,264 -766,281 -235,11 -406,29 -556,60 -53,11 -130,20 -170,20 -114,0 -148,-13 -610,-225 -430,-197 -738,-301 -1097,-370 -155,-29 -550,-76 -559,-67 -4,4 -55,113 -113,242 -125,274 -170,355 -228,404 -126,108 -238,80 -862,-213 -301,-142 -459,-209 -605,-258 -90,-30 -107,-33 -132,-23 -39,16 -84,69 -99,117 -48,148 -156,252 -300,289 -126,32 -226,-20 -455,-236 -133,-125 -248,-206 -365,-255 -135,-57 -243,-69 -317,-36 -56,26 -115,116 -188,285 -66,152 -82,178 -131,201 -30,14 -56,17 -136,13 -85,-4 -106,-9 -162,-37 -35,-18 -110,-71 -167,-117 -290,-237 -732,-481 -881,-487 -41,-2 -51,2 -84,33 -76,72 -140,252 -184,515 -36,216 -74,325 -127,361 -23,16 -45,19 -123,18 -166,-1 -296,-63 -595,-283 -359,-264 -670,-464 -765,-491 -48,-14 -87,5 -101,48 -31,93 35,473 211,1221 143,605 174,671 551,1176 362,485 462,663 604,1077 246,714 274,1141 87,1310 -48,43 -93,53 -201,43 -204,-18 -343,-70 -462,-172 -82,-70 -135,-137 -179,-228 -49,-102 -166,-460 -325,-996 -142,-476 -226,-745 -289,-929 -71,-202 -73,-206 -124,-238 -230,-144 -1011,-529 -1372,-677 -262,-107 -369,-139 -595,-175 -234,-37 -398,-92 -640,-215 -242,-123 -421,-241 -719,-473 -88,-68 -165,-126 -171,-128 -6,-3 -21,25 -35,63 -21,59 -24,90 -28,238 -5,215 15,396 108,995 38,245 87,585 110,755 92,696 137,951 278,1580 182,804 256,1195 288,1515 17,180 11,281 -23,347 -40,77 -179,113 -295,74 z m -304,-868 c 10,-121 -18,-326 -94,-678 -72,-334 -111,-552 -225,-1255 -144,-881 -261,-1709 -310,-2180 -14,-135 -32,-278 -41,-318 -35,-164 -90,-165 -383,-7 -386,208 -582,385 -826,743 -146,215 -165,271 -165,493 0,381 84,687 303,1099 178,336 554,861 1016,1420 283,341 699,792 711,769 4,-8 10,-47 14,-86 z m 4544,-1110 c 47,-92 -13,-443 -130,-753 -78,-208 -148,-291 -177,-209 -55,158 142,880 262,964 28,19 34,19 45,-2 z m 5518,-4064 c 46,-46 52,-50 91,-47 39,3 44,1 52,-24 7,-20 6,-35 -5,-55 -10,-20 -12,-44 -8,-85 6,-55 5,-58 -25,-83 -17,-15 -31,-35 -31,-46 0,-11 -7,-19 -17,-19 -10,0 -31,-7 -46,-15 -23,-12 -53,-13 -150,-9 -67,4 -128,11 -134,17 -7,5 -13,22 -13,37 0,15 -9,47 -20,71 -30,68 -27,96 14,113 42,18 60,48 58,102 l -2,41 47,-4 c 43,-4 51,-2 77,26 17,17 37,31 46,31 9,0 39,-23 66,-51 z m 2922,-125 c 18,-14 43,-48 56,-75 20,-41 23,-54 14,-82 -22,-68 -29,-78 -59,-95 -18,-9 -46,-29 -64,-44 -47,-40 -78,-45 -98,-14 -16,24 -110,92 -149,108 -27,11 -22,31 12,50 37,21 54,61 41,98 -12,36 -4,46 47,54 23,3 59,15 78,26 41,21 66,16 122,-26 z M 11020,5476 c 0,-19 4,-37 9,-40 5,-3 26,-31 46,-61 24,-38 34,-62 30,-75 -6,-18 -92,-66 -180,-101 -39,-15 -172,-15 -210,0 l -30,13 27,14 c 54,28 63,87 22,141 l -25,33 25,31 c 14,17 26,35 26,39 0,18 77,33 193,38 l 67,3 0,-35 z m 9454,-588 c 71,-245 -131,-1607 -263,-1769 -16,-20 -18,-20 -31,-3 -12,14 -15,61 -14,258 1,196 6,280 28,451 74,589 193,1085 260,1085 7,0 17,-10 20,-22 z M 4744,3353 c 19,-39 43,-150 55,-263 45,-399 55,-1520 15,-1624 -10,-25 -35,-15 -60,22 -27,40 -64,134 -156,402 -181,526 -260,809 -280,996 -14,140 -3,205 47,274 66,90 265,220 337,220 20,0 31,-8 42,-27 z"
         inkscape:connector-curvature="0" />
    </g>
  </g>
</svg>
