<?xml version="1.0" encoding="utf-8"?>
<!-- Generator: Adobe Illustrator 16.0.0, SVG Export Plug-In . SVG Version: 6.00 Build 0)  -->
<!DOCTYPE svg PUBLIC "-//W3C//DTD SVG 1.1//EN" "http://www.w3.org/Graphics/SVG/1.1/DTD/svg11.dtd">
<svg version="1.1" xmlns="http://www.w3.org/2000/svg" xmlns:xlink="http://www.w3.org/1999/xlink" x="0px" y="0px" width="612px"
	 height="204.045px" viewBox="0 0 612 204.045" enable-background="new 0 0 612 204.045" xml:space="preserve">
<g id="Layer_1">
	<path fill-rule="evenodd" clip-rule="evenodd" d="M374.825,109.984c-3.603,0-6.651-0.052-9.698,0.015
		c-2.717,0.061-5.038-0.702-6.313-3.216c-1.296-2.554,0.063-4.571,1.734-6.44c4.124-4.612,8.231-9.238,12.335-13.87
		c0.352-0.397,0.618-0.871,0.923-1.309c-0.208-0.235-0.417-0.469-0.626-0.704c-2.412,1.967-4.731,4.068-7.279,5.837
		c-1.058,0.734-2.605,0.759-3.931,1.106c0.314-1.346,0.171-3.311,1.017-3.934c4.974-3.663,10.038-7.257,15.392-10.314
		c1.524-0.87,4.116,0.128,6.218,0.271c-0.594,1.896-0.696,4.195-1.867,5.616c-4.696,5.705-9.761,11.105-14.6,16.695
		c-1.129,1.303-1.907,2.91-2.866,4.407c5.147,2.627,13.364,0.758,17.675-3.715c4.038-4.188,7.936-8.531,12.209-12.464
		c1.761-1.62,4.263-2.592,6.592-3.36c0.908-0.299,2.605,0.495,3.29,1.328c0.391,0.476-0.228,2.325-0.92,3.048
		c-2.386,2.487-4.991,4.765-7.536,7.096c-7.054,6.461-14.913,12.187-19.356,21.038c1.882-0.643,3.671-1.254,5.461-1.865
		c0.215,0.385,0.431,0.771,0.646,1.156c-0.618,0.767-1.085,1.785-1.878,2.262c-8.329,5.013-14.648,11.94-19.946,20.016
		c-5.355,8.163-11.075,16.085-16.606,24.132c-0.303,0.439-0.344,1.059-0.63,2.002c5.126,0,10,0.491,14.744-0.086
		c18.826-2.289,37.663-4.581,56.396-7.519c14.376-2.255,28.747-4.893,42.858-8.414c20.237-5.052,40.246-11.022,60.33-16.681
		c11.808-3.326,23.544-6.905,35.371-10.154c3.071-0.844,6.359-1.013,9.564-1.188c0.992-0.054,2.038,0.898,3.06,1.389
		c-0.502,0.875-0.828,1.936-1.53,2.596c-13.891,13.05-27.724,26.167-41.797,39.017c-6.21,5.669-12.891,10.828-19.457,16.095
		c-1.068,0.857-2.652,1.072-3.998,1.583c-0.146-0.268-0.291-0.537-0.437-0.806c18.565-18.295,37.132-36.591,55.697-54.886
		c-0.143-0.237-0.285-0.475-0.428-0.712c-3.651,0.849-7.363,1.5-10.942,2.585c-11.86,3.594-23.62,7.521-35.516,10.987
		c-11.787,3.435-23.593,6.921-35.57,9.572c-21.25,4.704-42.567,9.179-63.992,13c-13.356,2.382-26.969,3.308-40.447,5.039
		c-7.392,0.95-14.741,2.228-22.114,3.323c-1.407,0.208-2.872,0.101-4.253,0.401c-3.653,0.791-7.262,1.791-10.917,2.57
		c-1.378,0.293-2.901,0.528-4.244,0.246c-9.964-2.095-19.921-0.721-29.894-0.204c-11.776,0.61-23.565,0.988-35.346,1.528
		c-17.287,0.792-34.574,1.576-51.854,2.485c-13.711,0.721-27.434,1.379-41.113,2.514c-14.742,1.223-29.441,2.955-44.156,4.49
		c-9.957,1.038-19.921,2.02-29.859,3.21c-9.106,1.092-18.188,2.388-27.263,3.714c-1.071,0.157-2.596,0.85-2.937,1.689
		c-1.202,2.966-3.417,2.572-5.668,2.111c-2.217-0.453-4.456-0.949-6.56-1.752c-1.282-0.489-2.33-1.595-3.482-2.424
		c1.18-0.9,2.259-2.354,3.561-2.595c3.626-0.669,7.339-0.91,11.029-1.186c12.474-0.937,24.969-1.63,37.425-2.766
		c14.378-1.312,28.708-3.154,43.086-4.478c21.391-1.97,42.786-3.989,64.217-5.415c16.658-1.108,33.379-1.23,50.062-2
		c15.131-0.698,30.25-1.672,45.374-2.536c3.576-0.205,7.146-0.562,10.724-0.658c2.541-0.068,3.705-1.146,4.448-3.629
		c2.117-7.077,4.266-14.162,9.552-19.779c5.854-6.219,12.818-10.625,20.798-13.525c1.906-0.693,3.739-1.68,5.698-2.125
		C364.968,127.066,369.213,118.304,374.825,109.984z M359.499,132.427c-1.371,0-2.154-0.223-2.719,0.034
		c-6.499,2.958-13.431,5.286-19.313,9.189c-6.435,4.27-11.878,10.051-13.62,18.159c-0.51,2.371-1.427,5.19,1.769,6.498
		c5.529,2.263,12.601,0.235,15.86-4.841C347.506,152.075,353.264,142.507,359.499,132.427z"/>
	<path fill-rule="evenodd" clip-rule="evenodd" d="M177.793,77.523c-5.895,0.664-11.317,1.212-16.723,1.901
		c-4.849,0.618-9.705,1.248-14.505,2.15c-2.768,0.521-5.609,1.255-8.075,2.545c-1.427,0.746-2.71,2.646-3.137,4.271
		c-1.92,7.29-6.14,12.992-11.359,18.212c-5.645,5.646-12.101,9.574-20.114,10.607c-1.282,0.166-2.657,0.257-3.899-0.021
		c-3.126-0.7-4.307-3.622-2.215-5.982c6.082-6.864,12.099-13.826,18.691-20.179c2.899-2.795,7.07-4.327,10.79-6.179
		c1.004-0.5,2.469-0.076,3.868-0.076c1.18-4.23,4.635-5.691,8.365-6.295c8.358-1.353,16.778-2.319,25.151-3.59
		c7.646-1.162,15.451-1.878,22.82-4.038c4.231-1.24,7.789-4.887,11.554-7.584c7.338-5.256,15.154-9.518,24.026-11.485
		c1.335-0.296,2.915,0.507,4.381,0.801c-0.68,1.456-0.961,3.496-2.103,4.275c-9.249,6.312-18.713,12.138-29.451,15.889
		c-5.261,1.838-9.872,5.587-14.702,8.592c-3.74,2.326-7.721,4.444-10.957,7.361c-4.849,4.371-9.159,9.344-13.66,14.096
		c-1.865,1.968-3.633,4.026-5.072,6.712c3.356-2.154,6.725-4.291,10.067-6.468c6.885-4.487,13.636-9.194,20.68-13.416
		c3.811-2.285,8.164-2.471,12.387-0.572c4.23,1.902,5.399,4.315,2.959,8.201c-2.381,3.794-5.547,7.113-8.53,10.499
		c-0.642,0.729-1.972,0.848-2.402,1.93c6.188,1.364,11.058-0.497,14.968-4.036c4.477-4.052,8.521-8.623,12.445-13.23
		c2.149-2.524,4.708-3.795,7.764-3.712c4.644,0.125,9.302,0.507,13.896,1.178c1.906,0.279,4.344,1.102,5.343,2.521
		c1.976,2.809,3.866,1.712,6.181,1.076c3.18-0.872,6.437-1.819,9.695-1.964c4.432-0.196,5.927,1.51,6.373,5.921
		c0.12,1.188,0.237,2.378,0.302,3.569c0.271,5.034,0.264,5.035,4.199,7.233c-0.148,0.391-0.188,1.035-0.481,1.187
		c-4.874,2.525-9.998,3.777-15.441,2.401c-0.458-0.116-0.917-1.917-0.654-2.693c0.244-0.723,1.422-1.167,2.237-1.656
		c3.887-2.33,5.258-5.457,3.457-9.555c-0.469-1.068-3.189-2.224-4.215-1.788c-5.102,2.172-10.094,4.668-14.907,7.428
		c-4.218,2.419-8.094,5.431-12.258,7.953c-0.756,0.458-2.178-0.183-3.291-0.317c0.164-1.18-0.11-2.825,0.566-3.461
		c3.118-2.936,6.571-5.513,9.747-8.393c1.029-0.933,1.578-2.396,2.346-3.616c-1.212-0.57-2.385-1.25-3.643-1.693
		c-9.042-3.183-14.157,1.888-19.542,8.281c-6.536,7.759-14.856,13.394-25.566,14.067c-1.28,0.081-2.652-0.057-3.87-0.444
		c-4.494-1.432-5.159-4.281-1.802-7.666c3.112-3.135,6.439-6.066,9.414-9.322c0.944-1.033,1.804-3.807,1.426-4.092
		c-1.457-1.099-3.768-2.48-5.147-1.998c-3.994,1.395-7.894,3.326-11.458,5.625c-5.732,3.698-10.961,8.197-16.79,11.715
		c-4.535,2.738-9.614,4.612-14.559,6.603c-1.077,0.434-2.611-0.269-3.936-0.449c0.421-1.147,0.552-2.55,1.306-3.404
		c11.055-12.536,22.168-25.024,36.524-34.024C177.408,78.828,177.422,78.516,177.793,77.523z M129.908,87.323
		c-12.717,4.37-18.028,15.658-26.306,25.004C115.339,112.683,129.811,98.603,129.908,87.323z"/>
	<path fill-rule="evenodd" clip-rule="evenodd" d="M422.197,91.505c-4.485,1.161-8.52,2.204-12.554,3.248
		c-0.171-0.252-0.343-0.504-0.515-0.756c0.491-0.66,0.846-1.569,1.502-1.931c1.453-0.801,3.003-1.588,4.608-1.92
		c6.914-1.431,12.281-5.138,17.333-10.017c5.974-5.771,12.522-10.998,19.15-16.029c9.575-7.269,19.444-14.152,29.194-21.191
		c0.578-0.417,1.189-1.019,1.826-1.077c1.797-0.166,3.616-0.091,5.426-0.111c-0.552,1.516-0.676,3.5-1.731,4.47
		c-4.706,4.326-9.461,8.656-14.596,12.446c-12.348,9.113-25.031,17.769-37.313,26.965c-3.038,2.275-5.347,5.717-7.47,8.962
		c-1.963,3-1.125,4.917,2.381,5.84c2.844,0.749,5.897,1.223,8.817,1.064c8.629-0.469,16.006-3.197,21.668-10.562
		c4.913-6.39,10.854-12.101,19.097-14.41c2.338-0.656,5.297-1.648,6.229,1.181c0.578,1.762-0.473,4.764-1.819,6.318
		c-3.75,4.328-8.144,7.996-13.627,10.181c-2.59,1.032-4.988,2.545-7.398,4.646c2.035,0.258,4.091,0.847,6.101,0.718
		c10.542-0.676,19.969-4.121,27.83-11.458c5.122-4.782,10.328-9.484,15.68-14.005c5.439-4.594,16.055-7.899,22.269-3.055
		c0.654,0.509,2.345,0.378,3.155-0.113c7.9-4.777,16.653-5.73,25.521-5.353c6.29,0.268,12.585,1.267,18.793,2.401
		c5.813,1.062,6.69,3.737,3.037,8.363c-1.691,2.14-3.688,4.055-5.674,5.936c-0.636,0.604-1.679,1.038-2.548,1.06
		c-0.817,0.021-1.652-0.603-2.479-0.943c0.304-0.728,0.464-1.572,0.939-2.162c1.835-2.282,3.771-4.483,6.495-7.684
		c-5.751-1.096-10.349-2.624-14.97-2.694c-6.367-0.097-12.822,0.51-19.094,1.633c-2.618,0.469-5.507,2.555-7.157,4.746
		c-6.354,8.428-13.27,16.267-21.499,22.885c-1.651,1.327-3.606,2.39-5.585,3.147c-1.031,0.395-2.419-0.142-3.646-0.257
		c0.285-1.184,0.187-2.744,0.919-3.49c4.502-4.596,9.236-8.963,13.799-13.502c1.852-1.841,3.629-3.808,5.109-5.947
		c0.629-0.908,0.934-2.71,0.441-3.553c-0.588-1.002-2.14-1.856-3.362-1.999c-5.485-0.634-9.394,2.63-13.39,5.728
		c-7.895,6.121-15.438,12.859-23.943,17.984c-9.484,5.715-20.183,7.58-31.374,4.983c-2.131-0.494-4.717-0.125-6.832,0.606
		c-7.789,2.691-15.755,2.891-23.689,1.591C420.687,103.312,419.404,99.676,422.197,91.505z M466.404,90.367
		c0.231,0.288,0.462,0.576,0.692,0.864c2.741-1.807,5.483-3.612,8.225-5.418c-0.192-0.293-0.386-0.587-0.579-0.879
		C470.844,85.048,469.06,88.367,466.404,90.367z"/>
	<path fill-rule="evenodd" clip-rule="evenodd" d="M371.911,46.774c6.919,0.589,11.893-1.531,16.14-5.59
		c5.079-4.854,9.787-10.171,15.29-14.479c3.442-2.694,7.983-4.085,12.187-5.642c1.089-0.404,2.762,0.767,4.166,1.214
		c-0.767,1.192-1.299,2.669-2.34,3.529c-6.52,5.383-13.108,10.684-19.76,15.901c-5.251,4.121-10.814,7.861-15.886,12.186
		c-4.333,3.694-8.31,7.841-12.187,12.027c-10.09,10.894-20.02,21.937-30.059,32.878c-2.173,2.368-4.272,4.946-6.885,6.725
		c-2.888,1.964-6.201,3.542-9.553,4.522c-4.407,1.29-7.529-0.648-10.139-5.326c-1.823-3.268-1.019-8.957,1.88-11.996
		c1.136-1.191,2.483-2.401,3.976-2.962c1.107-0.417,3.182-0.257,3.765,0.482c0.599,0.758,0.008,2.555-0.268,3.853
		c-0.104,0.495-0.787,0.862-1.195,1.298c-2.843,3.026-3.332,6.501-1.216,8.606c1.612,1.603,6.097,0.843,8.424-1.542
		c5.399-5.535,10.845-11.031,16.094-16.708c5.888-6.368,11.491-12.997,17.385-19.358c4.078-4.402,8.438-8.543,13.11-13.242
		c-2.705-0.407-4.771-0.655-6.812-1.039c-3.415-0.643-4.56-2.902-2.997-5.978c0.533-1.05,1.339-1.967,2.049-2.924
		c2.876-3.879,5.929-7.641,8.559-11.679c0.97-1.49,0.95-3.625,1.382-5.465c-2.107,0.03-4.663-0.708-6.243,0.219
		c-7.186,4.21-14.246,8.679-21.053,13.478c-4.258,3-7.962,6.781-11.976,10.139c-0.521,0.437-1.408,0.439-2.126,0.643
		c-0.051-0.87-0.488-2.037-0.086-2.558c1.669-2.163,3.381-4.382,5.457-6.129c9.35-7.87,19.635-14.337,30.604-19.704
		c1.585-0.775,3.45-1.682,5.072-1.502c2.061,0.229,4.848,0.979,5.774,2.469c1.041,1.67,1.187,4.854,0.262,6.611
		c-2.533,4.823-5.837,9.24-8.825,13.824C373.328,44.403,372.821,45.283,371.911,46.774z"/>
	<path fill-rule="evenodd" clip-rule="evenodd" d="M149.294,35.351c-9.559-2.648-16.559,1.166-23.304,5.888
		c-0.676,0.474-1.152,1.234-1.827,1.708c-4.453,3.12-5.344,7.279-3.733,12.248c0.563,1.736,1.192,3.925-1.29,4.312
		c-0.912,0.142-2.712-1.718-3.174-3c-3.13-8.685-1.289-12.429,4.133-16.277c7.984-5.669,16.247-9.966,26.397-9.287
		c1.525,0.102,3.121-0.527,4.61-0.31c1.277,0.187,2.712,0.865,3.549,1.799c0.395,0.439-0.154,2.232-0.781,2.997
		c-3.62,4.413-7.435,8.665-11.101,13.041c-5.275,6.298-10.324,12.793-15.753,18.953c-6.671,7.569-13.396,15.12-20.555,22.217
		c-4.695,4.656-9.824,9.101-15.418,12.577c-11.98,7.441-25.334,10.902-39.356,8.909c-15.263-2.17-25.773-11.956-28.456-28.37
		c-1.399-8.567-0.318-17.651,7.536-24.138c5.495-4.537,16.07-5.398,21.812-1.124c0.794,0.591,1.075,1.871,1.594,2.832
		c-0.975,0.172-1.999,0.623-2.913,0.46c-2.213-0.394-4.356-1.461-6.56-1.569c-7.489-0.367-13.886,5.102-15.832,13.193
		c-3.187,13.258,4.784,28.266,17.525,32.703c8.354,2.909,16.844,2.521,25.439,0.87c11.744-2.256,20.848-8.586,29.217-16.845
		c10.471-10.333,19.612-21.665,28.523-33.316c4.953-6.478,11.381-11.827,17.137-17.691
		C147.436,37.395,148.117,36.621,149.294,35.351z"/>
</g>
<g id="Layer_2">
</g>
</svg>
