<svg id="svg" xmlns="http://www.w3.org/2000/svg" xmlns:xlink="http://www.w3.org/1999/xlink" width="400" height="108.48861283643892" viewBox="0, 0, 400,108.48861283643892"><g id="svgg"><path id="path0" d="M280.729 10.145 C 275.423 16.532,274.170 18.267,271.868 22.415 C 267.182 30.856,266.242 38.095,269.831 38.095 C 270.644 38.095,275.947 36.784,281.617 35.182 C 287.287 33.580,293.901 32.035,296.315 31.750 L 300.705 31.232 299.041 35.610 C 297.777 38.938,290.104 53.356,288.524 55.373 C 288.394 55.538,286.498 55.049,284.310 54.286 C 282.122 53.524,276.895 52.682,272.695 52.417 L 265.058 51.933 265.241 54.523 C 265.447 57.437,267.821 58.237,279.300 59.261 L 284.894 59.760 282.312 63.355 C 280.892 65.332,278.726 67.912,277.498 69.089 L 275.265 71.228 273.479 68.812 C 271.023 65.491,267.668 64.904,262.981 66.977 C 259.855 68.360,259.213 68.435,259.213 67.419 C 259.213 65.253,256.059 67.665,254.247 71.216 C 250.334 78.885,254.825 80.107,262.726 73.523 C 267.390 69.636,268.325 69.774,270.001 74.596 C 271.958 80.226,273.242 79.846,281.889 71.088 C 295.092 57.715,305.181 39.799,304.597 30.767 L 304.348 26.915 299.818 26.658 C 296.903 26.493,292.093 27.195,286.326 28.625 C 275.356 31.347,275.723 31.824,281.184 21.939 C 285.965 13.286,286.224 12.437,284.857 9.883 C 283.737 7.790,282.626 7.861,280.729 10.145 M389.565 10.653 C 384.690 14.233,375.634 24.020,366.088 36.025 C 361.379 41.946,355.075 49.306,352.078 52.381 L 346.628 57.971 341.821 57.971 C 337.114 57.971,331.241 60.257,325.772 64.217 C 324.081 65.442,323.985 65.378,323.482 62.694 C 321.844 53.963,304.577 51.161,302.039 59.213 C 301.609 60.580,299.015 63.993,296.275 66.799 C 289.478 73.759,289.741 76.724,297.079 75.861 C 306.995 74.696,311.694 70.865,311.591 64.032 L 311.534 60.263 314.499 60.744 C 319.091 61.489,319.877 63.935,317.598 70.393 C 314.098 80.315,317.282 80.848,325.874 71.777 C 331.954 65.357,335.573 62.833,336.855 64.115 C 337.129 64.389,336.398 65.635,335.229 66.882 C 331.692 70.661,331.450 72.878,334.574 72.878 C 338.270 72.878,340.200 71.696,345.178 66.384 C 349.599 61.667,349.696 63.122,345.335 68.737 C 340.109 75.466,338.629 82.101,341.407 86.342 C 344.256 90.689,352.731 89.990,356.377 85.106 C 358.636 82.081,357.717 81.464,353.407 83.110 C 341.629 87.608,342.923 80.693,358.190 57.557 C 366.902 44.355,373.880 36.367,381.371 31.022 C 392.030 23.416,400.528 12.403,398.120 9.317 C 396.756 7.569,392.958 8.162,389.565 10.653 M387.543 20.354 C 385.512 22.438,383.106 24.517,382.195 24.973 C 381.284 25.429,382.648 23.723,385.227 21.182 C 390.844 15.649,392.811 14.946,387.543 20.354 M84.441 39.394 C 73.166 49.478,54.089 62.937,51.068 62.939 C 50.688 62.940,51.715 61.117,53.351 58.889 C 65.407 42.465,56.123 41.901,41.035 58.141 C 31.992 67.875,30.466 71.429,35.327 71.429 C 38.329 71.429,14.903 94.694,6.379 100.179 C 0.353 104.056,-0.908 106.942,3.172 107.520 C 6.764 108.028,24.279 92.379,40.648 74.035 C 43.944 70.342,45.391 69.462,52.145 67.046 C 56.801 65.381,61.825 62.844,64.787 60.664 C 71.013 56.080,70.638 56.690,57.307 72.809 C 45.312 87.313,45.107 87.500,45.915 83.194 C 47.948 72.355,35.554 77.434,33.068 88.458 C 32.481 91.058,32.621 91.317,35.189 92.390 L 37.939 93.539 36.361 96.634 C 32.280 104.637,39.209 103.601,44.895 95.358 C 46.822 92.565,55.803 90.197,64.196 90.270 C 69.005 90.311,72.861 89.740,78.178 88.200 C 86.697 85.731,86.590 85.705,84.452 89.694 C 81.684 94.859,82.526 97.562,86.585 96.544 C 88.003 96.188,89.348 94.563,91.105 91.083 C 92.913 87.501,94.067 86.128,95.271 86.128 C 96.187 86.128,99.056 85.383,101.648 84.472 C 107.598 82.381,107.556 82.373,105.010 85.093 C 99.424 91.060,101.786 93.859,109.412 90.310 C 117.434 86.576,121.363 86.173,122.075 89.012 C 122.733 91.633,128.150 91.457,134.730 88.601 L 138.198 87.096 140.113 89.357 C 142.740 92.457,153.496 92.294,153.050 89.161 C 152.864 87.857,152.068 87.258,150.116 86.957 L 147.436 86.542 150.405 82.816 C 152.038 80.766,156.728 74.319,160.826 68.490 C 164.924 62.660,170.331 55.673,172.841 52.962 C 176.653 48.844,177.317 47.683,176.874 45.915 C 176.158 43.064,173.518 43.815,170.186 47.817 C 168.820 49.459,165.697 53.067,163.247 55.836 C 157.969 61.800,150.218 71.881,147.119 76.812 C 145.576 79.266,144.339 80.331,143.030 80.331 C 141.998 80.331,138.555 81.439,135.380 82.793 C 125.727 86.910,125.756 86.793,138.226 71.513 C 146.205 61.737,150.138 52.044,145.549 53.469 C 140.739 54.962,135.123 61.305,128.365 72.876 C 123.637 80.972,117.580 85.240,118.818 79.604 C 120.240 73.132,118.049 72.616,107.660 76.976 C 98.945 80.634,97.880 80.748,97.571 78.056 C 97.150 74.396,93.974 74.484,92.199 78.205 C 90.958 80.808,90.425 81.159,87.719 81.159 C 86.029 81.159,82.278 81.866,79.383 82.729 C 68.655 85.928,68.898 86.065,74.116 79.739 C 79.296 73.459,80.343 70.878,78.471 69.007 C 76.522 67.057,73.357 69.178,65.807 77.494 C 60.016 83.872,55.839 86.957,52.991 86.957 C 51.059 86.957,68.257 65.931,86.094 46.488 C 94.453 37.377,95.183 36.328,94.230 34.802 C 92.667 32.299,92.054 32.586,84.441 39.394 M217.391 36.152 C 216.025 36.869,213.301 38.997,211.338 40.881 C 208.151 43.940,207.681 44.151,206.949 42.857 C 205.542 40.371,204.111 41.250,202.565 45.549 C 200.676 50.802,196.201 57.724,187.575 68.737 C 179.076 79.588,178.497 80.637,180.221 82.068 C 182.294 83.788,185.322 81.525,190.341 74.505 C 192.772 71.105,195.034 68.221,195.368 68.097 C 196.052 67.842,199.100 83.536,200.549 94.778 C 201.622 103.097,203.736 106.313,207.817 105.836 C 210.699 105.499,210.927 103.199,208.377 100.169 C 205.751 97.048,204.775 93.614,203.681 83.644 C 203.206 79.317,202.609 75.075,202.354 74.218 C 201.940 72.830,202.215 72.721,204.866 73.218 C 213.964 74.925,224.022 64.490,229.371 47.797 C 232.521 37.965,226.008 31.633,217.391 36.152 M223.943 43.685 C 221.203 58.807,208.741 72.213,203.156 66.046 C 199.325 61.816,199.381 61.472,204.989 54.723 C 216.105 41.346,225.341 35.967,223.943 43.685 M49.737 57.764 C 47.109 62.034,43.521 65.703,41.160 66.535 C 38.639 67.424,41.936 62.593,47.065 57.884 C 52.529 52.866,52.758 52.856,49.737 57.764 M306.953 66.651 C 306.438 67.992,301.523 70.743,300.848 70.068 C 300.602 69.822,301.814 68.210,303.542 66.487 C 306.517 63.521,308.124 63.598,306.953 66.651 M222.774 82.402 C 220.719 86.982,220.045 87.785,218.254 87.785 C 215.914 87.785,215.606 89.000,217.110 92.301 C 219.473 97.486,226.779 89.400,228.322 79.892 C 229.214 74.393,225.643 76.008,222.774 82.402 M41.800 84.679 C 41.085 88.075,40.050 89.242,38.832 88.025 C 38.159 87.352,38.318 86.422,39.425 84.547 C 41.392 81.218,42.517 81.280,41.800 84.679 " stroke="none" fill="#000000" fill-rule="evenodd"></path></g></svg>