<?xml version="1.0" encoding="UTF-8" standalone="no"?>
<svg xmlns="http://www.w3.org/2000/svg" version="1.1" width="200" height="49">
<path fill="#231f20" d="M 1.805364,20.0202 C 6.497821,16.849663 11.154302,13.629074 15.784193,10.367817 17.64397,9.0586214 28.009607,3.4308017 27.820344,0.72481831 27.787497,0.26495751 26.773926,0.43545011 26.54556,0.49645211 22.095547,1.7024134 17.564198,6.9657857 14.284171,9.9001353 11.179328,12.67807 2.507668,19.385154 3.302258,24.320055 5.157342,35.846292 30.038312,9.7437201 22.281681,9.434018 18.867137,9.2979367 2.126015,19.712062 6.641723,24.265309 12.189771,29.861846 36.806399,5.1560616 39.162012,3.0616617 38.511325,3.0053523 37.860637,2.9506069 37.20995,2.8942975 32.889761,7.4319031 28.62119,12.019562 24.4058,16.655709 c -1.673643,1.841007 -10.734777,9.680538 -9.958957,12.552321 0.04849,0.181442 0.270598,0.261214 0.43327,0.28624 3.193999,0.481759 6.963605,-3.849379 9.029851,-5.601229 2.325894,-1.972396 10.737905,-7.432851 11.200894,-10.692544 0.126696,-0.893131 -1.726824,-0.276855 -2.031834,-0.0094 -1.720568,1.506278 -15.03776,17.01954 -10.062191,17.124338 3.875969,0.0829 7.517315,-3.262822 10.357816,-5.48861 2.32433,-1.822238 10.493897,-7.273308 10.722263,-10.734777 0.03285,-0.489579 -0.622532,-0.489579 -0.966646,-0.441091 -3.355106,0.47081 -6.829088,5.962548 -8.760816,8.264981 -0.563095,0.672585 -6.527208,7.437543 -2.821731,7.461006 4.166901,0.02659 8.93913,-6.215941 11.685781,-8.627864 2.39941,-2.106913 7.74881,-6.37392 4.445321,-0.344114 -1.423379,2.599621 -6.988632,9.929239 -5.551176,2.677829 -0.753922,0.151723 -1.509407,0.303446 -2.263329,0.455168 2.508901,6.718034 8.300956,2.29774 12.101846,-0.405115 C 54.382777,21.41386 71.64789,10.455409 69.458077,6.4042551 69.270378,6.0570133 68.832416,6.0804755 68.488302,6.1148869 c -3.097021,0.308138 -5.901546,4.8191531 -7.650268,6.9041681 -2.360306,2.812345 -7.93338,8.116386 -7.780094,12.226978 0.09385,2.479181 2.834244,1.632975 4.315497,0.932234 5.92188,-2.804525 11.160226,-10.063755 14.92514,-15.139429 0.100106,-0.134517 0.132953,-0.309702 0.0047,-0.439527 -0.0078,-0.0063 -0.01408,-0.01408 -0.0219,-0.0219 -0.44109,-0.445783 -1.573537,-0.09228 -1.956754,0.272163 -3.780556,3.610063 -10.207657,8.784278 -12.20508,13.506454 -0.752357,1.778441 -0.01877,2.945299 2.034962,2.518285 1.941113,-0.403551 3.522471,-1.321709 5.219576,-2.333715 1.834751,-1.093342 2.333715,3.555318 1.984909,5.396325 0.61002,-0.247136 1.220039,-0.494272 1.830059,-0.741408 -2.70442,-0.394166 -10.162298,-11.064813 -6.993325,-11.277538 4.99121,-0.334728 9.969906,-0.771127 14.973629,-0.9119 2.46354,-0.06882 4.919259,0.0063 7.367157,0.311266 5.956292,0.742972 1.801904,5.771722 -0.818051,8.144541 -3.131433,2.835808 -0.589686,2.045911 1.412429,-0.01721 5.523022,-5.685693 11.107045,-11.321333 16.905362,-16.7254794 1.10741,-1.0323405 2.24143,-2.0365262 3.38951,-3.0235063 0.44735,-0.380089 0.90252,-0.7492289 1.36551,-1.1074198 1.6799,-1.3310935 0.14703,-0.5803005 -0.12983,0.1548511 -1.61577,4.2904696 -4.40309,8.3353674 -6.80093,12.2207214 -2.171044,3.520906 -4.428115,7.04807 -7.035557,10.265531 1.149652,1.252886 1.409301,0.583428 0.777384,-2.009936 0.04849,-1.104291 0.176749,-2.199198 0.384781,-3.28472 0.567787,-3.692963 3.436443,-4.490681 6.417712,-5.338451 3.60068,-1.022956 20.72346,-5.474533 15.72599,2.995351 -2.09753,3.553754 -6.10176,6.422409 -9.39899,8.840589 1.475,-1.082394 1.24037,0.836821 2.54488,-0.456733 1.07457,-1.065187 2.14914,-2.128811 3.22528,-3.193999 3.07669,-3.042276 6.15806,-6.078295 9.24101,-9.109622 4.88015,-4.79569 9.61641,-10.1059873 14.98146,-14.3714305 -0.65069,-0.056309 -1.30138,-0.1110548 -1.95206,-0.1673643 -4.364,7.8567367 -8.66072,15.9136848 -13.84745,23.2636358 -1.45623,2.063117 0.63817,0.290932 0.58186,0.639738 0.1877,-1.154344 0.33317,-2.18512 0.30032,-3.361363 -0.0422,-1.551639 -0.12826,-3.098586 -0.19708,-4.64866 -0.1877,-4.257622 3.79932,-3.908816 6.99801,-3.527163 1.69398,0.200211 5.97038,0.148594 5.46202,2.737266 -0.81492,4.159081 -7.33274,8.208671 -10.29368,10.74729 -0.99168,0.849334 1.28573,0.742972 1.8019,0.322215 8.03036,-6.527207 18.41008,-12.929282 24.79026,-21.1176188 0.63661,-0.8164874 -1.68459,-0.4582966 -2.10066,-0.012513 -2.77637,2.9765818 -5.36348,6.1580668 -7.95371,9.2941918 -2.22266,2.688778 -6.36924,6.477155 -7.06372,10.063756 -0.38166,1.970831 4.1716,-0.57248 4.22791,-0.603763 9.33017,-5.246167 17.00077,-14.57477 23.83299,-22.60982 0.62566,-0.7382799 -1.65488,-0.5208627 -2.10222,-0.012513 -6.27851,7.1372266 -13.93816,14.532538 -18.4132,22.974267 -0.97604,1.841007 0.81961,1.772185 2.08814,1.263835 5.92657,-2.379075 11.89381,-8.457371 16.27657,-13.081004 -0.70074,-0.0031 -1.40148,-0.0078 -2.10222,-0.01251 -0.8337,1.071444 -8.59658,11.111737 -6.73524,11.782759 1.22942,0.444219 2.30243,-0.153287 3.39734,-0.717946 2.56364,-1.321709 4.85356,-3.373877 7.0903,-5.153882 -0.78521,0.624097 -2.23048,3.505265 -2.4088,5.271193 -0.0203,0.197083 0.0516,0.28624 0.22524,0.378525 1.63454,0.869669 3.50214,-1.243501 4.55481,-2.160094 0.93693,-0.814924 0.46456,3.156459 1.48595,4.184107 0.50835,0.511478 1.90513,0.09541 2.45259,-0.129825 2.37751,-0.977595 3.35198,-4.124669 4.16846,0.236187 0.53964,2.879605 2.48544,5.621563 3.64135,8.286879 0.78208,1.805032 -2.11161,-0.96821 -3.01881,-1.690849 -1.86604,-1.485944 -3.65073,-3.073559 -5.51677,-4.561068 -12.66964,-10.084087 -28.21106,-13.645662 -43.79628,-16.5456 -7.14504,-1.329529 -14.33232,-2.441641 -21.46799,-3.8243519 -1.773743,-0.3441135 -3.611622,0.03754 -0.93536,-0.2002115 3.03915,-0.2705984 6.09081,-0.3785249 9.12996,-0.6632006 17.92831,-1.6830278 35.63608,-4.4328074 53.65668,-5.3071685 9.84321,-0.4786306 20.58737,-1.3013747 30.10524,1.8097241 1.56102,0.5099136 4.24511,1.6157693 4.02143,3.6538597 -0.35037,3.1924347 -8.20867,2.9906587 -10.2014,2.9828387 -8.75456,-0.03285 -17.49817,0.261213 -26.2496,0.317523 -3.90725,0.02503 -7.8364,-0.04849 -11.70142,-0.653816 -0.0563,-0.0094 -6.52721,-1.7800054 -2.27428,-3.1533311 2.22266,-0.7179458 4.87077,-0.4285777 7.17164,-0.3253436 14.05704,0.6366099 43.17842,8.7138917 42.43545,27.1005017 -0.24714,6.117399 -6.67111,10.753546 -11.11174,13.778617 -1.26696,0.863412 0.707,1.076136 1.39053,0.611583 11.09766,-7.562676 16.19524,-17.255727 5.8296,-27.979555 -9.54915,-9.880749 -24.37731,-13.7269997 -37.64445,-14.7343138 -1.23881,-0.093849 -16.22339,0.688227 -10.47826,4.8050758 3.28785,2.354049 9.74467,1.714311 13.45797,1.77062 8.7483,0.132953 17.49817,-0.384781 26.24491,-0.345677 3.50057,0.01564 14.83442,0.64443 15.446,-4.9333366 0.79615,-7.26861539 -23.89712,-6.267558 -26.78611,-6.2284542 -17.92675,0.2440078 -35.7487,2.3133812 -53.51434,4.551683 -5.8515,0.7382799 -11.68578,1.2481935 -17.56543,1.6814637 -1.20596,0.089157 -4.206006,-0.1157473 -5.025622,1.1903198 -0.09854,0.1579794 -0.129825,0.287804 -0.0047,0.4395268 0.766435,0.9384913 3.173665,1.007314 4.207572,1.2075255 5.9516,1.15278 11.94856,2.088143 17.91423,3.162716 15.41629,2.777934 30.66677,5.935957 43.63516,15.184789 3.17992,2.268021 9.10337,9.675846 13.56746,9.075212 1.719,-0.229931 1.79095,-1.368633 1.34517,-2.785755 -0.74141,-2.369691 -2.21171,-4.598608 -3.1768,-6.891655 -0.77269,-1.837879 -0.35662,-4.024564 -1.84257,-5.433865 -0.36288,-0.344113 -1.0949,-0.157979 -1.4922,0.0031 -1.597,0.644431 -2.47762,1.653309 -3.70078,2.917144 -0.0501,0.05162 -0.0782,-4.282649 -0.77426,-5.002159 -0.35506,-0.366011 -1.0996,-0.132953 -1.4922,0.0016 -1.65644,0.570915 -2.87804,1.709618 -4.18567,2.848321 -1.08865,0.947876 0.21585,0.375396 0.66789,-0.852463 0.5584,-1.52192 1.48438,-2.812346 1.86447,-4.395268 0.0454,-0.189262 -0.0704,-0.298753 -0.22367,-0.378525 -2.73258,-1.428071 -9.04706,5.32281 -10.51111,6.26443 0.98073,-0.630353 2.5918,-4.653353 3.38483,-5.798312 1.09647,-1.582923 2.2602,-3.125176 3.44426,-4.643968 0.63974,-0.82118 -1.68615,-0.448912 -2.10222,-0.01251 -4.3327,4.570452 -9.52256,8.635684 -14.78124,12.062741 1.94894,-1.270091 3.91508,-5.094443 5.57151,-7.201357 4.30142,-5.47766 8.86249,-10.7660589 13.46266,-15.9950198 -0.70074,-0.00313 -1.40148,-0.00782 -2.10222,-0.012513 -5.74982,6.7633942 -11.8156,13.2139578 -18.68067,18.8558548 -1.00731,0.827436 -5.59653,4.877026 -4.58609,2.954683 0.70699,-1.346735 1.70805,-2.571466 2.6137,-3.783684 3.65698,-4.887976 7.64401,-9.677409 11.81091,-14.144628 -0.70074,-0.00313 -1.40148,-0.00782 -2.10066,-0.012513 -4.92394,6.319167 -12.92458,11.318198 -19.07483,16.376666 -1.39679,1.148088 -2.7967,2.293047 -4.19818,3.436442 -3.4865,2.846758 3.74771,-1.426506 4.61894,-2.200762 1.8848,-1.673643 7.12941,-5.580895 6.83691,-8.605965 -0.36914,-3.850943 -10.98817,-3.603807 -13.55338,-3.262822 -2.28992,0.303446 -3.23467,2.152274 -3.53029,4.20757 -0.27999,1.950497 -1.06206,9.167496 -0.008,10.345303 0.25808,0.290932 0.88062,0.184569 1.19657,0.09698 3.35511,-0.933799 5.78268,-7.226383 7.37029,-9.86198 3.08607,-5.124162 6.04076,-10.3312249 8.94695,-15.5601859 0.54746,-0.98541589 -1.60638,-0.44265499 -1.95206,-0.16736419 C 124.71801,9.0805196 115.8086,19.371077 106.56759,28.543266 c -0.98229,0.976031 1.32953,0.6632 1.80347,0.322215 5.40258,-3.879098 18.61497,-16.340698 3.91663,-15.70096 -8.79366,0.383217 -24.44926,2.77637 -20.940867,15.491364 0.07664,0.276854 0.461425,0.29406 0.685099,0.308137 4.348343,0.298754 9.083028,-10.625286 10.809858,-13.426682 0.54589,-0.886874 8.42139,-13.2812167 5.2837,-12.8948711 -4.71122,0.5803005 -9.786896,7.4938531 -12.890174,10.5079751 -4.850437,4.711226 -9.59451,9.5382 -14.279146,14.413662 -0.893131,0.929107 1.123061,0.788333 1.596999,0.466118 2.560517,-1.737774 9.275423,-6.414589 7.202921,-10.31402 -1.988037,-3.741452 -13.958494,-1.88324 -16.928819,-1.72526 -3.042276,0.162672 -11.283795,-0.807102 -13.551815,1.634539 -3.084509,3.320695 5.36817,12.286416 8.510552,12.744712 0.492708,0.07195 1.709618,-0.09854 1.830058,-0.741408 0.40668,-2.146017 -0.411372,-4.776921 -0.547453,-6.966734 -0.04067,-0.109491 -0.115747,-0.186134 -0.226802,-0.226802 -3.309746,-1.198141 -12.610196,6.225326 -6.183094,-1.403044 2.790448,-3.311311 6.312918,-6.854115 9.464685,-9.866672 -0.652251,0.09072 -1.304503,0.181441 -1.956754,0.272162 0.886874,0.896259 -15.208253,15.708781 -14.756213,12.725942 0.649124,-4.281084 5.856186,-9.154982 8.50586,-12.313006 0.611584,-0.71951 1.235681,-1.426507 1.872291,-2.1225544 0.492708,-0.5083495 0.985415,-1.016699 1.478123,-1.5266126 0.932235,-0.5568382 0.921286,-0.7773837 -0.03285,-0.6616364 -0.427013,2.9312214 -5.003723,5.8593144 -7.096558,7.6361914 -2.95312,2.507336 -15.555494,14.329198 -18.012778,7.745681 -0.269034,-0.717945 -2.136632,-0.187698 -2.263328,0.455169 -1.966139,9.916725 7.038685,1.312323 9.306706,-1.994294 5.721669,-8.335367 -2.543312,-5.304041 -6.63357,-1.919215 -2.283662,1.889496 -4.446885,3.927586 -6.680494,5.873391 -1.077701,0.940056 -2.183557,1.833187 -3.380133,2.619955 0.706997,-0.464553 1.722132,-3.098585 2.3431,-3.951048 1.592307,-2.188249 3.430186,-4.20757 5.261808,-6.195607 0.893131,-0.969774 1.825366,-1.886368 2.798269,-2.774806 -0.483324,0.441091 -1.814417,0.606891 -2.779499,1.673643 -2.219532,2.451026 -4.770664,4.634583 -7.288949,6.771215 -1.038598,0.880617 -9.962086,7.14974 -8.5434,3.391082 1.787826,-4.739381 6.835345,-10.057499 10.614337,-13.365681 -0.677278,-0.0031 -1.35612,-0.0063 -2.031834,-0.0094 -0.450475,3.167408 -9.594509,9.092417 -11.940738,11.082019 -1.049546,0.890002 -2.131939,1.736209 -3.225282,2.571466 -2.976581,2.272713 -0.807102,0.954133 -0.508349,0.48958 1.047982,-1.639232 2.415051,-3.112663 3.671065,-4.590787 5.895293,-6.937 12.187877,-13.5580566 18.46482,-20.1493941 C 39.970679,2.2045063 37.762096,2.3718706 37.35698,2.7316256 30.776592,8.5862474 24.110175,14.397073 16.865022,19.425822 15.83581,20.14064 7.935277,25.61048 8.484294,22.097394 c 0.417629,-2.671572 3.283156,-5.241474 5.07411,-6.858807 1.925471,-1.739337 4.226339,-3.08138 6.574132,-4.157517 3.356671,-1.5375614 -2.088143,5.954728 -1.52192,5.268065 -2.013064,2.443205 -4.287342,4.559503 -6.664853,6.62262 -0.946312,0.82118 -7.476648,4.398396 -6.101758,-0.631917 C 7.261127,17.148416 13.47394,12.552938 17.262317,9.1649838 19.352024,7.2958219 21.530888,5.5267656 23.741035,3.8030699 24.623217,3.1148429 25.528861,2.4516424 26.454839,1.821289 27.810959,0.90000341 25.223851,1.5788454 24.743657,2.0152439 17.446887,8.6456852 8.567194,13.899673 0.41639697,19.408616 -0.85369503,20.267336 1.123394,20.481625 1.805364,20.0202 l 0,0 m 102.109426,3.104842 c -0.0266,-0.134517 -0.0485,-0.272162 -0.0563,-0.409808 -0.008,-0.137645 -0.002,-0.27529 0.005,-0.412936 0.0297,-0.595942 0.25495,-0.05318 -0.58656,0.03128 0.51148,-0.05005 1.17937,-0.351934 1.24194,-0.938491 0.061,-0.567787 -0.59125,-0.827437 -1.05737,-0.782076 -1.71118,0.168928 -2.09127,1.659565 -1.81285,3.118919 0.20803,1.093343 2.47918,0.505221 2.26645,-0.606891 l 0,0 z" />
</svg>
