<?xml version="1.0" encoding="UTF-8"?>
<svg version="1.1" xmlns="http://www.w3.org/2000/svg" width="381" height="183" >
<path d="M0.14,80.485c3.003,4.64,10.862,5.563,15.709,5.813c20.226,1.045,40.672-8.208,58.702-16.229 c39.506-17.575,77.238-39.023,115.066-59.884c5.246-2.893,10.462-5.965,15.903-8.485c-0.47-0.462-0.938-0.924-1.408-1.386 c-12.656,11.412-25.039,23.138-37.255,35.018c-18.529,18.02-38.614,36.517-52.962,58.191c0.706,0.266,1.412,0.531,2.117,0.797 c6.214-9.603,11.575-19.919,15.812-30.537c2.846-7.134,5.246-14.808,5.311-22.55c0.06-7.108-3.021-11.692-8.688-15.679 c-17.823-12.536-40.093-0.232-56.148,9.265c-17.021,10.069-30.188,24.692-42.09,40.304c-9.179,12.039-18.46,25.188-24.064,39.354 c-0.973,2.461-2.609,6.289-1.163,8.865c1.605,2.86,6.524,0.249,8.311-0.818c11.505-6.874,20.284-18.323,30.223-27.148 c1.674-1.486,3.43-3.052,5.436-4.076c2.116-1.08-0.08,5.811-0.352,6.497c-2.098,5.297-5.208,10.336-8.37,15.061 c-0.93,1.389,1.349,1.638,2.117,0.797c2.994-3.277,6.195-6.862,10.021-9.174c0.804-0.485,0.384,4.463,0.713,4.882 c0.794,1.014,1.867,0.704,2.915,0.26c2.946-1.248,5.765-4.602,8.155-6.628c4.634-3.929,9.272-7.853,13.968-11.708 c3.781-3.105,7.586-6.227,11.629-8.991c0.582-0.397,1.181-0.764,1.803-1.094c0.095-0.051-0.456-0.485-1.001,0.785 c-0.841,1.958-2,3.801-3.094,5.623c-3.021,5.036-6.333,9.906-9.667,14.738c-1.553,2.251-3.71,6.873-6.043,8.322 c0.562,0.405,1.123,0.811,1.684,1.216c4.709-3.565,9.805-6.785,14.856-9.834c1.263-0.762,2.55-1.483,3.876-2.131 c1.215-0.593,0.438-0.353,0.43-0.178c-0.041,0.865-0.47,1.73-0.773,2.529c-0.866,2.288-2.763,4.757-3.071,7.202 c-0.044,0.351,0.227,0.694,0.558,0.789c1.524,0.437,2.613-1.143,3.621-2.038c3.103-2.757,6.3-5.414,9.557-7.986 c1.34-1.06,2.709-2.081,4.125-3.038c2.099-1.417,0.043,0.047,0.158-0.78c-0.128,0.928-0.668,1.914-1.021,2.771 c-1.326,3.22-3,6.477-3.406,9.978c-0.784,6.765,8.476,0.144,9.955-1.307c1.559-1.53,3.037-3.128,4.497-4.752 c0.653-0.728,1.303-1.457,1.958-2.183c0.364-0.402,0.734-0.798,1.111-1.188c1.058-0.661,0.91-0.943-0.444-0.846 c-1.08,2.746-3.386,5.307-5.185,7.63c-0.959,1.238,1.115,1.581,1.901,1.006c3.873-2.836,7.806-5.595,11.798-8.262 c2.519-1.683,5.079-3.423,7.852-4.665c0.647-0.229,0.584-0.188-0.188,0.124c0.038,0.972-0.67,2.237-1.051,3.114 c-0.448,1.032-1.158,2.062-1.339,3.188c-0.099,0.612,0.68,0.944,1.174,0.872c2.538-0.368,5.187-3.765,7.202-5.211 c1.497-1.074,1.604-1.563,1.476,0.064c-0.158,2.005-1.43,4.267-2.582,5.854c-1.224,1.686-2.445,2.688-3.056,4.817 c-0.41,1.43,2.09,1.451,2.412,0.328c0.364-1.269,9.312-12.835,4.987-13.965c-1.541-0.402-2.908,0.339-4.185,1.193 c-1.319,0.883-2.569,1.845-3.806,2.839c-0.624,0.502-3.344,2.324-2.247,2.165c0.391,0.291,0.782,0.582,1.174,0.872 c0.276-1.716,4.091-6.388,1.833-8.014c-1.597-1.149-4.465,0.937-5.755,1.679c-6.051,3.483-11.755,7.671-17.383,11.792 c0.634,0.335,1.267,0.671,1.901,1.006c1.142-1.475,7.091-7.859,5.622-9.882c-2.045-2.815-8.667,6.393-9.491,7.281 c-1.329,1.435-8.508,8.711-7.374,2.897c0.642-3.289,2.398-6.416,3.623-9.515c1.55-3.919-1.01-3.897-3.804-2.116 c-5.364,3.421-10.289,7.909-14.979,12.189c-1.219,1.112,1.274,1.155,1.849-0.136c0.688-1.546,1.429-3.066,2.1-4.62 c0.567-1.313,2.014-4.045,0.875-5.395c-1.89-2.238-8.76,3.159-10.228,4.073c-4.333,2.699-8.723,5.487-12.796,8.571 c-1.411,1.068,0.662,1.851,1.684,1.216c2.643-1.643,4.764-6.272,6.477-8.741c3.776-5.443,7.467-10.967,10.835-16.674 c0.476-0.806,4.703-7.007,1.816-7.328c-2.917-0.324-6.571,3.386-8.628,4.952c-9.731,7.411-18.7,15.748-28.251,23.374 c0.082-0.065,0.015-3.424-0.475-4.441c-0.705-1.46-3.007-0.581-3.966-0.104c-4.23,2.104-7.858,6.489-11.006,9.935 c0.706,0.266,1.412,0.531,2.117,0.797c3.289-4.914,6.355-10.08,8.665-15.529c0.904-2.132,3.341-10.238-1.903-8.852 c-4.754,1.258-8.923,6.315-12.317,9.558c-5.957,5.687-11.711,11.59-17.931,16.995c-1.257,1.093-11.668,10.091-11.851,5.201 c-0.198-5.269,3.721-11.364,6.092-15.798c9.392-17.562,21.766-33.986,35.353-48.502c12.393-13.24,27.306-23.106,43.984-30.249 c7.959-3.409,16.839-5.619,25.424-3.468c6.351,1.591,13.718,6.009,15.888,12.497c3.844,11.492-3.257,26.218-8.003,36.408 c-3.457,7.423-7.399,14.729-11.852,21.608c-0.877,1.355,1.45,1.805,2.117,0.797c13.933-21.045,33.34-39.006,51.285-56.555 c12.597-12.318,25.414-24.436,38.499-36.236c1.161-1.047-0.359-1.872-1.408-1.386c-11.702,5.422-22.841,12.329-34.123,18.552 c-19.78,10.911-39.645,21.675-59.769,31.942c-21.224,10.828-42.913,21.884-65.7,29.043c-11.308,3.553-29.646,8.961-40.652,1.291 c-0.626-0.437-1.29-0.963-1.711-1.613C1.786,78.359-0.597,79.349,0.14,80.485L0.14,80.485 M195.782,95.528c38.407-12.591,74.855-29.726,109.942-49.654c17.697-10.051,35.2-20.45,52.581-31.038 c5.604-3.414,11.197-6.848,16.743-10.354c1.322-0.836,2.643-1.677,3.945-2.543c1.859-1.237-1.399-0.844-2.292,0.063 c-20.29,20.649-41.783,40.099-62.011,60.827c-8.573,8.786-18.326,17.751-24.304,28.623c-1.102,2.003-2.885,6.448,1.256,5.372 c4.944-1.285,9.035-6.711,12.177-10.335c8.193-9.451,16.014-20.355,21.21-31.756c3.374-7.405,5.051-16.517,0.081-23.581 c-9.514-13.521-33.122-6.879-44.975-1.3c-14.956,7.041-28.452,17.897-41.241,28.205c-14.065,11.336-27.753,23.412-40.027,36.689 c-4.192,4.534-10.003,10.13-11.66,16.32c-1.454,5.43,6.802,4.012,9.518,3.098c8.669-2.917,16.431-8.51,23.973-13.546 c2.583-1.724,5.224-3.922,8.114-5.111c-2.294,0.944-0.613-0.968-2.268,1.587c-0.902,1.393-1.964,2.687-3.011,3.971 c-0.419,0.515-3.034,2.825-2.611,3.665c0.203,0.404,0.847,0.367,1.22,0.299c3.825-0.698,7.462-4.044,10.763-5.909 c3.153-1.782,9.432-5.594,12.775-2.637c1.127,0.997,1.348,3.392,1.721,4.797c1.32,4.971,9.317,0.13,11.752-0.993 c19.756-9.115,40.104-17.038,59.564-26.78c9.142-4.576,17.828-10.28,25.99-16.421c1.507-1.134,4.103-2.868,4.37-4.946 c0.178-1.384-1.471-1.842-2.522-1.671c-5.153,0.84-10.122,5.172-14.268,8.046c-7.891,5.471-15.546,11.277-23.318,16.911 c-12.227,8.862-24.458,16.983-35.169,27.791c-0.555,0.56-6.621,6.227-3.145,6.125c3.785-0.111,8.21-3.505,11.412-5.178 c2.915-1.521,5.841-3.025,8.836-4.385c2.033-0.922,6.538-3.779,6.128,0.048c-0.082,0.768-2.193,5.543-1.139,5.958 c1.655,0.65,3.731-0.724,5.1-1.481c6.135-3.397,11.671-7.84,17.726-11.386c0.481-0.278,0.967-0.547,1.458-0.805 c1.331-0.717,1.111-0.893,1.029-0.167c-0.19,1.693-1.808,3.45-2.772,4.782c-1.485,2.049-3.131,4-4.814,5.889 c-0.789,0.885,2.019,0.522,2.473,0.125c4.742-4.153,9.573-8.21,14.481-12.165c3.292-2.653,6.627-5.313,10.187-7.604 c2.323-1.495,2.149-0.771,1.754,2.13c-0.234,1.719-0.947,3.461-1.669,5.03c-0.413,0.899,2.288,0.183,2.58-0.059 c4.75-3.937,9.58-7.914,14.768-11.263c0.529-0.341,1.076-0.649,1.63-0.947c-0.452,0.243-0.745-0.429-0.601-0.087 c0.044,0.102,0.095,0.201,0.144,0.302c0.143,0.296,0.251,0.6,0.316,0.922c0.836,4.083-3.746,9.472-5.825,12.414 c-10.014,14.169-22.44,26.784-34.46,39.221c-10.56,10.926-21.276,21.741-32.484,32.006c-6.401,5.862-13.045,11.934-20.53,16.408 c-2.311,1.381-5.476,2.941-4.549-1.141c1.086-4.785,4.469-9.276,7.209-13.219c10.564-15.203,23.896-29.092,38.215-40.761 c14.189-11.563,31.51-23.697,49.507-28.354c4.433-1.147,7.769-0.169,4.865,4.614c-5.253,8.651-14.75,15.363-22.483,21.575 c-1.241,0.997,1.661,0.805,2.279,0.309c1.746-1.402,31.495-25.046,22.554-28.195c-3.893-1.372-9.259,0.866-12.854,2.147 c-8.039,2.864-15.657,7.035-22.964,11.396c-18.029,10.758-33.846,24.425-47.858,40.002c-5.31,5.901-10.344,12.084-14.831,18.636 c-2.553,3.728-5.352,7.853-6.519,12.276c-2.265,8.585,11.672-0.176,13.597-1.535c19.97-14.104,37.047-33.168,53.857-50.74 c11.009-11.507,22.349-23.257,31.339-36.467c1.99-2.924,5.517-7.497,4.835-11.37c-1.15-6.528-19.236,9.721-21.435,11.542 c0.86-0.02,1.72-0.039,2.58-0.059c0.693-1.509,3.862-9.296,0.196-9.327c-2.98-0.025-5.968,2.581-8.235,4.201 c-7.642,5.46-14.813,11.668-21.874,17.852c0.824,0.042,1.648,0.083,2.473,0.125c0.947-1.063,9.968-11.696,7.362-12.424 c-4.607-1.289-11.571,5.142-15.011,7.418c-3.264,2.16-6.463,4.477-9.89,6.375c0.2-0.111,2.374-5.937,0.776-7.176 c-2.972-2.306-10.769,2.527-13.295,3.753c-3.31,1.605-6.551,3.351-9.814,5.046c-1.31,0.681-2.623,1.359-3.967,1.971 c-1.333,0.607-0.027,0.228,0.856-0.899c5.806-7.406,13.862-13.654,21.283-19.345c6.52-4.998,13.611-9.306,20.254-14.158 c7.642-5.583,15.206-11.285,23.056-16.574c1.926-1.297,3.886-2.544,5.914-3.673c1.4-0.78,3.399-1.232,1.825,0.998 c-1.646,2.331-4.686,4.026-6.976,5.624c-3.972,2.771-8.011,5.49-12.104,8.08c-13.003,8.228-27.852,13.837-41.94,19.884 c-6.432,2.761-12.876,5.495-19.238,8.412c-3.606,1.653-7.152,3.438-10.792,5.02c-2.188,0.952-3.709,1.79-4.405-0.834 c-1.03-3.877-2.526-6.734-7.137-6.089c-3.114,0.436-6.06,1.516-8.864,2.928c-2.1,1.057-4.139,2.192-6.162,3.386 c-1.408,0.831-3.814,3.08-5.418,3.373c0.407,0.1,0.813,0.199,1.221,0.3c-0.284-0.565,10.07-10.465,5.063-9.723 c-3.917,0.581-8,4.435-11.153,6.541c-6.4,4.273-12.913,8.727-20.052,11.688c-3.913,1.623-9.357,1.889-6.959-3.564 c2.233-5.079,6.546-9.502,10.217-13.554c5.91-6.522,12.297-12.617,18.785-18.558c14.131-12.938,29.075-25.16,44.896-35.981 c14.356-9.82,34.499-21.584,52.072-13.281c8.864,4.188,9.752,14.023,7.381,22.466c-3.568,12.705-13.126,24.602-21.356,34.703 c-2.586,3.174-5.347,6.263-8.452,8.939c-0.831,0.717-1.742,1.475-2.751,1.928c0.515-0.231,0.372-1.262,0.604-1.991 c1.576-4.965,5.604-9.427,8.951-13.324c10.228-11.91,21.555-22.931,32.701-33.968c10.548-10.445,21.22-20.764,31.91-31.063 c3.541-3.412,7.089-6.818,10.617-10.243c1.119-1.086,3.289-2.522,3.919-4.015c0.093-0.22-0.112-0.348-0.271-0.428 c-1.56-0.787-4.665,2.048-5.775,2.755c-5.263,3.354-10.587,6.613-15.912,9.868c-16.824,10.283-33.786,20.348-50.898,30.146 c-35.612,20.39-73.351,38.383-111.898,51.02C193.788,94.862,194.079,96.087,195.782,95.528L195.782,95.528z"/>
</svg>